<ttFont>
    <TTGlyph name=".notdef" xMin="-49" yMin="0" xMax="1061" yMax="1305">
      <contour>
        <pt x="784" y="0" on="1"/>
        <pt x="-49" y="0" on="1"/>
        <pt x="227" y="1305" on="1"/>
        <pt x="1061" y="1305" on="1"/>
      </contour>
      <contour>
        <pt x="197" y="186" on="1"/>
        <pt x="616" y="186" on="1"/>
        <pt x="815" y="1118" on="1"/>
        <pt x="395" y="1118" on="1"/>
      </contour>
    </TTGlyph>
    <TTGlyph name="A" xMin="-158" yMin="0" xMax="895" yMax="1305">
      <contour>
        <pt x="678" y="0" on="1"/>
        <pt x="649" y="311" on="1"/>
        <pt x="217" y="311" on="1"/>
        <pt x="59" y="0" on="1"/>
        <pt x="-158" y="0" on="1"/>
        <pt x="526" y="1305" on="1"/>
        <pt x="764" y="1305" on="1"/>
        <pt x="895" y="0" on="1"/>
      </contour>
      <contour>
        <pt x="311" y="494" on="1"/>
        <pt x="633" y="494" on="1"/>
        <pt x="588" y="1032" on="1"/>
      </contour>
    </TTGlyph>
    <TTGlyph name="AE" xMin="-162" yMin="0" xMax="1110" yMax="1305">
      <contour>
        <pt x="297" y="0" on="1"/>
        <pt x="362" y="311" on="1"/>
        <pt x="193" y="311" on="1"/>
        <pt x="51" y="0" on="1"/>
        <pt x="-162" y="0" on="1"/>
        <pt x="479" y="1305" on="1"/>
        <pt x="1110" y="1305" on="1"/>
        <pt x="1071" y="1118" on="1"/>
        <pt x="741" y="1118" on="1"/>
        <pt x="664" y="758" on="1"/>
        <pt x="944" y="758" on="1"/>
        <pt x="905" y="571" on="1"/>
        <pt x="625" y="571" on="1"/>
        <pt x="543" y="186" on="1"/>
        <pt x="872" y="186" on="1"/>
        <pt x="834" y="0" on="1"/>
      </contour>
      <contour>
        <pt x="274" y="494" on="1"/>
        <pt x="401" y="494" on="1"/>
        <pt x="510" y="1010" on="1"/>
      </contour>
    </TTGlyph>
    <TTGlyph name="AEacute" xMin="-162" yMin="0" xMax="1110" yMax="1780">
      <component glyphName="AE" x="0" y="0" flags="0x204"/>
      <component glyphName="acute" x="80" y="375" flags="0x4"/>
    </TTGlyph>
    <TTGlyph name="Aacute" xMin="-158" yMin="0" xMax="952" yMax="1776">
      <component glyphName="A" x="0" y="0" flags="0x204"/>
      <component glyphName="acute" x="80" y="371" flags="0x4"/>
    </TTGlyph>
    <TTGlyph name="Abreve" xMin="-158" yMin="0" xMax="1024" yMax="1657">
      <component glyphName="A" x="0" y="0" flags="0x204"/>
      <component glyphName="breve" x="80" y="371" flags="0x4"/>
    </TTGlyph>
    <TTGlyph name="Acircumflex" xMin="-158" yMin="0" xMax="1002" yMax="1770">
      <component glyphName="A" x="0" y="0" flags="0x204"/>
      <component glyphName="circumflex" x="80" y="371" flags="0x4"/>
    </TTGlyph>
    <TTGlyph name="Adieresis" xMin="-158" yMin="0" xMax="1036" yMax="1676">
      <component glyphName="A" x="0" y="0" flags="0x204"/>
      <component glyphName="dieresis" x="80" y="371" flags="0x4"/>
    </TTGlyph>
    <TTGlyph name="Agrave" xMin="-158" yMin="0" xMax="967" yMax="1776">
      <component glyphName="A" x="0" y="0" flags="0x204"/>
      <component glyphName="grave" x="80" y="371" flags="0x4"/>
    </TTGlyph>
    <TTGlyph name="Alpha" xMin="-158" yMin="0" xMax="895" yMax="1305">
      <contour>
        <pt x="678" y="0" on="1"/>
        <pt x="649" y="311" on="1"/>
        <pt x="217" y="311" on="1"/>
        <pt x="59" y="0" on="1"/>
        <pt x="-158" y="0" on="1"/>
        <pt x="526" y="1305" on="1"/>
        <pt x="764" y="1305" on="1"/>
        <pt x="895" y="0" on="1"/>
      </contour>
      <contour>
        <pt x="311" y="494" on="1"/>
        <pt x="633" y="494" on="1"/>
        <pt x="588" y="1032" on="1"/>
      </contour>
    </TTGlyph>
    <TTGlyph name="Alphatonos" xMin="-158" yMin="0" xMax="895" yMax="1675">
      <component glyphName="Alpha" x="0" y="0" flags="0x200"/>
      <component glyphName="tonos" x="-372" y="0" flags="0x0"/>
    </TTGlyph>
    <TTGlyph name="Amacron" xMin="-158" yMin="0" xMax="985" yMax="1590">
      <component glyphName="A" x="0" y="0" flags="0x204"/>
      <component glyphName="macron" x="80" y="371" flags="0x4"/>
    </TTGlyph>
    <TTGlyph name="Aogonek" xMin="-158" yMin="-379" xMax="956" yMax="1305">
      <contour>
        <pt x="926" y="-379" on="1"/>
        <pt x="791" y="-379" on="0"/>
        <pt x="659" y="-260" on="0"/>
        <pt x="684" y="-141" on="1"/>
        <pt x="692" y="-100" on="0"/>
        <pt x="737" y="-29" on="0"/>
        <pt x="768" y="0" on="1"/>
        <pt x="678" y="0" on="1"/>
        <pt x="649" y="311" on="1"/>
        <pt x="217" y="311" on="1"/>
        <pt x="59" y="0" on="1"/>
        <pt x="-158" y="0" on="1"/>
        <pt x="526" y="1305" on="1"/>
        <pt x="764" y="1305" on="1"/>
        <pt x="895" y="0" on="1"/>
        <pt x="846" y="-43" on="0"/>
        <pt x="834" y="-104" on="1"/>
        <pt x="819" y="-168" on="0"/>
        <pt x="893" y="-231" on="0"/>
        <pt x="956" y="-231" on="1"/>
      </contour>
      <contour>
        <pt x="311" y="494" on="1"/>
        <pt x="633" y="494" on="1"/>
        <pt x="588" y="1032" on="1"/>
      </contour>
    </TTGlyph>
    <TTGlyph name="Aring" xMin="-158" yMin="0" xMax="911" yMax="1675">
      <contour>
        <pt x="451" y="1450" on="1"/>
        <pt x="461" y="1497" on="0"/>
        <pt x="512" y="1579" on="0"/>
        <pt x="588" y="1640" on="0"/>
        <pt x="676" y="1675" on="0"/>
        <pt x="723" y="1675" on="1"/>
        <pt x="770" y="1675" on="0"/>
        <pt x="846" y="1640" on="0"/>
        <pt x="893" y="1579" on="0"/>
        <pt x="911" y="1497" on="0"/>
        <pt x="901" y="1450" on="1"/>
        <pt x="889" y="1393" on="0"/>
        <pt x="817" y="1296" on="0"/>
        <pt x="768" y="1266" on="1"/>
        <pt x="895" y="0" on="1"/>
        <pt x="678" y="0" on="1"/>
        <pt x="649" y="311" on="1"/>
        <pt x="217" y="311" on="1"/>
        <pt x="59" y="0" on="1"/>
        <pt x="-158" y="0" on="1"/>
        <pt x="506" y="1266" on="1"/>
        <pt x="469" y="1296" on="0"/>
        <pt x="438" y="1393" on="0"/>
      </contour>
      <contour>
        <pt x="311" y="494" on="1"/>
        <pt x="633" y="494" on="1"/>
        <pt x="588" y="1032" on="1"/>
      </contour>
      <contour>
        <pt x="584" y="1450" on="1"/>
        <pt x="575" y="1411" on="0"/>
        <pt x="616" y="1358" on="0"/>
        <pt x="655" y="1358" on="1"/>
        <pt x="694" y="1358" on="0"/>
        <pt x="760" y="1411" on="0"/>
        <pt x="768" y="1450" on="1"/>
        <pt x="776" y="1489" on="0"/>
        <pt x="735" y="1542" on="0"/>
        <pt x="696" y="1542" on="1"/>
        <pt x="657" y="1542" on="0"/>
        <pt x="592" y="1489" on="0"/>
      </contour>
    </TTGlyph>
    <TTGlyph name="Atilde" xMin="-158" yMin="0" xMax="1120" yMax="1686">
      <component glyphName="A" x="0" y="0" flags="0x204"/>
      <component glyphName="tilde" x="80" y="371" flags="0x4"/>
    </TTGlyph>
    <TTGlyph name="B" xMin="-49" yMin="0" xMax="1014" yMax="1305">
      <contour>
        <pt x="907" y="358" on="1"/>
        <pt x="868" y="180" on="0"/>
        <pt x="590" y="0" on="0"/>
        <pt x="367" y="0" on="1"/>
        <pt x="-49" y="0" on="1"/>
        <pt x="227" y="1305" on="1"/>
        <pt x="621" y="1305" on="1"/>
        <pt x="702" y="1305" on="0"/>
        <pt x="854" y="1278" on="0"/>
        <pt x="963" y="1204" on="0"/>
        <pt x="1014" y="1071" on="0"/>
        <pt x="991" y="965" on="1"/>
        <pt x="969" y="866" on="0"/>
        <pt x="834" y="702" on="0"/>
        <pt x="725" y="666" on="1"/>
        <pt x="842" y="627" on="0"/>
        <pt x="934" y="487" on="0"/>
      </contour>
      <contour>
        <pt x="780" y="938" on="1"/>
        <pt x="793" y="995" on="0"/>
        <pt x="764" y="1067" on="0"/>
        <pt x="705" y="1106" on="0"/>
        <pt x="625" y="1118" on="0"/>
        <pt x="582" y="1118" on="1"/>
        <pt x="395" y="1118" on="1"/>
        <pt x="317" y="758" on="1"/>
        <pt x="504" y="758" on="1"/>
        <pt x="547" y="758" on="0"/>
        <pt x="633" y="770" on="0"/>
        <pt x="709" y="809" on="0"/>
        <pt x="768" y="881" on="0"/>
      </contour>
      <contour>
        <pt x="707" y="379" on="1"/>
        <pt x="727" y="477" on="0"/>
        <pt x="610" y="571" on="0"/>
        <pt x="487" y="571" on="1"/>
        <pt x="279" y="571" on="1"/>
        <pt x="197" y="186" on="1"/>
        <pt x="406" y="186" on="1"/>
        <pt x="528" y="186" on="0"/>
        <pt x="686" y="281" on="0"/>
      </contour>
    </TTGlyph>
    <TTGlyph name="Beta" xMin="-49" yMin="0" xMax="1014" yMax="1305">
      <contour>
        <pt x="907" y="358" on="1"/>
        <pt x="868" y="180" on="0"/>
        <pt x="590" y="0" on="0"/>
        <pt x="367" y="0" on="1"/>
        <pt x="-49" y="0" on="1"/>
        <pt x="227" y="1305" on="1"/>
        <pt x="621" y="1305" on="1"/>
        <pt x="702" y="1305" on="0"/>
        <pt x="854" y="1278" on="0"/>
        <pt x="963" y="1204" on="0"/>
        <pt x="1014" y="1071" on="0"/>
        <pt x="991" y="965" on="1"/>
        <pt x="969" y="866" on="0"/>
        <pt x="834" y="702" on="0"/>
        <pt x="725" y="666" on="1"/>
        <pt x="842" y="627" on="0"/>
        <pt x="934" y="487" on="0"/>
      </contour>
      <contour>
        <pt x="780" y="938" on="1"/>
        <pt x="793" y="995" on="0"/>
        <pt x="764" y="1067" on="0"/>
        <pt x="705" y="1106" on="0"/>
        <pt x="625" y="1118" on="0"/>
        <pt x="582" y="1118" on="1"/>
        <pt x="395" y="1118" on="1"/>
        <pt x="317" y="758" on="1"/>
        <pt x="504" y="758" on="1"/>
        <pt x="547" y="758" on="0"/>
        <pt x="633" y="770" on="0"/>
        <pt x="709" y="809" on="0"/>
        <pt x="768" y="881" on="0"/>
      </contour>
      <contour>
        <pt x="707" y="379" on="1"/>
        <pt x="727" y="477" on="0"/>
        <pt x="610" y="571" on="0"/>
        <pt x="487" y="571" on="1"/>
        <pt x="279" y="571" on="1"/>
        <pt x="197" y="186" on="1"/>
        <pt x="406" y="186" on="1"/>
        <pt x="528" y="186" on="0"/>
        <pt x="686" y="281" on="0"/>
      </contour>
    </TTGlyph>
    <TTGlyph name="C" xMin="-8" yMin="-23" xMax="1110" yMax="1327">
      <contour>
        <pt x="938" y="399" on="1"/>
        <pt x="893" y="303" on="0"/>
        <pt x="780" y="147" on="0"/>
        <pt x="641" y="37" on="0"/>
        <pt x="475" y="-23" on="0"/>
        <pt x="377" y="-23" on="1"/>
        <pt x="240" y="-23" on="0"/>
        <pt x="74" y="90" on="0"/>
        <pt x="-8" y="279" on="0"/>
        <pt x="-8" y="522" on="0"/>
        <pt x="18" y="653" on="1"/>
        <pt x="47" y="784" on="0"/>
        <pt x="152" y="1028" on="0"/>
        <pt x="311" y="1214" on="0"/>
        <pt x="518" y="1327" on="0"/>
        <pt x="651" y="1327" on="1"/>
        <pt x="694" y="1327" on="0"/>
        <pt x="778" y="1305" on="0"/>
        <pt x="844" y="1260" on="0"/>
        <pt x="887" y="1194" on="0"/>
        <pt x="891" y="1151" on="1"/>
        <pt x="924" y="1305" on="1"/>
        <pt x="1110" y="1305" on="1"/>
        <pt x="1006" y="811" on="1"/>
        <pt x="819" y="811" on="1"/>
        <pt x="831" y="872" on="0"/>
        <pt x="825" y="991" on="0"/>
        <pt x="780" y="1083" on="0"/>
        <pt x="692" y="1141" on="0"/>
        <pt x="625" y="1141" on="1"/>
        <pt x="537" y="1141" on="0"/>
        <pt x="406" y="1055" on="0"/>
        <pt x="309" y="915" on="0"/>
        <pt x="244" y="741" on="0"/>
        <pt x="225" y="653" on="1"/>
        <pt x="207" y="565" on="0"/>
        <pt x="197" y="389" on="0"/>
        <pt x="231" y="250" on="0"/>
        <pt x="330" y="164" on="0"/>
        <pt x="418" y="164" on="1"/>
        <pt x="545" y="164" on="0"/>
        <pt x="715" y="326" on="0"/>
        <pt x="786" y="463" on="1"/>
      </contour>
    </TTGlyph>
    <TTGlyph name="Cacute" xMin="-8" yMin="-23" xMax="1110" yMax="1780">
      <component glyphName="C" x="0" y="0" flags="0x204"/>
      <component glyphName="acute" x="80" y="375" flags="0x4"/>
    </TTGlyph>
    <TTGlyph name="Ccaron" xMin="-8" yMin="-23" xMax="1110" yMax="1774">
      <component glyphName="C" x="0" y="0" flags="0x204"/>
      <component glyphName="caron" x="80" y="375" flags="0x4"/>
    </TTGlyph>
    <TTGlyph name="Ccedilla" xMin="-8" yMin="-371" xMax="1110" yMax="1327">
      <contour>
        <pt x="938" y="399" on="1"/>
        <pt x="860" y="236" on="0"/>
        <pt x="639" y="16" on="0"/>
        <pt x="487" y="-12" on="1"/>
        <pt x="481" y="-41" on="1"/>
        <pt x="467" y="-111" on="0"/>
        <pt x="393" y="-231" on="0"/>
        <pt x="285" y="-319" on="0"/>
        <pt x="145" y="-371" on="0"/>
        <pt x="63" y="-371" on="1"/>
        <pt x="102" y="-193" on="1"/>
        <pt x="190" y="-193" on="0"/>
        <pt x="291" y="-113" on="0"/>
        <pt x="305" y="-41" on="1"/>
        <pt x="311" y="-18" on="1"/>
        <pt x="195" y="-4" on="0"/>
        <pt x="57" y="117" on="0"/>
        <pt x="-8" y="301" on="0"/>
        <pt x="-6" y="530" on="0"/>
        <pt x="18" y="653" on="1"/>
        <pt x="47" y="784" on="0"/>
        <pt x="152" y="1028" on="0"/>
        <pt x="311" y="1214" on="0"/>
        <pt x="518" y="1327" on="0"/>
        <pt x="651" y="1327" on="1"/>
        <pt x="694" y="1327" on="0"/>
        <pt x="778" y="1305" on="0"/>
        <pt x="844" y="1260" on="0"/>
        <pt x="887" y="1194" on="0"/>
        <pt x="891" y="1151" on="1"/>
        <pt x="924" y="1305" on="1"/>
        <pt x="1110" y="1305" on="1"/>
        <pt x="1006" y="811" on="1"/>
        <pt x="819" y="811" on="1"/>
        <pt x="831" y="872" on="0"/>
        <pt x="825" y="991" on="0"/>
        <pt x="780" y="1083" on="0"/>
        <pt x="692" y="1141" on="0"/>
        <pt x="625" y="1141" on="1"/>
        <pt x="537" y="1141" on="0"/>
        <pt x="406" y="1055" on="0"/>
        <pt x="309" y="915" on="0"/>
        <pt x="244" y="741" on="0"/>
        <pt x="225" y="653" on="1"/>
        <pt x="207" y="565" on="0"/>
        <pt x="197" y="389" on="0"/>
        <pt x="231" y="250" on="0"/>
        <pt x="330" y="164" on="0"/>
        <pt x="418" y="164" on="1"/>
        <pt x="545" y="164" on="0"/>
        <pt x="715" y="326" on="0"/>
        <pt x="786" y="463" on="1"/>
      </contour>
    </TTGlyph>
    <TTGlyph name="Ccircumflex" xMin="-8" yMin="-23" xMax="1110" yMax="1774">
      <component glyphName="C" x="0" y="0" flags="0x204"/>
      <component glyphName="circumflex" x="80" y="375" flags="0x4"/>
    </TTGlyph>
    <TTGlyph name="Cdotaccent" xMin="-8" yMin="-23" xMax="1110" yMax="1676">
      <component glyphName="C" x="0" y="0" flags="0x204"/>
      <component glyphName="dotaccent" x="80" y="371" flags="0x4"/>
    </TTGlyph>
    <TTGlyph name="Chi" xMin="-121" yMin="0" xMax="1110" yMax="1305">
      <contour>
        <pt x="854" y="0" on="1"/>
        <pt x="428" y="0" on="1"/>
        <pt x="467" y="186" on="1"/>
        <pt x="541" y="186" on="1"/>
        <pt x="465" y="481" on="1"/>
        <pt x="266" y="186" on="1"/>
        <pt x="340" y="186" on="1"/>
        <pt x="301" y="0" on="1"/>
        <pt x="-121" y="0" on="1"/>
        <pt x="-82" y="186" on="1"/>
        <pt x="31" y="186" on="1"/>
        <pt x="385" y="659" on="1"/>
        <pt x="233" y="1118" on="1"/>
        <pt x="139" y="1118" on="1"/>
        <pt x="178" y="1305" on="1"/>
        <pt x="592" y="1305" on="1"/>
        <pt x="553" y="1118" on="1"/>
        <pt x="469" y="1118" on="1"/>
        <pt x="541" y="829" on="1"/>
        <pt x="737" y="1118" on="1"/>
        <pt x="655" y="1118" on="1"/>
        <pt x="694" y="1305" on="1"/>
        <pt x="1110" y="1305" on="1"/>
        <pt x="1071" y="1118" on="1"/>
        <pt x="971" y="1118" on="1"/>
        <pt x="623" y="659" on="1"/>
        <pt x="776" y="186" on="1"/>
        <pt x="893" y="186" on="1"/>
      </contour>
    </TTGlyph>
    <TTGlyph name="D" xMin="-49" yMin="0" xMax="1042" yMax="1305">
      <contour>
        <pt x="1014" y="653" on="1"/>
        <pt x="987" y="522" on="0"/>
        <pt x="881" y="285" on="0"/>
        <pt x="723" y="106" on="0"/>
        <pt x="510" y="0" on="0"/>
        <pt x="375" y="0" on="1"/>
        <pt x="-49" y="0" on="1"/>
        <pt x="227" y="1305" on="1"/>
        <pt x="651" y="1305" on="1"/>
        <pt x="784" y="1305" on="0"/>
        <pt x="952" y="1198" on="0"/>
        <pt x="1034" y="1020" on="0"/>
        <pt x="1042" y="784" on="0"/>
      </contour>
      <contour>
        <pt x="807" y="653" on="1"/>
        <pt x="856" y="879" on="0"/>
        <pt x="754" y="1118" on="0"/>
        <pt x="612" y="1118" on="1"/>
        <pt x="395" y="1118" on="1"/>
        <pt x="197" y="186" on="1"/>
        <pt x="414" y="186" on="1"/>
        <pt x="555" y="186" on="0"/>
        <pt x="760" y="430" on="0"/>
      </contour>
    </TTGlyph>
    <TTGlyph name="Dcaron" xMin="-49" yMin="0" xMax="1047" yMax="1774">
      <component glyphName="D" x="0" y="0" flags="0x204"/>
      <component glyphName="caron" x="80" y="375" flags="0x4"/>
    </TTGlyph>
    <TTGlyph name="Dcroat" xMin="-94" yMin="0" xMax="1042" yMax="1305">
      <component glyphName="Eth" x="0" y="0" flags="0x204"/>
    </TTGlyph>
    <TTGlyph name="Delta" xMin="-158" yMin="0" xMax="895" yMax="1305">
      <contour>
        <pt x="-158" y="0" on="1"/>
        <pt x="526" y="1305" on="1"/>
        <pt x="764" y="1305" on="1"/>
        <pt x="895" y="0" on="1"/>
      </contour>
      <contour>
        <pt x="154" y="184" on="1"/>
        <pt x="662" y="184" on="1"/>
        <pt x="588" y="1032" on="1"/>
      </contour>
    </TTGlyph>
    <TTGlyph name="E" xMin="-49" yMin="0" xMax="1061" yMax="1305">
      <contour>
        <pt x="784" y="0" on="1"/>
        <pt x="-49" y="0" on="1"/>
        <pt x="227" y="1305" on="1"/>
        <pt x="1061" y="1305" on="1"/>
        <pt x="1022" y="1118" on="1"/>
        <pt x="395" y="1118" on="1"/>
        <pt x="317" y="758" on="1"/>
        <pt x="807" y="758" on="1"/>
        <pt x="768" y="571" on="1"/>
        <pt x="279" y="571" on="1"/>
        <pt x="197" y="186" on="1"/>
        <pt x="823" y="186" on="1"/>
      </contour>
    </TTGlyph>
    <TTGlyph name="Eacute" xMin="-49" yMin="0" xMax="1061" yMax="1776">
      <component glyphName="E" x="0" y="0" flags="0x204"/>
      <component glyphName="acute" x="80" y="371" flags="0x4"/>
    </TTGlyph>
    <TTGlyph name="Ebreve" xMin="-49" yMin="0" xMax="1061" yMax="1657">
      <component glyphName="E" x="0" y="0" flags="0x204"/>
      <component glyphName="breve" x="80" y="371" flags="0x4"/>
    </TTGlyph>
    <TTGlyph name="Ecaron" xMin="-49" yMin="0" xMax="1061" yMax="1770">
      <component glyphName="E" x="0" y="0" flags="0x204"/>
      <component glyphName="caron" x="80" y="371" flags="0x4"/>
    </TTGlyph>
    <TTGlyph name="Ecircumflex" xMin="-49" yMin="0" xMax="1061" yMax="1770">
      <component glyphName="E" x="0" y="0" flags="0x204"/>
      <component glyphName="circumflex" x="80" y="371" flags="0x4"/>
    </TTGlyph>
    <TTGlyph name="Edieresis" xMin="-49" yMin="0" xMax="1061" yMax="1676">
      <component glyphName="E" x="0" y="0" flags="0x204"/>
      <component glyphName="dieresis" x="80" y="371" flags="0x4"/>
    </TTGlyph>
    <TTGlyph name="Edotaccent" xMin="-49" yMin="0" xMax="1061" yMax="1676">
      <component glyphName="E" x="0" y="0" flags="0x204"/>
      <component glyphName="dotaccent" x="80" y="371" flags="0x4"/>
    </TTGlyph>
    <TTGlyph name="Egrave" xMin="-49" yMin="0" xMax="1061" yMax="1776">
      <component glyphName="E" x="0" y="0" flags="0x204"/>
      <component glyphName="grave" x="80" y="371" flags="0x4"/>
    </TTGlyph>
    <TTGlyph name="Emacron" xMin="-49" yMin="0" xMax="1061" yMax="1590">
      <component glyphName="E" x="0" y="0" flags="0x204"/>
      <component glyphName="macron" x="80" y="371" flags="0x4"/>
    </TTGlyph>
    <TTGlyph name="Eng" xMin="-49" yMin="-395" xMax="1061" yMax="1305">
      <contour>
        <pt x="809" y="125" on="1"/>
        <pt x="758" y="-123" on="0"/>
        <pt x="487" y="-395" on="0"/>
        <pt x="270" y="-395" on="1"/>
        <pt x="86" y="-395" on="0"/>
        <pt x="-14" y="-291" on="1"/>
        <pt x="143" y="-135" on="1"/>
        <pt x="199" y="-209" on="0"/>
        <pt x="311" y="-209" on="1"/>
        <pt x="399" y="-209" on="0"/>
        <pt x="514" y="-113" on="0"/>
        <pt x="549" y="-41" on="1"/>
        <pt x="358" y="946" on="1"/>
        <pt x="158" y="0" on="1"/>
        <pt x="-49" y="0" on="1"/>
        <pt x="227" y="1305" on="1"/>
        <pt x="487" y="1305" on="1"/>
        <pt x="664" y="406" on="1"/>
        <pt x="854" y="1305" on="1"/>
        <pt x="1061" y="1305" on="1"/>
      </contour>
    </TTGlyph>
    <TTGlyph name="Eogonek" xMin="-49" yMin="-379" xMax="1061" yMax="1305">
      <contour>
        <pt x="815" y="-379" on="1"/>
        <pt x="680" y="-379" on="0"/>
        <pt x="549" y="-260" on="0"/>
        <pt x="573" y="-141" on="1"/>
        <pt x="582" y="-100" on="0"/>
        <pt x="627" y="-29" on="0"/>
        <pt x="657" y="0" on="1"/>
        <pt x="-49" y="0" on="1"/>
        <pt x="227" y="1305" on="1"/>
        <pt x="1061" y="1305" on="1"/>
        <pt x="1022" y="1118" on="1"/>
        <pt x="395" y="1118" on="1"/>
        <pt x="317" y="758" on="1"/>
        <pt x="807" y="758" on="1"/>
        <pt x="768" y="571" on="1"/>
        <pt x="279" y="571" on="1"/>
        <pt x="197" y="186" on="1"/>
        <pt x="823" y="186" on="1"/>
        <pt x="784" y="0" on="1"/>
        <pt x="735" y="-43" on="0"/>
        <pt x="723" y="-104" on="1"/>
        <pt x="709" y="-168" on="0"/>
        <pt x="782" y="-231" on="0"/>
        <pt x="846" y="-231" on="1"/>
      </contour>
    </TTGlyph>
    <TTGlyph name="Epsilon" xMin="-49" yMin="0" xMax="1061" yMax="1305">
      <contour>
        <pt x="784" y="0" on="1"/>
        <pt x="-49" y="0" on="1"/>
        <pt x="227" y="1305" on="1"/>
        <pt x="1061" y="1305" on="1"/>
        <pt x="1022" y="1118" on="1"/>
        <pt x="395" y="1118" on="1"/>
        <pt x="317" y="758" on="1"/>
        <pt x="807" y="758" on="1"/>
        <pt x="768" y="571" on="1"/>
        <pt x="279" y="571" on="1"/>
        <pt x="197" y="186" on="1"/>
        <pt x="823" y="186" on="1"/>
      </contour>
    </TTGlyph>
    <TTGlyph name="Epsilontonos" xMin="-49" yMin="0" xMax="1061" yMax="1675">
      <component glyphName="tonos" x="-558" y="0" flags="0x200"/>
      <component glyphName="Epsilon" x="0" y="0" flags="0x0"/>
    </TTGlyph>
    <TTGlyph name="Eta" xMin="-49" yMin="0" xMax="1061" yMax="1305">
      <contour>
        <pt x="784" y="0" on="1"/>
        <pt x="578" y="0" on="1"/>
        <pt x="698" y="571" on="1"/>
        <pt x="279" y="571" on="1"/>
        <pt x="158" y="0" on="1"/>
        <pt x="-49" y="0" on="1"/>
        <pt x="227" y="1305" on="1"/>
        <pt x="434" y="1305" on="1"/>
        <pt x="317" y="758" on="1"/>
        <pt x="737" y="758" on="1"/>
        <pt x="854" y="1305" on="1"/>
        <pt x="1061" y="1305" on="1"/>
      </contour>
    </TTGlyph>
    <TTGlyph name="Etatonos" xMin="-49" yMin="0" xMax="1061" yMax="1675">
      <component glyphName="tonos" x="-558" y="0" flags="0x200"/>
      <component glyphName="Eta" x="0" y="0" flags="0x0"/>
    </TTGlyph>
    <TTGlyph name="Eth" xMin="-94" yMin="0" xMax="1042" yMax="1305">
      <contour>
        <pt x="-55" y="758" on="1"/>
        <pt x="111" y="758" on="1"/>
        <pt x="227" y="1305" on="1"/>
        <pt x="651" y="1305" on="1"/>
        <pt x="784" y="1305" on="0"/>
        <pt x="952" y="1198" on="0"/>
        <pt x="1034" y="1020" on="0"/>
        <pt x="1042" y="784" on="0"/>
        <pt x="1014" y="653" on="1"/>
        <pt x="987" y="522" on="0"/>
        <pt x="881" y="285" on="0"/>
        <pt x="723" y="106" on="0"/>
        <pt x="510" y="0" on="0"/>
        <pt x="375" y="0" on="1"/>
        <pt x="-49" y="0" on="1"/>
        <pt x="72" y="571" on="1"/>
        <pt x="-94" y="571" on="1"/>
      </contour>
      <contour>
        <pt x="807" y="653" on="1"/>
        <pt x="856" y="879" on="0"/>
        <pt x="754" y="1118" on="0"/>
        <pt x="612" y="1118" on="1"/>
        <pt x="395" y="1118" on="1"/>
        <pt x="317" y="758" on="1"/>
        <pt x="502" y="758" on="1"/>
        <pt x="463" y="571" on="1"/>
        <pt x="279" y="571" on="1"/>
        <pt x="197" y="186" on="1"/>
        <pt x="414" y="186" on="1"/>
        <pt x="555" y="186" on="0"/>
        <pt x="760" y="430" on="0"/>
      </contour>
    </TTGlyph>
    <TTGlyph name="Euro" xMin="-14" yMin="-23" xMax="1044" yMax="1327">
      <contour>
        <pt x="94" y="907" on="1"/>
        <pt x="266" y="907" on="1"/>
        <pt x="301" y="995" on="0"/>
        <pt x="397" y="1149" on="0"/>
        <pt x="518" y="1264" on="0"/>
        <pt x="662" y="1327" on="0"/>
        <pt x="745" y="1327" on="1"/>
        <pt x="827" y="1327" on="0"/>
        <pt x="942" y="1266" on="0"/>
        <pt x="1014" y="1155" on="0"/>
        <pt x="1044" y="999" on="0"/>
        <pt x="1044" y="903" on="1"/>
        <pt x="854" y="866" on="1"/>
        <pt x="860" y="1006" on="0"/>
        <pt x="801" y="1141" on="0"/>
        <pt x="709" y="1141" on="1"/>
        <pt x="629" y="1141" on="0"/>
        <pt x="512" y="1006" on="0"/>
        <pt x="471" y="907" on="1"/>
        <pt x="653" y="907" on="1"/>
        <pt x="616" y="733" on="1"/>
        <pt x="416" y="733" on="1"/>
        <pt x="408" y="713" on="0"/>
        <pt x="399" y="674" on="0"/>
        <pt x="395" y="653" on="1"/>
        <pt x="391" y="631" on="0"/>
        <pt x="383" y="592" on="0"/>
        <pt x="381" y="571" on="1"/>
        <pt x="582" y="571" on="1"/>
        <pt x="545" y="397" on="1"/>
        <pt x="362" y="397" on="1"/>
        <pt x="360" y="297" on="0"/>
        <pt x="422" y="164" on="0"/>
        <pt x="502" y="164" on="1"/>
        <pt x="592" y="164" on="0"/>
        <pt x="707" y="299" on="0"/>
        <pt x="764" y="436" on="1"/>
        <pt x="938" y="399" on="1"/>
        <pt x="897" y="303" on="0"/>
        <pt x="801" y="147" on="0"/>
        <pt x="680" y="37" on="0"/>
        <pt x="541" y="-23" on="0"/>
        <pt x="459" y="-23" on="1"/>
        <pt x="375" y="-23" on="0"/>
        <pt x="258" y="41" on="0"/>
        <pt x="184" y="154" on="0"/>
        <pt x="154" y="307" on="0"/>
        <pt x="158" y="397" on="1"/>
        <pt x="-14" y="397" on="1"/>
        <pt x="23" y="571" on="1"/>
        <pt x="174" y="571" on="1"/>
        <pt x="176" y="592" on="0"/>
        <pt x="184" y="631" on="0"/>
        <pt x="188" y="653" on="1"/>
        <pt x="193" y="674" on="0"/>
        <pt x="201" y="713" on="0"/>
        <pt x="209" y="733" on="1"/>
        <pt x="57" y="733" on="1"/>
      </contour>
    </TTGlyph>
    <TTGlyph name="F" xMin="-49" yMin="0" xMax="1061" yMax="1305">
      <contour>
        <pt x="1022" y="1118" on="1"/>
        <pt x="395" y="1118" on="1"/>
        <pt x="317" y="758" on="1"/>
        <pt x="807" y="758" on="1"/>
        <pt x="768" y="571" on="1"/>
        <pt x="279" y="571" on="1"/>
        <pt x="158" y="0" on="1"/>
        <pt x="-49" y="0" on="1"/>
        <pt x="227" y="1305" on="1"/>
        <pt x="1061" y="1305" on="1"/>
      </contour>
    </TTGlyph>
    <TTGlyph name="G" xMin="-10" yMin="-23" xMax="1110" yMax="1327">
      <contour>
        <pt x="1022" y="649" on="1"/>
        <pt x="993" y="516" on="0"/>
        <pt x="889" y="274" on="0"/>
        <pt x="729" y="88" on="0"/>
        <pt x="514" y="-23" on="0"/>
        <pt x="377" y="-23" on="1"/>
        <pt x="240" y="-23" on="0"/>
        <pt x="74" y="90" on="0"/>
        <pt x="-8" y="276" on="0"/>
        <pt x="-10" y="520" on="0"/>
        <pt x="18" y="651" on="1"/>
        <pt x="47" y="782" on="0"/>
        <pt x="152" y="1026" on="0"/>
        <pt x="313" y="1214" on="0"/>
        <pt x="526" y="1327" on="0"/>
        <pt x="664" y="1327" on="1"/>
        <pt x="702" y="1327" on="0"/>
        <pt x="780" y="1305" on="0"/>
        <pt x="844" y="1260" on="0"/>
        <pt x="887" y="1194" on="0"/>
        <pt x="891" y="1151" on="1"/>
        <pt x="924" y="1305" on="1"/>
        <pt x="1110" y="1305" on="1"/>
        <pt x="1012" y="842" on="1"/>
        <pt x="825" y="842" on="1"/>
        <pt x="838" y="903" on="0"/>
        <pt x="823" y="1012" on="0"/>
        <pt x="770" y="1094" on="0"/>
        <pt x="682" y="1141" on="0"/>
        <pt x="625" y="1141" on="1"/>
        <pt x="537" y="1141" on="0"/>
        <pt x="406" y="1053" on="0"/>
        <pt x="307" y="913" on="0"/>
        <pt x="244" y="739" on="0"/>
        <pt x="225" y="651" on="1"/>
        <pt x="207" y="563" on="0"/>
        <pt x="197" y="389" on="0"/>
        <pt x="231" y="250" on="0"/>
        <pt x="330" y="164" on="0"/>
        <pt x="418" y="164" on="1"/>
        <pt x="545" y="164" on="0"/>
        <pt x="733" y="326" on="0"/>
        <pt x="799" y="496" on="1"/>
        <pt x="524" y="496" on="1"/>
        <pt x="563" y="682" on="1"/>
        <pt x="1028" y="682" on="1"/>
      </contour>
    </TTGlyph>
    <TTGlyph name="Gamma" xMin="-49" yMin="0" xMax="1110" yMax="1305">
      <contour>
        <pt x="227" y="1305" on="1"/>
        <pt x="1110" y="1305" on="1"/>
        <pt x="1071" y="1118" on="1"/>
        <pt x="395" y="1118" on="1"/>
        <pt x="158" y="0" on="1"/>
        <pt x="-49" y="0" on="1"/>
      </contour>
    </TTGlyph>
    <TTGlyph name="Gbreve" xMin="-10" yMin="-23" xMax="1110" yMax="1657">
      <component glyphName="G" x="0" y="0" flags="0x204"/>
      <component glyphName="breve" x="80" y="371" flags="0x4"/>
    </TTGlyph>
    <TTGlyph name="Gcircumflex" xMin="-10" yMin="-23" xMax="1110" yMax="1770">
      <component glyphName="G" x="0" y="0" flags="0x204"/>
      <component glyphName="circumflex" x="80" y="371" flags="0x4"/>
    </TTGlyph>
    <TTGlyph name="Gcommaaccent" xMin="-10" yMin="-373" xMax="1110" yMax="1327">
      <component glyphName="G" x="0" y="0" flags="0x204"/>
      <component glyphName="commaaccent" x="0" y="0" flags="0x4"/>
    </TTGlyph>
    <TTGlyph name="Gdotaccent" xMin="-10" yMin="-23" xMax="1110" yMax="1676">
      <component glyphName="G" x="0" y="0" flags="0x204"/>
      <component glyphName="dotaccent" x="80" y="371" flags="0x4"/>
    </TTGlyph>
    <TTGlyph name="H" xMin="-49" yMin="0" xMax="1061" yMax="1305">
      <contour>
        <pt x="784" y="0" on="1"/>
        <pt x="578" y="0" on="1"/>
        <pt x="698" y="571" on="1"/>
        <pt x="279" y="571" on="1"/>
        <pt x="158" y="0" on="1"/>
        <pt x="-49" y="0" on="1"/>
        <pt x="227" y="1305" on="1"/>
        <pt x="434" y="1305" on="1"/>
        <pt x="317" y="758" on="1"/>
        <pt x="737" y="758" on="1"/>
        <pt x="854" y="1305" on="1"/>
        <pt x="1061" y="1305" on="1"/>
      </contour>
    </TTGlyph>
    <TTGlyph name="Hbar" xMin="-49" yMin="0" xMax="1208" yMax="1305">
      <contour>
        <pt x="1022" y="1118" on="1"/>
        <pt x="1208" y="1118" on="1"/>
        <pt x="1169" y="944" on="1"/>
        <pt x="983" y="944" on="1"/>
        <pt x="784" y="0" on="1"/>
        <pt x="578" y="0" on="1"/>
        <pt x="698" y="571" on="1"/>
        <pt x="279" y="571" on="1"/>
        <pt x="158" y="0" on="1"/>
        <pt x="-49" y="0" on="1"/>
        <pt x="150" y="944" on="1"/>
        <pt x="-37" y="944" on="1"/>
        <pt x="2" y="1118" on="1"/>
        <pt x="188" y="1118" on="1"/>
        <pt x="227" y="1305" on="1"/>
        <pt x="434" y="1305" on="1"/>
        <pt x="395" y="1118" on="1"/>
        <pt x="815" y="1118" on="1"/>
        <pt x="854" y="1305" on="1"/>
        <pt x="1061" y="1305" on="1"/>
      </contour>
      <contour>
        <pt x="737" y="758" on="1"/>
        <pt x="776" y="944" on="1"/>
        <pt x="356" y="944" on="1"/>
        <pt x="317" y="758" on="1"/>
      </contour>
    </TTGlyph>
    <TTGlyph name="Hcircumflex" xMin="-49" yMin="0" xMax="1061" yMax="1770">
      <component glyphName="H" x="0" y="0" flags="0x204"/>
      <component glyphName="circumflex" x="80" y="371" flags="0x4"/>
    </TTGlyph>
    <TTGlyph name="I" xMin="57" yMin="0" xMax="961" yMax="1305">
      <contour>
        <pt x="684" y="0" on="1"/>
        <pt x="57" y="0" on="1"/>
        <pt x="96" y="186" on="1"/>
        <pt x="303" y="186" on="1"/>
        <pt x="502" y="1118" on="1"/>
        <pt x="295" y="1118" on="1"/>
        <pt x="334" y="1305" on="1"/>
        <pt x="961" y="1305" on="1"/>
        <pt x="922" y="1118" on="1"/>
        <pt x="709" y="1118" on="1"/>
        <pt x="510" y="186" on="1"/>
        <pt x="723" y="186" on="1"/>
      </contour>
    </TTGlyph>
    <TTGlyph name="IJ" xMin="-129" yMin="-395" xMax="1130" yMax="1305">
      <contour>
        <pt x="213" y="-135" on="1"/>
        <pt x="268" y="-209" on="0"/>
        <pt x="381" y="-209" on="1"/>
        <pt x="449" y="-209" on="0"/>
        <pt x="547" y="-154" on="0"/>
        <pt x="614" y="-61" on="0"/>
        <pt x="659" y="59" on="0"/>
        <pt x="672" y="125" on="1"/>
        <pt x="924" y="1305" on="1"/>
        <pt x="1130" y="1305" on="1"/>
        <pt x="879" y="125" on="1"/>
        <pt x="827" y="-123" on="0"/>
        <pt x="557" y="-395" on="0"/>
        <pt x="340" y="-395" on="1"/>
        <pt x="156" y="-395" on="0"/>
        <pt x="55" y="-291" on="1"/>
      </contour>
      <contour>
        <pt x="498" y="0" on="1"/>
        <pt x="-129" y="0" on="1"/>
        <pt x="-90" y="186" on="1"/>
        <pt x="117" y="186" on="1"/>
        <pt x="316" y="1118" on="1"/>
        <pt x="109" y="1118" on="1"/>
        <pt x="148" y="1305" on="1"/>
        <pt x="775" y="1305" on="1"/>
        <pt x="736" y="1118" on="1"/>
        <pt x="523" y="1118" on="1"/>
        <pt x="324" y="186" on="1"/>
        <pt x="537" y="186" on="1"/>
      </contour>
    </TTGlyph>
    <TTGlyph name="Iacute" xMin="57" yMin="0" xMax="961" yMax="1776">
      <component glyphName="I" x="0" y="0" flags="0x204"/>
      <component glyphName="acute" x="80" y="371" flags="0x4"/>
    </TTGlyph>
    <TTGlyph name="Ibreve" xMin="57" yMin="0" xMax="1024" yMax="1657">
      <component glyphName="I" x="0" y="0" flags="0x204"/>
      <component glyphName="breve" x="80" y="371" flags="0x4"/>
    </TTGlyph>
    <TTGlyph name="Icircumflex" xMin="57" yMin="0" xMax="1002" yMax="1770">
      <component glyphName="I" x="0" y="0" flags="0x204"/>
      <component glyphName="circumflex" x="80" y="371" flags="0x4"/>
    </TTGlyph>
    <TTGlyph name="Idieresis" xMin="57" yMin="0" xMax="1036" yMax="1676">
      <component glyphName="I" x="0" y="0" flags="0x204"/>
      <component glyphName="dieresis" x="80" y="371" flags="0x4"/>
    </TTGlyph>
    <TTGlyph name="Idotaccent" xMin="57" yMin="0" xMax="961" yMax="1676">
      <component glyphName="I" x="0" y="0" flags="0x204"/>
      <component glyphName="dotaccent" x="80" y="371" flags="0x4"/>
    </TTGlyph>
    <TTGlyph name="Igrave" xMin="57" yMin="0" xMax="967" yMax="1776">
      <component glyphName="I" x="0" y="0" flags="0x204"/>
      <component glyphName="grave" x="80" y="371" flags="0x4"/>
    </TTGlyph>
    <TTGlyph name="Imacron" xMin="57" yMin="0" xMax="985" yMax="1590">
      <component glyphName="I" x="0" y="0" flags="0x204"/>
      <component glyphName="macron" x="80" y="371" flags="0x4"/>
    </TTGlyph>
    <TTGlyph name="Iogonek" xMin="57" yMin="-379" xMax="961" yMax="1305">
      <contour>
        <pt x="715" y="-379" on="1"/>
        <pt x="580" y="-379" on="0"/>
        <pt x="449" y="-260" on="0"/>
        <pt x="473" y="-141" on="1"/>
        <pt x="481" y="-100" on="0"/>
        <pt x="526" y="-29" on="0"/>
        <pt x="557" y="0" on="1"/>
        <pt x="57" y="0" on="1"/>
        <pt x="96" y="186" on="1"/>
        <pt x="303" y="186" on="1"/>
        <pt x="502" y="1118" on="1"/>
        <pt x="295" y="1118" on="1"/>
        <pt x="334" y="1305" on="1"/>
        <pt x="961" y="1305" on="1"/>
        <pt x="922" y="1118" on="1"/>
        <pt x="709" y="1118" on="1"/>
        <pt x="510" y="186" on="1"/>
        <pt x="723" y="186" on="1"/>
        <pt x="684" y="0" on="1"/>
        <pt x="635" y="-43" on="0"/>
        <pt x="623" y="-104" on="1"/>
        <pt x="608" y="-168" on="0"/>
        <pt x="682" y="-231" on="0"/>
        <pt x="745" y="-231" on="1"/>
      </contour>
    </TTGlyph>
    <TTGlyph name="Iota" xMin="57" yMin="0" xMax="961" yMax="1305">
      <contour>
        <pt x="684" y="0" on="1"/>
        <pt x="57" y="0" on="1"/>
        <pt x="96" y="186" on="1"/>
        <pt x="303" y="186" on="1"/>
        <pt x="502" y="1118" on="1"/>
        <pt x="295" y="1118" on="1"/>
        <pt x="334" y="1305" on="1"/>
        <pt x="961" y="1305" on="1"/>
        <pt x="922" y="1118" on="1"/>
        <pt x="709" y="1118" on="1"/>
        <pt x="510" y="186" on="1"/>
        <pt x="723" y="186" on="1"/>
      </contour>
    </TTGlyph>
    <TTGlyph name="Iotadieresis" xMin="57" yMin="0" xMax="1036" yMax="1676">
      <component glyphName="Iota" x="0" y="0" flags="0x204"/>
      <component glyphName="dieresis" x="80" y="371" flags="0x4"/>
    </TTGlyph>
    <TTGlyph name="Iotatonos" xMin="139" yMin="0" xMax="1059" yMax="1675">
      <contour>
        <pt x="782" y="0" on="1"/>
        <pt x="156" y="0" on="1"/>
        <pt x="195" y="186" on="1"/>
        <pt x="401" y="186" on="1"/>
        <pt x="600" y="1118" on="1"/>
        <pt x="475" y="1118" on="1"/>
        <pt x="514" y="1305" on="1"/>
        <pt x="1059" y="1305" on="1"/>
        <pt x="1020" y="1118" on="1"/>
        <pt x="807" y="1118" on="1"/>
        <pt x="608" y="186" on="1"/>
        <pt x="821" y="186" on="1"/>
      </contour>
      <contour>
        <pt x="501" y="1675" on="1"/>
        <pt x="301" y="1118" on="1"/>
        <pt x="139" y="1118" on="1"/>
        <pt x="256" y="1675" on="1"/>
      </contour>
    </TTGlyph>
    <TTGlyph name="Itilde" xMin="57" yMin="0" xMax="1120" yMax="1686">
      <component glyphName="I" x="0" y="0" flags="0x204"/>
      <component glyphName="tilde" x="80" y="371" flags="0x4"/>
    </TTGlyph>
    <TTGlyph name="J" xMin="-29" yMin="-23" xMax="1061" yMax="1305">
      <contour>
        <pt x="889" y="498" on="1"/>
        <pt x="836" y="250" on="0"/>
        <pt x="567" y="-23" on="0"/>
        <pt x="350" y="-23" on="1"/>
        <pt x="176" y="-23" on="0"/>
        <pt x="-20" y="160" on="0"/>
        <pt x="-29" y="342" on="1"/>
        <pt x="172" y="412" on="1"/>
        <pt x="176" y="295" on="0"/>
        <pt x="281" y="164" on="0"/>
        <pt x="391" y="164" on="1"/>
        <pt x="459" y="164" on="0"/>
        <pt x="555" y="219" on="0"/>
        <pt x="625" y="311" on="0"/>
        <pt x="668" y="432" on="0"/>
        <pt x="682" y="498" on="1"/>
        <pt x="854" y="1305" on="1"/>
        <pt x="1061" y="1305" on="1"/>
      </contour>
    </TTGlyph>
    <TTGlyph name="Jcircumflex" xMin="-29" yMin="-23" xMax="1061" yMax="1770">
      <component glyphName="J" x="0" y="0" flags="0x204"/>
      <component glyphName="circumflex" x="80" y="371" flags="0x4"/>
    </TTGlyph>
    <TTGlyph name="K" xMin="-49" yMin="0" xMax="1106" yMax="1305">
      <contour>
        <pt x="827" y="0" on="1"/>
        <pt x="586" y="0" on="1"/>
        <pt x="373" y="608" on="1"/>
        <pt x="264" y="506" on="1"/>
        <pt x="158" y="0" on="1"/>
        <pt x="-49" y="0" on="1"/>
        <pt x="227" y="1305" on="1"/>
        <pt x="434" y="1305" on="1"/>
        <pt x="326" y="793" on="1"/>
        <pt x="840" y="1305" on="1"/>
        <pt x="1106" y="1305" on="1"/>
        <pt x="537" y="764" on="1"/>
      </contour>
    </TTGlyph>
    <TTGlyph name="Kappa" xMin="-49" yMin="0" xMax="1106" yMax="1305">
      <contour>
        <pt x="827" y="0" on="1"/>
        <pt x="586" y="0" on="1"/>
        <pt x="373" y="608" on="1"/>
        <pt x="264" y="506" on="1"/>
        <pt x="158" y="0" on="1"/>
        <pt x="-49" y="0" on="1"/>
        <pt x="227" y="1305" on="1"/>
        <pt x="434" y="1305" on="1"/>
        <pt x="326" y="793" on="1"/>
        <pt x="840" y="1305" on="1"/>
        <pt x="1106" y="1305" on="1"/>
        <pt x="537" y="764" on="1"/>
      </contour>
    </TTGlyph>
    <TTGlyph name="Kcommaaccent" xMin="-49" yMin="-373" xMax="1106" yMax="1305">
      <component glyphName="K" x="0" y="0" flags="0x204"/>
      <component glyphName="commaaccent" x="0" y="0" flags="0x4"/>
    </TTGlyph>
    <TTGlyph name="L" xMin="-49" yMin="0" xMax="823" yMax="1305">
      <contour>
        <pt x="784" y="0" on="1"/>
        <pt x="-49" y="0" on="1"/>
        <pt x="227" y="1305" on="1"/>
        <pt x="434" y="1305" on="1"/>
        <pt x="197" y="186" on="1"/>
        <pt x="823" y="186" on="1"/>
      </contour>
    </TTGlyph>
    <TTGlyph name="Lacute" xMin="-49" yMin="0" xMax="952" yMax="1776">
      <component glyphName="L" x="0" y="0" flags="0x204"/>
      <component glyphName="acute" x="80" y="371" flags="0x4"/>
    </TTGlyph>
    <TTGlyph name="Lambda" xMin="-158" yMin="0" xMax="893" yMax="1305">
      <contour>
        <pt x="676" y="0" on="1"/>
        <pt x="588" y="1032" on="1"/>
        <pt x="59" y="0" on="1"/>
        <pt x="-158" y="0" on="1"/>
        <pt x="526" y="1305" on="1"/>
        <pt x="762" y="1305" on="1"/>
        <pt x="893" y="0" on="1"/>
      </contour>
    </TTGlyph>
    <TTGlyph name="Lcaron" xMin="-49" yMin="0" xMax="980" yMax="1305">
      <component glyphName="L" x="0" y="0" flags="0x204"/>
      <component glyphName="tonos" x="106" y="-370" flags="0x4"/>
    </TTGlyph>
    <TTGlyph name="Lcommaaccent" xMin="-49" yMin="-373" xMax="823" yMax="1305">
      <component glyphName="L" x="0" y="0" flags="0x204"/>
      <component glyphName="commaaccent" x="0" y="0" flags="0x4"/>
    </TTGlyph>
    <TTGlyph name="Ldot" xMin="-49" yMin="0" xMax="871" yMax="1305">
      <component glyphName="L" x="0" y="0" flags="0x204"/>
      <component glyphName="periodcentered" x="250" y="141" flags="0x4"/>
    </TTGlyph>
    <TTGlyph name="Lslash" xMin="-123" yMin="0" xMax="823" yMax="1305">
      <contour>
        <pt x="784" y="0" on="1"/>
        <pt x="-49" y="0" on="1"/>
        <pt x="59" y="520" on="1"/>
        <pt x="-123" y="463" on="1"/>
        <pt x="-86" y="651" on="1"/>
        <pt x="100" y="709" on="1"/>
        <pt x="227" y="1305" on="1"/>
        <pt x="434" y="1305" on="1"/>
        <pt x="322" y="776" on="1"/>
        <pt x="512" y="838" on="1"/>
        <pt x="473" y="649" on="1"/>
        <pt x="283" y="588" on="1"/>
        <pt x="197" y="186" on="1"/>
        <pt x="823" y="186" on="1"/>
      </contour>
    </TTGlyph>
    <TTGlyph name="M" xMin="-49" yMin="0" xMax="1061" yMax="1305">
      <contour>
        <pt x="784" y="0" on="1"/>
        <pt x="578" y="0" on="1"/>
        <pt x="764" y="883" on="1"/>
        <pt x="532" y="414" on="1"/>
        <pt x="373" y="414" on="1"/>
        <pt x="344" y="883" on="1"/>
        <pt x="158" y="0" on="1"/>
        <pt x="-49" y="0" on="1"/>
        <pt x="227" y="1305" on="1"/>
        <pt x="473" y="1305" on="1"/>
        <pt x="518" y="715" on="1"/>
        <pt x="813" y="1305" on="1"/>
        <pt x="1061" y="1305" on="1"/>
      </contour>
    </TTGlyph>
    <TTGlyph name="Mu" xMin="-49" yMin="0" xMax="1061" yMax="1305">
      <contour>
        <pt x="784" y="0" on="1"/>
        <pt x="578" y="0" on="1"/>
        <pt x="764" y="883" on="1"/>
        <pt x="532" y="414" on="1"/>
        <pt x="373" y="414" on="1"/>
        <pt x="344" y="883" on="1"/>
        <pt x="158" y="0" on="1"/>
        <pt x="-49" y="0" on="1"/>
        <pt x="227" y="1305" on="1"/>
        <pt x="473" y="1305" on="1"/>
        <pt x="518" y="715" on="1"/>
        <pt x="813" y="1305" on="1"/>
        <pt x="1061" y="1305" on="1"/>
      </contour>
    </TTGlyph>
    <TTGlyph name="N" xMin="-49" yMin="0" xMax="1061" yMax="1305">
      <contour>
        <pt x="784" y="0" on="1"/>
        <pt x="545" y="0" on="1"/>
        <pt x="358" y="946" on="1"/>
        <pt x="158" y="0" on="1"/>
        <pt x="-49" y="0" on="1"/>
        <pt x="227" y="1305" on="1"/>
        <pt x="487" y="1305" on="1"/>
        <pt x="664" y="406" on="1"/>
        <pt x="854" y="1305" on="1"/>
        <pt x="1061" y="1305" on="1"/>
      </contour>
    </TTGlyph>
    <TTGlyph name="Nacute" xMin="-49" yMin="0" xMax="1061" yMax="1776">
      <component glyphName="N" x="0" y="0" flags="0x204"/>
      <component glyphName="acute" x="80" y="371" flags="0x4"/>
    </TTGlyph>
    <TTGlyph name="Ncaron" xMin="-49" yMin="0" xMax="1061" yMax="1770">
      <component glyphName="N" x="0" y="0" flags="0x204"/>
      <component glyphName="caron" x="80" y="371" flags="0x4"/>
    </TTGlyph>
    <TTGlyph name="Ncommaaccent" xMin="-49" yMin="-373" xMax="1061" yMax="1305">
      <component glyphName="N" x="0" y="0" flags="0x204"/>
      <component glyphName="commaaccent" x="0" y="0" flags="0x4"/>
    </TTGlyph>
    <TTGlyph name="Ntilde" xMin="-49" yMin="0" xMax="1120" yMax="1686">
      <component glyphName="N" x="0" y="0" flags="0x204"/>
      <component glyphName="tilde" x="80" y="371" flags="0x4"/>
    </TTGlyph>
    <TTGlyph name="Nu" xMin="-49" yMin="0" xMax="1061" yMax="1305">
      <contour>
        <pt x="784" y="0" on="1"/>
        <pt x="545" y="0" on="1"/>
        <pt x="358" y="946" on="1"/>
        <pt x="158" y="0" on="1"/>
        <pt x="-49" y="0" on="1"/>
        <pt x="227" y="1305" on="1"/>
        <pt x="487" y="1305" on="1"/>
        <pt x="664" y="406" on="1"/>
        <pt x="854" y="1305" on="1"/>
        <pt x="1061" y="1305" on="1"/>
      </contour>
    </TTGlyph>
    <TTGlyph name="O" xMin="-20" yMin="-23" xMax="1034" yMax="1327">
      <contour>
        <pt x="6" y="653" on="1"/>
        <pt x="35" y="784" on="0"/>
        <pt x="141" y="1028" on="0"/>
        <pt x="301" y="1214" on="0"/>
        <pt x="514" y="1327" on="0"/>
        <pt x="649" y="1327" on="1"/>
        <pt x="784" y="1327" on="0"/>
        <pt x="952" y="1214" on="0"/>
        <pt x="1032" y="1028" on="0"/>
        <pt x="1034" y="784" on="0"/>
        <pt x="1006" y="653" on="1"/>
        <pt x="979" y="522" on="0"/>
        <pt x="872" y="279" on="0"/>
        <pt x="715" y="90" on="0"/>
        <pt x="500" y="-23" on="0"/>
        <pt x="362" y="-23" on="1"/>
        <pt x="225" y="-23" on="0"/>
        <pt x="59" y="90" on="0"/>
        <pt x="-20" y="279" on="0"/>
        <pt x="-20" y="522" on="0"/>
      </contour>
      <contour>
        <pt x="213" y="653" on="1"/>
        <pt x="195" y="565" on="0"/>
        <pt x="184" y="389" on="0"/>
        <pt x="219" y="250" on="0"/>
        <pt x="315" y="164" on="0"/>
        <pt x="403" y="164" on="1"/>
        <pt x="492" y="164" on="0"/>
        <pt x="621" y="250" on="0"/>
        <pt x="717" y="389" on="0"/>
        <pt x="780" y="565" on="0"/>
        <pt x="799" y="653" on="1"/>
        <pt x="817" y="741" on="0"/>
        <pt x="829" y="915" on="0"/>
        <pt x="793" y="1055" on="0"/>
        <pt x="696" y="1141" on="0"/>
        <pt x="610" y="1141" on="1"/>
        <pt x="467" y="1141" on="0"/>
        <pt x="262" y="883" on="0"/>
      </contour>
    </TTGlyph>
    <TTGlyph name="OE" xMin="-119" yMin="-23" xMax="1110" yMax="1327">
      <contour>
        <pt x="834" y="0" on="1"/>
        <pt x="360" y="0" on="1"/>
        <pt x="385" y="123" on="1"/>
        <pt x="301" y="-23" on="0"/>
        <pt x="172" y="-23" on="1"/>
        <pt x="-119" y="-23" on="0"/>
        <pt x="23" y="651" on="1"/>
        <pt x="166" y="1327" on="0"/>
        <pt x="459" y="1327" on="1"/>
        <pt x="522" y="1327" on="0"/>
        <pt x="598" y="1249" on="0"/>
        <pt x="610" y="1178" on="1"/>
        <pt x="637" y="1305" on="1"/>
        <pt x="1110" y="1305" on="1"/>
        <pt x="1071" y="1118" on="1"/>
        <pt x="735" y="1118" on="1"/>
        <pt x="657" y="758" on="1"/>
        <pt x="903" y="758" on="1"/>
        <pt x="864" y="571" on="1"/>
        <pt x="618" y="571" on="1"/>
        <pt x="537" y="186" on="1"/>
        <pt x="872" y="186" on="1"/>
      </contour>
      <contour>
        <pt x="434" y="651" on="1"/>
        <pt x="457" y="760" on="0"/>
        <pt x="487" y="940" on="0"/>
        <pt x="494" y="1069" on="0"/>
        <pt x="469" y="1141" on="0"/>
        <pt x="438" y="1141" on="1"/>
        <pt x="408" y="1141" on="0"/>
        <pt x="350" y="1069" on="0"/>
        <pt x="299" y="940" on="0"/>
        <pt x="252" y="760" on="0"/>
        <pt x="229" y="651" on="1"/>
        <pt x="207" y="543" on="0"/>
        <pt x="176" y="362" on="0"/>
        <pt x="174" y="233" on="0"/>
        <pt x="201" y="164" on="0"/>
        <pt x="231" y="164" on="1"/>
        <pt x="262" y="164" on="0"/>
        <pt x="317" y="233" on="0"/>
        <pt x="365" y="362" on="0"/>
        <pt x="412" y="543" on="0"/>
      </contour>
    </TTGlyph>
    <TTGlyph name="Oacute" xMin="-20" yMin="-23" xMax="1034" yMax="1776">
      <component glyphName="O" x="0" y="0" flags="0x204"/>
      <component glyphName="acute" x="80" y="371" flags="0x4"/>
    </TTGlyph>
    <TTGlyph name="Obreve" xMin="-20" yMin="-23" xMax="1034" yMax="1657">
      <component glyphName="O" x="0" y="0" flags="0x204"/>
      <component glyphName="breve" x="80" y="371" flags="0x4"/>
    </TTGlyph>
    <TTGlyph name="Ocircumflex" xMin="-20" yMin="-23" xMax="1034" yMax="1770">
      <component glyphName="O" x="0" y="0" flags="0x204"/>
      <component glyphName="circumflex" x="80" y="371" flags="0x4"/>
    </TTGlyph>
    <TTGlyph name="Odieresis" xMin="-20" yMin="-23" xMax="1036" yMax="1676">
      <component glyphName="O" x="0" y="0" flags="0x204"/>
      <component glyphName="dieresis" x="80" y="371" flags="0x4"/>
    </TTGlyph>
    <TTGlyph name="Ograve" xMin="-20" yMin="-23" xMax="1034" yMax="1776">
      <component glyphName="O" x="0" y="0" flags="0x204"/>
      <component glyphName="grave" x="80" y="371" flags="0x4"/>
    </TTGlyph>
    <TTGlyph name="Ohungarumlaut" xMin="-20" yMin="-23" xMax="1163" yMax="1770">
      <component glyphName="O" x="0" y="0" flags="0x204"/>
      <component glyphName="hungarumlaut" x="80" y="371" flags="0x4"/>
    </TTGlyph>
    <TTGlyph name="Omacron" xMin="-20" yMin="-23" xMax="1034" yMax="1590">
      <component glyphName="O" x="0" y="0" flags="0x204"/>
      <component glyphName="macron" x="80" y="371" flags="0x4"/>
    </TTGlyph>
    <TTGlyph name="Omega" xMin="-98" yMin="0" xMax="1034" yMax="1327">
      <contour>
        <pt x="1010" y="741" on="1"/>
        <pt x="979" y="596" on="0"/>
        <pt x="817" y="324" on="0"/>
        <pt x="674" y="231" on="1"/>
        <pt x="664" y="186" on="1"/>
        <pt x="872" y="186" on="1"/>
        <pt x="834" y="0" on="1"/>
        <pt x="461" y="0" on="1"/>
        <pt x="537" y="358" on="1"/>
        <pt x="596" y="383" on="0"/>
        <pt x="686" y="467" on="0"/>
        <pt x="752" y="571" on="0"/>
        <pt x="793" y="688" on="0"/>
        <pt x="803" y="741" on="1"/>
        <pt x="819" y="811" on="0"/>
        <pt x="819" y="954" on="0"/>
        <pt x="776" y="1069" on="0"/>
        <pt x="686" y="1141" on="0"/>
        <pt x="610" y="1141" on="1"/>
        <pt x="537" y="1141" on="0"/>
        <pt x="416" y="1069" on="0"/>
        <pt x="324" y="954" on="0"/>
        <pt x="260" y="811" on="0"/>
        <pt x="244" y="741" on="1"/>
        <pt x="233" y="688" on="0"/>
        <pt x="225" y="571" on="0"/>
        <pt x="246" y="467" on="0"/>
        <pt x="299" y="383" on="0"/>
        <pt x="350" y="358" on="1"/>
        <pt x="274" y="0" on="1"/>
        <pt x="-98" y="0" on="1"/>
        <pt x="-59" y="186" on="1"/>
        <pt x="154" y="186" on="1"/>
        <pt x="164" y="231" on="1"/>
        <pt x="59" y="317" on="0"/>
        <pt x="6" y="592" on="0"/>
        <pt x="37" y="741" on="1"/>
        <pt x="61" y="854" on="0"/>
        <pt x="170" y="1067" on="0"/>
        <pt x="328" y="1229" on="0"/>
        <pt x="530" y="1327" on="0"/>
        <pt x="649" y="1327" on="1"/>
        <pt x="768" y="1327" on="0"/>
        <pt x="928" y="1229" on="0"/>
        <pt x="1016" y="1067" on="0"/>
        <pt x="1034" y="854" on="0"/>
      </contour>
    </TTGlyph>
    <TTGlyph name="Omegatonos" xMin="-98" yMin="0" xMax="1034" yMax="1675">
      <component glyphName="tonos" x="-558" y="0" flags="0x200"/>
      <component glyphName="Omega" x="0" y="0" flags="0x0"/>
    </TTGlyph>
    <TTGlyph name="Omicron" xMin="-20" yMin="-23" xMax="1034" yMax="1327">
      <contour>
        <pt x="6" y="653" on="1"/>
        <pt x="35" y="784" on="0"/>
        <pt x="141" y="1028" on="0"/>
        <pt x="301" y="1214" on="0"/>
        <pt x="514" y="1327" on="0"/>
        <pt x="649" y="1327" on="1"/>
        <pt x="784" y="1327" on="0"/>
        <pt x="952" y="1214" on="0"/>
        <pt x="1032" y="1028" on="0"/>
        <pt x="1034" y="784" on="0"/>
        <pt x="1006" y="653" on="1"/>
        <pt x="979" y="522" on="0"/>
        <pt x="872" y="279" on="0"/>
        <pt x="715" y="90" on="0"/>
        <pt x="500" y="-23" on="0"/>
        <pt x="362" y="-23" on="1"/>
        <pt x="225" y="-23" on="0"/>
        <pt x="59" y="90" on="0"/>
        <pt x="-20" y="279" on="0"/>
        <pt x="-20" y="522" on="0"/>
      </contour>
      <contour>
        <pt x="213" y="653" on="1"/>
        <pt x="195" y="565" on="0"/>
        <pt x="184" y="389" on="0"/>
        <pt x="219" y="250" on="0"/>
        <pt x="315" y="164" on="0"/>
        <pt x="403" y="164" on="1"/>
        <pt x="492" y="164" on="0"/>
        <pt x="621" y="250" on="0"/>
        <pt x="717" y="389" on="0"/>
        <pt x="780" y="565" on="0"/>
        <pt x="799" y="653" on="1"/>
        <pt x="817" y="741" on="0"/>
        <pt x="829" y="915" on="0"/>
        <pt x="793" y="1055" on="0"/>
        <pt x="696" y="1141" on="0"/>
        <pt x="610" y="1141" on="1"/>
        <pt x="467" y="1141" on="0"/>
        <pt x="262" y="883" on="0"/>
      </contour>
    </TTGlyph>
    <TTGlyph name="Omicrontonos" xMin="-46" yMin="-23" xMax="1034" yMax="1675">
      <component glyphName="tonos" x="-558" y="0" flags="0x200"/>
      <component glyphName="Omicron" x="0" y="0" flags="0x0"/>
    </TTGlyph>
    <TTGlyph name="Oslash" xMin="-133" yMin="-23" xMax="1149" yMax="1327">
      <contour>
        <pt x="6" y="653" on="1"/>
        <pt x="35" y="784" on="0"/>
        <pt x="141" y="1028" on="0"/>
        <pt x="301" y="1214" on="0"/>
        <pt x="514" y="1327" on="0"/>
        <pt x="649" y="1327" on="1"/>
        <pt x="782" y="1327" on="0"/>
        <pt x="946" y="1223" on="0"/>
        <pt x="987" y="1133" on="1"/>
        <pt x="1149" y="1266" on="1"/>
        <pt x="1102" y="1044" on="1"/>
        <pt x="1028" y="983" on="1"/>
        <pt x="1044" y="831" on="0"/>
        <pt x="1006" y="653" on="1"/>
        <pt x="979" y="522" on="0"/>
        <pt x="872" y="279" on="0"/>
        <pt x="715" y="90" on="0"/>
        <pt x="500" y="-23" on="0"/>
        <pt x="362" y="-23" on="1"/>
        <pt x="233" y="-23" on="0"/>
        <pt x="72" y="74" on="0"/>
        <pt x="31" y="158" on="1"/>
        <pt x="-133" y="20" on="1"/>
        <pt x="-88" y="242" on="1"/>
        <pt x="-14" y="303" on="1"/>
        <pt x="-27" y="381" on="0"/>
        <pt x="-12" y="559" on="0"/>
      </contour>
      <contour>
        <pt x="213" y="653" on="1"/>
        <pt x="203" y="606" on="0"/>
        <pt x="188" y="516" on="0"/>
        <pt x="186" y="471" on="1"/>
        <pt x="811" y="985" on="1"/>
        <pt x="791" y="1055" on="0"/>
        <pt x="696" y="1141" on="0"/>
        <pt x="610" y="1141" on="1"/>
        <pt x="467" y="1141" on="0"/>
        <pt x="262" y="883" on="0"/>
      </contour>
      <contour>
        <pt x="403" y="164" on="1"/>
        <pt x="492" y="164" on="0"/>
        <pt x="621" y="250" on="0"/>
        <pt x="717" y="389" on="0"/>
        <pt x="780" y="565" on="0"/>
        <pt x="799" y="653" on="1"/>
        <pt x="809" y="694" on="0"/>
        <pt x="819" y="772" on="0"/>
        <pt x="823" y="813" on="1"/>
        <pt x="207" y="303" on="1"/>
        <pt x="227" y="240" on="0"/>
        <pt x="319" y="164" on="0"/>
      </contour>
    </TTGlyph>
    <TTGlyph name="Oslashacute" xMin="-133" yMin="-23" xMax="1149" yMax="1780">
      <component glyphName="Oslash" x="0" y="0" flags="0x204"/>
      <component glyphName="acute" x="80" y="375" flags="0x4"/>
    </TTGlyph>
    <TTGlyph name="Otilde" xMin="-20" yMin="-23" xMax="1120" yMax="1686">
      <component glyphName="O" x="0" y="0" flags="0x204"/>
      <component glyphName="tilde" x="80" y="371" flags="0x4"/>
    </TTGlyph>
    <TTGlyph name="P" xMin="-49" yMin="0" xMax="1067" yMax="1305">
      <contour>
        <pt x="1028" y="915" on="1"/>
        <pt x="985" y="719" on="0"/>
        <pt x="707" y="528" on="0"/>
        <pt x="494" y="528" on="1"/>
        <pt x="268" y="528" on="1"/>
        <pt x="158" y="0" on="1"/>
        <pt x="-49" y="0" on="1"/>
        <pt x="227" y="1305" on="1"/>
        <pt x="657" y="1305" on="1"/>
        <pt x="872" y="1305" on="0"/>
        <pt x="1067" y="1108" on="0"/>
      </contour>
      <contour>
        <pt x="821" y="918" on="1"/>
        <pt x="842" y="1018" on="0"/>
        <pt x="733" y="1118" on="0"/>
        <pt x="621" y="1118" on="1"/>
        <pt x="395" y="1118" on="1"/>
        <pt x="309" y="715" on="1"/>
        <pt x="535" y="715" on="1"/>
        <pt x="647" y="715" on="0"/>
        <pt x="799" y="815" on="0"/>
      </contour>
    </TTGlyph>
    <TTGlyph name="Phi" xMin="-18" yMin="0" xMax="1018" yMax="1305">
      <contour>
        <pt x="999" y="666" on="1"/>
        <pt x="979" y="569" on="0"/>
        <pt x="889" y="408" on="0"/>
        <pt x="760" y="285" on="0"/>
        <pt x="598" y="201" on="0"/>
        <pt x="508" y="186" on="1"/>
        <pt x="469" y="0" on="1"/>
        <pt x="264" y="0" on="1"/>
        <pt x="303" y="186" on="1"/>
        <pt x="133" y="219" on="0"/>
        <pt x="-18" y="475" on="0"/>
        <pt x="23" y="666" on="1"/>
        <pt x="41" y="760" on="0"/>
        <pt x="129" y="920" on="0"/>
        <pt x="256" y="1044" on="0"/>
        <pt x="416" y="1128" on="0"/>
        <pt x="506" y="1145" on="1"/>
        <pt x="541" y="1305" on="1"/>
        <pt x="745" y="1305" on="1"/>
        <pt x="713" y="1147" on="1"/>
        <pt x="797" y="1130" on="0"/>
        <pt x="922" y="1049" on="0"/>
        <pt x="997" y="922" on="0"/>
        <pt x="1018" y="760" on="0"/>
      </contour>
      <contour>
        <pt x="793" y="666" on="1"/>
        <pt x="813" y="768" on="0"/>
        <pt x="750" y="922" on="0"/>
        <pt x="670" y="952" on="1"/>
        <pt x="549" y="379" on="1"/>
        <pt x="641" y="410" on="0"/>
        <pt x="770" y="561" on="0"/>
      </contour>
      <contour>
        <pt x="229" y="666" on="1"/>
        <pt x="207" y="563" on="0"/>
        <pt x="264" y="412" on="0"/>
        <pt x="344" y="381" on="1"/>
        <pt x="465" y="950" on="1"/>
        <pt x="373" y="920" on="0"/>
        <pt x="250" y="766" on="0"/>
      </contour>
    </TTGlyph>
    <TTGlyph name="Pi" xMin="-49" yMin="0" xMax="1061" yMax="1305">
      <contour>
        <pt x="784" y="0" on="1"/>
        <pt x="578" y="0" on="1"/>
        <pt x="815" y="1118" on="1"/>
        <pt x="395" y="1118" on="1"/>
        <pt x="158" y="0" on="1"/>
        <pt x="-49" y="0" on="1"/>
        <pt x="227" y="1305" on="1"/>
        <pt x="1061" y="1305" on="1"/>
      </contour>
    </TTGlyph>
    <TTGlyph name="Psi" xMin="29" yMin="0" xMax="1110" yMax="1305">
      <contour>
        <pt x="1014" y="856" on="1"/>
        <pt x="987" y="729" on="0"/>
        <pt x="899" y="543" on="0"/>
        <pt x="776" y="414" on="0"/>
        <pt x="627" y="338" on="0"/>
        <pt x="539" y="326" on="1"/>
        <pt x="471" y="0" on="1"/>
        <pt x="264" y="0" on="1"/>
        <pt x="332" y="326" on="1"/>
        <pt x="168" y="352" on="0"/>
        <pt x="29" y="606" on="0"/>
        <pt x="82" y="856" on="1"/>
        <pt x="178" y="1305" on="1"/>
        <pt x="385" y="1305" on="1"/>
        <pt x="289" y="856" on="1"/>
        <pt x="262" y="731" on="0"/>
        <pt x="297" y="553" on="0"/>
        <pt x="373" y="518" on="1"/>
        <pt x="541" y="1305" on="1"/>
        <pt x="748" y="1305" on="1"/>
        <pt x="580" y="518" on="1"/>
        <pt x="672" y="553" on="0"/>
        <pt x="782" y="729" on="0"/>
        <pt x="809" y="856" on="1"/>
        <pt x="905" y="1305" on="1"/>
        <pt x="1110" y="1305" on="1"/>
      </contour>
    </TTGlyph>
    <TTGlyph name="Q" xMin="-23" yMin="-373" xMax="1034" yMax="1327">
      <contour>
        <pt x="6" y="653" on="1"/>
        <pt x="35" y="784" on="0"/>
        <pt x="141" y="1028" on="0"/>
        <pt x="301" y="1214" on="0"/>
        <pt x="514" y="1327" on="0"/>
        <pt x="649" y="1327" on="1"/>
        <pt x="784" y="1327" on="0"/>
        <pt x="952" y="1214" on="0"/>
        <pt x="1032" y="1028" on="0"/>
        <pt x="1034" y="784" on="0"/>
        <pt x="1006" y="653" on="1"/>
        <pt x="981" y="532" on="0"/>
        <pt x="891" y="309" on="0"/>
        <pt x="754" y="129" on="0"/>
        <pt x="573" y="4" on="0"/>
        <pt x="459" y="-14" on="1"/>
        <pt x="449" y="-113" on="0"/>
        <pt x="575" y="-186" on="0"/>
        <pt x="709" y="-186" on="1"/>
        <pt x="727" y="-186" on="0"/>
        <pt x="770" y="-184" on="0"/>
        <pt x="793" y="-184" on="1"/>
        <pt x="754" y="-369" on="1"/>
        <pt x="725" y="-371" on="0"/>
        <pt x="672" y="-373" on="0"/>
        <pt x="647" y="-373" on="1"/>
        <pt x="444" y="-373" on="0"/>
        <pt x="231" y="-188" on="0"/>
        <pt x="246" y="-8" on="1"/>
        <pt x="147" y="16" on="0"/>
        <pt x="29" y="141" on="0"/>
        <pt x="-23" y="319" on="0"/>
        <pt x="-18" y="537" on="0"/>
      </contour>
      <contour>
        <pt x="213" y="653" on="1"/>
        <pt x="195" y="565" on="0"/>
        <pt x="184" y="389" on="0"/>
        <pt x="219" y="250" on="0"/>
        <pt x="315" y="164" on="0"/>
        <pt x="403" y="164" on="1"/>
        <pt x="492" y="164" on="0"/>
        <pt x="621" y="250" on="0"/>
        <pt x="717" y="389" on="0"/>
        <pt x="780" y="565" on="0"/>
        <pt x="799" y="653" on="1"/>
        <pt x="817" y="741" on="0"/>
        <pt x="829" y="915" on="0"/>
        <pt x="793" y="1055" on="0"/>
        <pt x="696" y="1141" on="0"/>
        <pt x="610" y="1141" on="1"/>
        <pt x="467" y="1141" on="0"/>
        <pt x="262" y="883" on="0"/>
      </contour>
    </TTGlyph>
    <TTGlyph name="R" xMin="-49" yMin="0" xMax="1067" yMax="1305">
      <contour>
        <pt x="852" y="0" on="1"/>
        <pt x="590" y="0" on="1"/>
        <pt x="362" y="528" on="1"/>
        <pt x="268" y="528" on="1"/>
        <pt x="158" y="0" on="1"/>
        <pt x="-49" y="0" on="1"/>
        <pt x="227" y="1305" on="1"/>
        <pt x="657" y="1305" on="1"/>
        <pt x="872" y="1305" on="0"/>
        <pt x="1067" y="1108" on="0"/>
        <pt x="1028" y="915" on="1"/>
        <pt x="1010" y="829" on="0"/>
        <pt x="928" y="698" on="0"/>
        <pt x="811" y="604" on="0"/>
        <pt x="670" y="549" on="0"/>
        <pt x="592" y="539" on="1"/>
      </contour>
      <contour>
        <pt x="821" y="918" on="1"/>
        <pt x="842" y="1018" on="0"/>
        <pt x="733" y="1118" on="0"/>
        <pt x="618" y="1118" on="1"/>
        <pt x="395" y="1118" on="1"/>
        <pt x="309" y="715" on="1"/>
        <pt x="532" y="715" on="1"/>
        <pt x="647" y="715" on="0"/>
        <pt x="799" y="815" on="0"/>
      </contour>
    </TTGlyph>
    <TTGlyph name="Racute" xMin="-49" yMin="0" xMax="1067" yMax="1776">
      <component glyphName="R" x="0" y="0" flags="0x204"/>
      <component glyphName="acute" x="80" y="371" flags="0x4"/>
    </TTGlyph>
    <TTGlyph name="Rcaron" xMin="-49" yMin="0" xMax="1067" yMax="1770">
      <component glyphName="R" x="0" y="0" flags="0x204"/>
      <component glyphName="caron" x="80" y="371" flags="0x4"/>
    </TTGlyph>
    <TTGlyph name="Rcommaaccent" xMin="-49" yMin="-373" xMax="1067" yMax="1305">
      <component glyphName="R" x="0" y="0" flags="0x204"/>
      <component glyphName="commaaccent" x="0" y="0" flags="0x4"/>
    </TTGlyph>
    <TTGlyph name="Rho" xMin="-49" yMin="0" xMax="1067" yMax="1305">
      <contour>
        <pt x="1028" y="915" on="1"/>
        <pt x="985" y="719" on="0"/>
        <pt x="707" y="528" on="0"/>
        <pt x="494" y="528" on="1"/>
        <pt x="268" y="528" on="1"/>
        <pt x="158" y="0" on="1"/>
        <pt x="-49" y="0" on="1"/>
        <pt x="227" y="1305" on="1"/>
        <pt x="657" y="1305" on="1"/>
        <pt x="872" y="1305" on="0"/>
        <pt x="1067" y="1108" on="0"/>
      </contour>
      <contour>
        <pt x="821" y="918" on="1"/>
        <pt x="842" y="1018" on="0"/>
        <pt x="733" y="1118" on="0"/>
        <pt x="621" y="1118" on="1"/>
        <pt x="395" y="1118" on="1"/>
        <pt x="309" y="715" on="1"/>
        <pt x="535" y="715" on="1"/>
        <pt x="647" y="715" on="0"/>
        <pt x="799" y="815" on="0"/>
      </contour>
    </TTGlyph>
    <TTGlyph name="S" xMin="-72" yMin="-23" xMax="1047" yMax="1327">
      <contour>
        <pt x="877" y="358" on="1"/>
        <pt x="856" y="268" on="0"/>
        <pt x="766" y="127" on="0"/>
        <pt x="639" y="29" on="0"/>
        <pt x="483" y="-23" on="0"/>
        <pt x="401" y="-23" on="1"/>
        <pt x="309" y="-23" on="0"/>
        <pt x="176" y="43" on="0"/>
        <pt x="139" y="119" on="1"/>
        <pt x="115" y="0" on="1"/>
        <pt x="-72" y="0" on="1"/>
        <pt x="18" y="426" on="1"/>
        <pt x="205" y="426" on="1"/>
        <pt x="190" y="362" on="0"/>
        <pt x="215" y="264" on="0"/>
        <pt x="274" y="197" on="0"/>
        <pt x="365" y="162" on="0"/>
        <pt x="420" y="162" on="1"/>
        <pt x="512" y="162" on="0"/>
        <pt x="645" y="248" on="0"/>
        <pt x="666" y="342" on="1"/>
        <pt x="676" y="391" on="0"/>
        <pt x="655" y="461" on="0"/>
        <pt x="602" y="516" on="0"/>
        <pt x="516" y="557" on="0"/>
        <pt x="463" y="580" on="1"/>
        <pt x="395" y="604" on="0"/>
        <pt x="266" y="664" on="0"/>
        <pt x="174" y="752" on="0"/>
        <pt x="131" y="881" on="0"/>
        <pt x="152" y="979" on="1"/>
        <pt x="170" y="1065" on="0"/>
        <pt x="260" y="1194" on="0"/>
        <pt x="385" y="1282" on="0"/>
        <pt x="532" y="1327" on="0"/>
        <pt x="610" y="1327" on="1"/>
        <pt x="700" y="1327" on="0"/>
        <pt x="813" y="1251" on="0"/>
        <pt x="836" y="1188" on="1"/>
        <pt x="860" y="1305" on="1"/>
        <pt x="1047" y="1305" on="1"/>
        <pt x="961" y="899" on="1"/>
        <pt x="774" y="899" on="1"/>
        <pt x="799" y="1014" on="0"/>
        <pt x="705" y="1143" on="0"/>
        <pt x="602" y="1143" on="1"/>
        <pt x="512" y="1143" on="0"/>
        <pt x="375" y="1059" on="0"/>
        <pt x="360" y="983" on="1"/>
        <pt x="350" y="944" on="0"/>
        <pt x="371" y="889" on="0"/>
        <pt x="420" y="844" on="0"/>
        <pt x="502" y="805" on="0"/>
        <pt x="557" y="782" on="1"/>
        <pt x="625" y="756" on="0"/>
        <pt x="756" y="690" on="0"/>
        <pt x="852" y="594" on="0"/>
        <pt x="897" y="457" on="0"/>
      </contour>
    </TTGlyph>
    <TTGlyph name="SF010000" xMin="365" yMin="-373" xMax="1118" yMax="754">
      <contour>
        <pt x="365" y="754" on="1"/>
        <pt x="1118" y="754" on="1"/>
        <pt x="1118" y="551" on="1"/>
        <pt x="567" y="551" on="1"/>
        <pt x="567" y="-373" on="1"/>
        <pt x="365" y="-373" on="1"/>
      </contour>
    </TTGlyph>
    <TTGlyph name="SF020000" xMin="365" yMin="551" xMax="1118" yMax="1675">
      <contour>
        <pt x="365" y="1675" on="1"/>
        <pt x="567" y="1675" on="1"/>
        <pt x="567" y="754" on="1"/>
        <pt x="1118" y="754" on="1"/>
        <pt x="1118" y="551" on="1"/>
        <pt x="365" y="551" on="1"/>
      </contour>
    </TTGlyph>
    <TTGlyph name="SF030000" xMin="0" yMin="-373" xMax="567" yMax="754">
      <contour>
        <pt x="0" y="551" on="1"/>
        <pt x="0" y="754" on="1"/>
        <pt x="567" y="754" on="1"/>
        <pt x="567" y="-373" on="1"/>
        <pt x="365" y="-373" on="1"/>
        <pt x="365" y="551" on="1"/>
      </contour>
    </TTGlyph>
    <TTGlyph name="SF040000" xMin="0" yMin="551" xMax="567" yMax="1675">
      <contour>
        <pt x="0" y="551" on="1"/>
        <pt x="0" y="754" on="1"/>
        <pt x="365" y="754" on="1"/>
        <pt x="365" y="1675" on="1"/>
        <pt x="567" y="1675" on="1"/>
        <pt x="567" y="551" on="1"/>
      </contour>
    </TTGlyph>
    <TTGlyph name="SF050000" xMin="0" yMin="-373" xMax="1118" yMax="1675">
      <contour>
        <pt x="0" y="551" on="1"/>
        <pt x="0" y="754" on="1"/>
        <pt x="365" y="754" on="1"/>
        <pt x="365" y="1675" on="1"/>
        <pt x="567" y="1675" on="1"/>
        <pt x="567" y="754" on="1"/>
        <pt x="1118" y="754" on="1"/>
        <pt x="1118" y="551" on="1"/>
        <pt x="567" y="551" on="1"/>
        <pt x="567" y="-373" on="1"/>
        <pt x="365" y="-373" on="1"/>
        <pt x="365" y="551" on="1"/>
      </contour>
    </TTGlyph>
    <TTGlyph name="SF060000" xMin="0" yMin="-373" xMax="1118" yMax="754">
      <contour>
        <pt x="0" y="551" on="1"/>
        <pt x="0" y="754" on="1"/>
        <pt x="1118" y="754" on="1"/>
        <pt x="1118" y="551" on="1"/>
        <pt x="567" y="551" on="1"/>
        <pt x="567" y="-373" on="1"/>
        <pt x="365" y="-373" on="1"/>
        <pt x="365" y="551" on="1"/>
      </contour>
    </TTGlyph>
    <TTGlyph name="SF070000" xMin="0" yMin="551" xMax="1118" yMax="1675">
      <contour>
        <pt x="0" y="551" on="1"/>
        <pt x="0" y="754" on="1"/>
        <pt x="365" y="754" on="1"/>
        <pt x="365" y="1675" on="1"/>
        <pt x="567" y="1675" on="1"/>
        <pt x="567" y="754" on="1"/>
        <pt x="1118" y="754" on="1"/>
        <pt x="1118" y="551" on="1"/>
      </contour>
    </TTGlyph>
    <TTGlyph name="SF080000" xMin="365" yMin="-373" xMax="1118" yMax="1675">
      <contour>
        <pt x="365" y="1675" on="1"/>
        <pt x="567" y="1675" on="1"/>
        <pt x="567" y="754" on="1"/>
        <pt x="1118" y="754" on="1"/>
        <pt x="1118" y="551" on="1"/>
        <pt x="567" y="551" on="1"/>
        <pt x="567" y="-373" on="1"/>
        <pt x="365" y="-373" on="1"/>
      </contour>
    </TTGlyph>
    <TTGlyph name="SF090000" xMin="0" yMin="-373" xMax="567" yMax="1675">
      <contour>
        <pt x="567" y="-373" on="1"/>
        <pt x="365" y="-373" on="1"/>
        <pt x="365" y="551" on="1"/>
        <pt x="0" y="551" on="1"/>
        <pt x="0" y="754" on="1"/>
        <pt x="365" y="754" on="1"/>
        <pt x="365" y="1675" on="1"/>
        <pt x="567" y="1675" on="1"/>
      </contour>
    </TTGlyph>
    <TTGlyph name="SF100000" xMin="0" yMin="551" xMax="1118" yMax="754">
      <contour>
        <pt x="0" y="551" on="1"/>
        <pt x="0" y="754" on="1"/>
        <pt x="1118" y="754" on="1"/>
        <pt x="1118" y="551" on="1"/>
      </contour>
    </TTGlyph>
    <TTGlyph name="SF110000" xMin="365" yMin="-373" xMax="567" yMax="1675">
      <contour>
        <pt x="365" y="1675" on="1"/>
        <pt x="567" y="1675" on="1"/>
        <pt x="567" y="-373" on="1"/>
        <pt x="365" y="-373" on="1"/>
      </contour>
    </TTGlyph>
    <TTGlyph name="SF190000" xMin="0" yMin="-373" xMax="567" yMax="1675">
      <contour>
        <pt x="0" y="737" on="1"/>
        <pt x="0" y="940" on="1"/>
        <pt x="365" y="940" on="1"/>
        <pt x="365" y="1675" on="1"/>
        <pt x="567" y="1675" on="1"/>
        <pt x="567" y="737" on="1"/>
      </contour>
      <contour>
        <pt x="567" y="567" on="1"/>
        <pt x="567" y="-373" on="1"/>
        <pt x="365" y="-373" on="1"/>
        <pt x="365" y="365" on="1"/>
        <pt x="0" y="365" on="1"/>
        <pt x="0" y="567" on="1"/>
      </contour>
    </TTGlyph>
    <TTGlyph name="SF200000" xMin="0" yMin="-373" xMax="754" yMax="1675">
      <contour>
        <pt x="381" y="-373" on="1"/>
        <pt x="178" y="-373" on="1"/>
        <pt x="178" y="551" on="1"/>
        <pt x="0" y="551" on="1"/>
        <pt x="0" y="754" on="1"/>
        <pt x="178" y="754" on="1"/>
        <pt x="178" y="1675" on="1"/>
        <pt x="381" y="1675" on="1"/>
      </contour>
      <contour>
        <pt x="551" y="1675" on="1"/>
        <pt x="754" y="1675" on="1"/>
        <pt x="754" y="-373" on="1"/>
        <pt x="551" y="-373" on="1"/>
      </contour>
    </TTGlyph>
    <TTGlyph name="SF210000" xMin="0" yMin="-373" xMax="754" yMax="754">
      <contour>
        <pt x="381" y="754" on="1"/>
        <pt x="381" y="381" on="1"/>
        <pt x="754" y="381" on="1"/>
        <pt x="754" y="-373" on="1"/>
        <pt x="551" y="-373" on="1"/>
        <pt x="551" y="178" on="1"/>
        <pt x="381" y="178" on="1"/>
        <pt x="381" y="-373" on="1"/>
        <pt x="178" y="-373" on="1"/>
        <pt x="178" y="551" on="1"/>
        <pt x="0" y="551" on="1"/>
        <pt x="0" y="754" on="1"/>
      </contour>
    </TTGlyph>
    <TTGlyph name="SF220000" xMin="0" yMin="-373" xMax="567" yMax="940">
      <contour>
        <pt x="0" y="365" on="1"/>
        <pt x="0" y="567" on="1"/>
        <pt x="178" y="567" on="1"/>
        <pt x="178" y="737" on="1"/>
        <pt x="0" y="737" on="1"/>
        <pt x="0" y="940" on="1"/>
        <pt x="381" y="940" on="1"/>
        <pt x="381" y="567" on="1"/>
        <pt x="567" y="567" on="1"/>
        <pt x="567" y="-373" on="1"/>
        <pt x="365" y="-373" on="1"/>
        <pt x="365" y="365" on="1"/>
      </contour>
    </TTGlyph>
    <TTGlyph name="SF230000" xMin="0" yMin="-373" xMax="754" yMax="1675">
      <contour>
        <pt x="0" y="737" on="1"/>
        <pt x="0" y="938" on="1"/>
        <pt x="178" y="938" on="1"/>
        <pt x="178" y="1675" on="1"/>
        <pt x="381" y="1675" on="1"/>
        <pt x="381" y="737" on="1"/>
      </contour>
      <contour>
        <pt x="381" y="567" on="1"/>
        <pt x="381" y="-373" on="1"/>
        <pt x="178" y="-373" on="1"/>
        <pt x="178" y="365" on="1"/>
        <pt x="0" y="365" on="1"/>
        <pt x="0" y="567" on="1"/>
      </contour>
      <contour>
        <pt x="551" y="1675" on="1"/>
        <pt x="754" y="1675" on="1"/>
        <pt x="754" y="-373" on="1"/>
        <pt x="551" y="-373" on="1"/>
      </contour>
    </TTGlyph>
    <TTGlyph name="SF240000" xMin="178" yMin="-373" xMax="754" yMax="1675">
      <contour>
        <pt x="381" y="-373" on="1"/>
        <pt x="178" y="-373" on="1"/>
        <pt x="178" y="1675" on="1"/>
        <pt x="381" y="1675" on="1"/>
      </contour>
      <contour>
        <pt x="551" y="1675" on="1"/>
        <pt x="754" y="1675" on="1"/>
        <pt x="754" y="-373" on="1"/>
        <pt x="551" y="-373" on="1"/>
      </contour>
    </TTGlyph>
    <TTGlyph name="SF250000" xMin="0" yMin="-373" xMax="754" yMax="940">
      <contour>
        <pt x="551" y="737" on="1"/>
        <pt x="0" y="737" on="1"/>
        <pt x="0" y="940" on="1"/>
        <pt x="754" y="940" on="1"/>
        <pt x="754" y="-373" on="1"/>
        <pt x="551" y="-373" on="1"/>
      </contour>
      <contour>
        <pt x="381" y="567" on="1"/>
        <pt x="381" y="-373" on="1"/>
        <pt x="178" y="-373" on="1"/>
        <pt x="178" y="365" on="1"/>
        <pt x="0" y="365" on="1"/>
        <pt x="0" y="567" on="1"/>
      </contour>
    </TTGlyph>
    <TTGlyph name="SF260000" xMin="0" yMin="365" xMax="754" yMax="1675">
      <contour>
        <pt x="0" y="737" on="1"/>
        <pt x="0" y="940" on="1"/>
        <pt x="178" y="940" on="1"/>
        <pt x="178" y="1675" on="1"/>
        <pt x="381" y="1675" on="1"/>
        <pt x="381" y="737" on="1"/>
      </contour>
      <contour>
        <pt x="551" y="567" on="1"/>
        <pt x="551" y="1675" on="1"/>
        <pt x="754" y="1675" on="1"/>
        <pt x="754" y="365" on="1"/>
        <pt x="0" y="365" on="1"/>
        <pt x="0" y="567" on="1"/>
      </contour>
    </TTGlyph>
    <TTGlyph name="SF270000" xMin="0" yMin="551" xMax="754" yMax="1675">
      <contour>
        <pt x="0" y="551" on="1"/>
        <pt x="0" y="754" on="1"/>
        <pt x="178" y="754" on="1"/>
        <pt x="178" y="1675" on="1"/>
        <pt x="381" y="1675" on="1"/>
        <pt x="381" y="1126" on="1"/>
        <pt x="551" y="1126" on="1"/>
        <pt x="551" y="1675" on="1"/>
        <pt x="754" y="1675" on="1"/>
        <pt x="754" y="924" on="1"/>
        <pt x="381" y="924" on="1"/>
        <pt x="381" y="551" on="1"/>
      </contour>
    </TTGlyph>
    <TTGlyph name="SF280000" xMin="-8" yMin="365" xMax="567" yMax="1675">
      <contour>
        <pt x="-8" y="567" on="1"/>
        <pt x="-8" y="737" on="1"/>
        <pt x="0" y="737" on="1"/>
        <pt x="0" y="940" on="1"/>
        <pt x="365" y="940" on="1"/>
        <pt x="365" y="1675" on="1"/>
        <pt x="567" y="1675" on="1"/>
        <pt x="567" y="737" on="1"/>
        <pt x="195" y="737" on="1"/>
        <pt x="195" y="365" on="1"/>
        <pt x="0" y="365" on="1"/>
        <pt x="0" y="567" on="1"/>
      </contour>
    </TTGlyph>
    <TTGlyph name="SF360000" xMin="365" yMin="-373" xMax="1118" yMax="1675">
      <contour>
        <pt x="365" y="737" on="1"/>
        <pt x="365" y="1675" on="1"/>
        <pt x="567" y="1675" on="1"/>
        <pt x="567" y="940" on="1"/>
        <pt x="1118" y="940" on="1"/>
        <pt x="1118" y="737" on="1"/>
      </contour>
      <contour>
        <pt x="1118" y="567" on="1"/>
        <pt x="1118" y="365" on="1"/>
        <pt x="567" y="365" on="1"/>
        <pt x="567" y="-373" on="1"/>
        <pt x="365" y="-373" on="1"/>
        <pt x="365" y="567" on="1"/>
      </contour>
    </TTGlyph>
    <TTGlyph name="SF370000" xMin="178" yMin="-373" xMax="1118" yMax="1675">
      <contour>
        <pt x="381" y="-373" on="1"/>
        <pt x="178" y="-373" on="1"/>
        <pt x="178" y="1675" on="1"/>
        <pt x="381" y="1675" on="1"/>
      </contour>
      <contour>
        <pt x="551" y="1675" on="1"/>
        <pt x="754" y="1675" on="1"/>
        <pt x="754" y="754" on="1"/>
        <pt x="1118" y="754" on="1"/>
        <pt x="1118" y="551" on="1"/>
        <pt x="754" y="551" on="1"/>
        <pt x="754" y="-373" on="1"/>
        <pt x="551" y="-373" on="1"/>
      </contour>
    </TTGlyph>
    <TTGlyph name="SF380000" xMin="178" yMin="365" xMax="1118" yMax="1675">
      <contour>
        <pt x="178" y="365" on="1"/>
        <pt x="178" y="1675" on="1"/>
        <pt x="381" y="1675" on="1"/>
        <pt x="381" y="567" on="1"/>
        <pt x="1118" y="567" on="1"/>
        <pt x="1118" y="365" on="1"/>
      </contour>
      <contour>
        <pt x="551" y="737" on="1"/>
        <pt x="551" y="1675" on="1"/>
        <pt x="754" y="1675" on="1"/>
        <pt x="754" y="940" on="1"/>
        <pt x="1118" y="940" on="1"/>
        <pt x="1118" y="737" on="1"/>
      </contour>
    </TTGlyph>
    <TTGlyph name="SF390000" xMin="178" yMin="-373" xMax="1118" yMax="940">
      <contour>
        <pt x="381" y="737" on="1"/>
        <pt x="381" y="-373" on="1"/>
        <pt x="178" y="-373" on="1"/>
        <pt x="178" y="940" on="1"/>
        <pt x="1118" y="940" on="1"/>
        <pt x="1118" y="737" on="1"/>
      </contour>
      <contour>
        <pt x="1118" y="567" on="1"/>
        <pt x="1118" y="365" on="1"/>
        <pt x="754" y="365" on="1"/>
        <pt x="754" y="-373" on="1"/>
        <pt x="551" y="-373" on="1"/>
        <pt x="551" y="567" on="1"/>
      </contour>
    </TTGlyph>
    <TTGlyph name="SF400000" xMin="0" yMin="365" xMax="1118" yMax="1675">
      <contour>
        <pt x="0" y="737" on="1"/>
        <pt x="0" y="940" on="1"/>
        <pt x="178" y="940" on="1"/>
        <pt x="178" y="1675" on="1"/>
        <pt x="381" y="1675" on="1"/>
        <pt x="381" y="737" on="1"/>
      </contour>
      <contour>
        <pt x="551" y="737" on="1"/>
        <pt x="551" y="1675" on="1"/>
        <pt x="754" y="1675" on="1"/>
        <pt x="754" y="940" on="1"/>
        <pt x="1118" y="940" on="1"/>
        <pt x="1118" y="737" on="1"/>
      </contour>
      <contour>
        <pt x="1118" y="567" on="1"/>
        <pt x="1118" y="365" on="1"/>
        <pt x="0" y="365" on="1"/>
        <pt x="0" y="567" on="1"/>
      </contour>
    </TTGlyph>
    <TTGlyph name="SF410000" xMin="0" yMin="-373" xMax="1118" yMax="940">
      <contour>
        <pt x="381" y="567" on="1"/>
        <pt x="381" y="-373" on="1"/>
        <pt x="178" y="-373" on="1"/>
        <pt x="178" y="365" on="1"/>
        <pt x="0" y="365" on="1"/>
        <pt x="0" y="567" on="1"/>
      </contour>
      <contour>
        <pt x="1118" y="940" on="1"/>
        <pt x="1118" y="737" on="1"/>
        <pt x="0" y="737" on="1"/>
        <pt x="0" y="940" on="1"/>
      </contour>
      <contour>
        <pt x="1118" y="567" on="1"/>
        <pt x="1118" y="365" on="1"/>
        <pt x="754" y="365" on="1"/>
        <pt x="754" y="-373" on="1"/>
        <pt x="551" y="-373" on="1"/>
        <pt x="551" y="567" on="1"/>
      </contour>
    </TTGlyph>
    <TTGlyph name="SF420000" xMin="178" yMin="-373" xMax="1118" yMax="1675">
      <contour>
        <pt x="381" y="-373" on="1"/>
        <pt x="178" y="-373" on="1"/>
        <pt x="178" y="1675" on="1"/>
        <pt x="381" y="1675" on="1"/>
      </contour>
      <contour>
        <pt x="551" y="737" on="1"/>
        <pt x="551" y="1675" on="1"/>
        <pt x="754" y="1675" on="1"/>
        <pt x="754" y="940" on="1"/>
        <pt x="1118" y="940" on="1"/>
        <pt x="1118" y="737" on="1"/>
      </contour>
      <contour>
        <pt x="1118" y="567" on="1"/>
        <pt x="1118" y="365" on="1"/>
        <pt x="754" y="365" on="1"/>
        <pt x="754" y="-373" on="1"/>
        <pt x="551" y="-373" on="1"/>
        <pt x="551" y="567" on="1"/>
      </contour>
    </TTGlyph>
    <TTGlyph name="SF430000" xMin="0" yMin="365" xMax="1118" yMax="940">
      <contour>
        <pt x="1118" y="940" on="1"/>
        <pt x="1118" y="737" on="1"/>
        <pt x="0" y="737" on="1"/>
        <pt x="0" y="940" on="1"/>
      </contour>
      <contour>
        <pt x="1118" y="567" on="1"/>
        <pt x="1118" y="365" on="1"/>
        <pt x="0" y="365" on="1"/>
        <pt x="0" y="567" on="1"/>
      </contour>
    </TTGlyph>
    <TTGlyph name="SF440000" xMin="0" yMin="-373" xMax="1118" yMax="1675">
      <contour>
        <pt x="0" y="737" on="1"/>
        <pt x="0" y="940" on="1"/>
        <pt x="178" y="940" on="1"/>
        <pt x="178" y="1675" on="1"/>
        <pt x="381" y="1675" on="1"/>
        <pt x="381" y="737" on="1"/>
      </contour>
      <contour>
        <pt x="383" y="567" on="1"/>
        <pt x="383" y="-373" on="1"/>
        <pt x="180" y="-373" on="1"/>
        <pt x="180" y="365" on="1"/>
        <pt x="0" y="365" on="1"/>
        <pt x="0" y="567" on="1"/>
      </contour>
      <contour>
        <pt x="551" y="737" on="1"/>
        <pt x="551" y="1675" on="1"/>
        <pt x="754" y="1675" on="1"/>
        <pt x="754" y="940" on="1"/>
        <pt x="1118" y="940" on="1"/>
        <pt x="1118" y="737" on="1"/>
      </contour>
      <contour>
        <pt x="1118" y="567" on="1"/>
        <pt x="1118" y="365" on="1"/>
        <pt x="748" y="365" on="1"/>
        <pt x="748" y="-373" on="1"/>
        <pt x="547" y="-373" on="1"/>
        <pt x="547" y="567" on="1"/>
      </contour>
    </TTGlyph>
    <TTGlyph name="SF450000" xMin="0" yMin="365" xMax="1118" yMax="1675">
      <contour>
        <pt x="0" y="737" on="1"/>
        <pt x="0" y="940" on="1"/>
        <pt x="365" y="940" on="1"/>
        <pt x="365" y="1675" on="1"/>
        <pt x="567" y="1675" on="1"/>
        <pt x="567" y="940" on="1"/>
        <pt x="1118" y="940" on="1"/>
        <pt x="1118" y="737" on="1"/>
      </contour>
      <contour>
        <pt x="1118" y="567" on="1"/>
        <pt x="1118" y="365" on="1"/>
        <pt x="0" y="365" on="1"/>
        <pt x="0" y="567" on="1"/>
      </contour>
    </TTGlyph>
    <TTGlyph name="SF460000" xMin="0" yMin="551" xMax="1118" yMax="1675">
      <contour>
        <pt x="0" y="551" on="1"/>
        <pt x="0" y="754" on="1"/>
        <pt x="178" y="754" on="1"/>
        <pt x="178" y="1675" on="1"/>
        <pt x="381" y="1675" on="1"/>
        <pt x="381" y="551" on="1"/>
      </contour>
      <contour>
        <pt x="551" y="551" on="1"/>
        <pt x="551" y="1675" on="1"/>
        <pt x="754" y="1675" on="1"/>
        <pt x="754" y="754" on="1"/>
        <pt x="1118" y="754" on="1"/>
        <pt x="1118" y="551" on="1"/>
      </contour>
    </TTGlyph>
    <TTGlyph name="SF470000" xMin="0" yMin="-373" xMax="1118" yMax="940">
      <contour>
        <pt x="0" y="365" on="1"/>
        <pt x="0" y="567" on="1"/>
        <pt x="1118" y="567" on="1"/>
        <pt x="1118" y="365" on="1"/>
        <pt x="567" y="365" on="1"/>
        <pt x="567" y="-373" on="1"/>
        <pt x="365" y="-373" on="1"/>
        <pt x="365" y="365" on="1"/>
      </contour>
      <contour>
        <pt x="1118" y="940" on="1"/>
        <pt x="1118" y="737" on="1"/>
        <pt x="0" y="737" on="1"/>
        <pt x="0" y="940" on="1"/>
      </contour>
    </TTGlyph>
    <TTGlyph name="SF480000" xMin="0" yMin="-373" xMax="1118" yMax="754">
      <contour>
        <pt x="381" y="754" on="1"/>
        <pt x="381" y="-373" on="1"/>
        <pt x="178" y="-373" on="1"/>
        <pt x="178" y="551" on="1"/>
        <pt x="0" y="551" on="1"/>
        <pt x="0" y="754" on="1"/>
      </contour>
      <contour>
        <pt x="1118" y="754" on="1"/>
        <pt x="1118" y="551" on="1"/>
        <pt x="754" y="551" on="1"/>
        <pt x="754" y="-373" on="1"/>
        <pt x="551" y="-373" on="1"/>
        <pt x="551" y="754" on="1"/>
      </contour>
    </TTGlyph>
    <TTGlyph name="SF490000" xMin="178" yMin="551" xMax="1118" yMax="1675">
      <contour>
        <pt x="551" y="551" on="1"/>
        <pt x="551" y="924" on="1"/>
        <pt x="178" y="924" on="1"/>
        <pt x="178" y="1675" on="1"/>
        <pt x="381" y="1675" on="1"/>
        <pt x="381" y="1126" on="1"/>
        <pt x="551" y="1126" on="1"/>
        <pt x="551" y="1675" on="1"/>
        <pt x="754" y="1675" on="1"/>
        <pt x="754" y="754" on="1"/>
        <pt x="1118" y="754" on="1"/>
        <pt x="1118" y="551" on="1"/>
      </contour>
    </TTGlyph>
    <TTGlyph name="SF500000" xMin="365" yMin="365" xMax="1118" yMax="1675">
      <contour>
        <pt x="737" y="365" on="1"/>
        <pt x="737" y="737" on="1"/>
        <pt x="365" y="737" on="1"/>
        <pt x="365" y="1675" on="1"/>
        <pt x="567" y="1675" on="1"/>
        <pt x="567" y="940" on="1"/>
        <pt x="1118" y="940" on="1"/>
        <pt x="1118" y="737" on="1"/>
        <pt x="940" y="737" on="1"/>
        <pt x="940" y="567" on="1"/>
        <pt x="1118" y="567" on="1"/>
        <pt x="1118" y="365" on="1"/>
      </contour>
    </TTGlyph>
    <TTGlyph name="SF510000" xMin="365" yMin="-373" xMax="1118" yMax="940">
      <contour>
        <pt x="1118" y="567" on="1"/>
        <pt x="1118" y="365" on="1"/>
        <pt x="567" y="365" on="1"/>
        <pt x="567" y="-373" on="1"/>
        <pt x="365" y="-373" on="1"/>
        <pt x="365" y="567" on="1"/>
        <pt x="737" y="567" on="1"/>
        <pt x="737" y="940" on="1"/>
        <pt x="1118" y="940" on="1"/>
        <pt x="1118" y="737" on="1"/>
        <pt x="940" y="737" on="1"/>
        <pt x="940" y="567" on="1"/>
      </contour>
    </TTGlyph>
    <TTGlyph name="SF520000" xMin="178" yMin="-373" xMax="1118" yMax="754">
      <contour>
        <pt x="1118" y="754" on="1"/>
        <pt x="1118" y="551" on="1"/>
        <pt x="754" y="551" on="1"/>
        <pt x="754" y="-373" on="1"/>
        <pt x="551" y="-373" on="1"/>
        <pt x="551" y="178" on="1"/>
        <pt x="381" y="178" on="1"/>
        <pt x="381" y="-373" on="1"/>
        <pt x="178" y="-373" on="1"/>
        <pt x="178" y="381" on="1"/>
        <pt x="551" y="381" on="1"/>
        <pt x="551" y="754" on="1"/>
      </contour>
    </TTGlyph>
    <TTGlyph name="SF530000" xMin="0" yMin="-373" xMax="1118" yMax="1675">
      <contour>
        <pt x="1118" y="754" on="1"/>
        <pt x="1118" y="551" on="1"/>
        <pt x="754" y="551" on="1"/>
        <pt x="754" y="-373" on="1"/>
        <pt x="551" y="-373" on="1"/>
        <pt x="551" y="1675" on="1"/>
        <pt x="754" y="1675" on="1"/>
        <pt x="754" y="754" on="1"/>
      </contour>
      <contour>
        <pt x="381" y="1675" on="1"/>
        <pt x="381" y="-373" on="1"/>
        <pt x="178" y="-373" on="1"/>
        <pt x="178" y="551" on="1"/>
        <pt x="0" y="551" on="1"/>
        <pt x="0" y="754" on="1"/>
        <pt x="178" y="754" on="1"/>
        <pt x="178" y="1675" on="1"/>
      </contour>
    </TTGlyph>
    <TTGlyph name="SF540000" xMin="0" yMin="-373" xMax="1118" yMax="1675">
      <contour>
        <pt x="0" y="737" on="1"/>
        <pt x="0" y="940" on="1"/>
        <pt x="365" y="940" on="1"/>
        <pt x="365" y="1675" on="1"/>
        <pt x="567" y="1675" on="1"/>
        <pt x="567" y="940" on="1"/>
        <pt x="1118" y="940" on="1"/>
        <pt x="1118" y="737" on="1"/>
      </contour>
      <contour>
        <pt x="1118" y="567" on="1"/>
        <pt x="1118" y="365" on="1"/>
        <pt x="567" y="365" on="1"/>
        <pt x="567" y="-373" on="1"/>
        <pt x="365" y="-373" on="1"/>
        <pt x="365" y="365" on="1"/>
        <pt x="0" y="365" on="1"/>
        <pt x="0" y="567" on="1"/>
      </contour>
    </TTGlyph>
    <TTGlyph name="Sacute" xMin="-72" yMin="-23" xMax="1047" yMax="1776">
      <component glyphName="S" x="0" y="0" flags="0x204"/>
      <component glyphName="acute" x="80" y="371" flags="0x4"/>
    </TTGlyph>
    <TTGlyph name="Scaron" xMin="-72" yMin="-23" xMax="1047" yMax="1770">
      <component glyphName="S" x="0" y="0" flags="0x204"/>
      <component glyphName="caron" x="80" y="371" flags="0x4"/>
    </TTGlyph>
    <TTGlyph name="Scedilla" xMin="-72" yMin="-371" xMax="1047" yMax="1327">
      <contour>
        <pt x="877" y="358" on="1"/>
        <pt x="860" y="281" on="0"/>
        <pt x="784" y="154" on="0"/>
        <pt x="682" y="57" on="0"/>
        <pt x="557" y="-2" on="0"/>
        <pt x="487" y="-14" on="1"/>
        <pt x="481" y="-41" on="1"/>
        <pt x="467" y="-111" on="0"/>
        <pt x="393" y="-231" on="0"/>
        <pt x="285" y="-319" on="0"/>
        <pt x="145" y="-371" on="0"/>
        <pt x="63" y="-371" on="1"/>
        <pt x="102" y="-193" on="1"/>
        <pt x="190" y="-193" on="0"/>
        <pt x="291" y="-113" on="0"/>
        <pt x="305" y="-41" on="1"/>
        <pt x="311" y="-14" on="1"/>
        <pt x="195" y="10" on="0"/>
        <pt x="139" y="119" on="1"/>
        <pt x="115" y="0" on="1"/>
        <pt x="-72" y="0" on="1"/>
        <pt x="18" y="426" on="1"/>
        <pt x="205" y="426" on="1"/>
        <pt x="190" y="362" on="0"/>
        <pt x="215" y="264" on="0"/>
        <pt x="274" y="197" on="0"/>
        <pt x="365" y="162" on="0"/>
        <pt x="420" y="162" on="1"/>
        <pt x="512" y="162" on="0"/>
        <pt x="645" y="248" on="0"/>
        <pt x="666" y="342" on="1"/>
        <pt x="676" y="391" on="0"/>
        <pt x="655" y="461" on="0"/>
        <pt x="602" y="516" on="0"/>
        <pt x="516" y="557" on="0"/>
        <pt x="463" y="580" on="1"/>
        <pt x="395" y="604" on="0"/>
        <pt x="266" y="664" on="0"/>
        <pt x="174" y="752" on="0"/>
        <pt x="131" y="881" on="0"/>
        <pt x="152" y="979" on="1"/>
        <pt x="170" y="1065" on="0"/>
        <pt x="260" y="1194" on="0"/>
        <pt x="385" y="1282" on="0"/>
        <pt x="532" y="1327" on="0"/>
        <pt x="610" y="1327" on="1"/>
        <pt x="700" y="1327" on="0"/>
        <pt x="813" y="1251" on="0"/>
        <pt x="836" y="1188" on="1"/>
        <pt x="860" y="1305" on="1"/>
        <pt x="1047" y="1305" on="1"/>
        <pt x="961" y="899" on="1"/>
        <pt x="774" y="899" on="1"/>
        <pt x="799" y="1014" on="0"/>
        <pt x="705" y="1143" on="0"/>
        <pt x="602" y="1143" on="1"/>
        <pt x="512" y="1143" on="0"/>
        <pt x="375" y="1059" on="0"/>
        <pt x="360" y="983" on="1"/>
        <pt x="350" y="944" on="0"/>
        <pt x="371" y="889" on="0"/>
        <pt x="420" y="844" on="0"/>
        <pt x="502" y="805" on="0"/>
        <pt x="557" y="782" on="1"/>
        <pt x="625" y="756" on="0"/>
        <pt x="756" y="690" on="0"/>
        <pt x="852" y="594" on="0"/>
        <pt x="897" y="457" on="0"/>
      </contour>
    </TTGlyph>
    <TTGlyph name="Scircumflex" xMin="-72" yMin="-23" xMax="1047" yMax="1770">
      <component glyphName="S" x="0" y="0" flags="0x204"/>
      <component glyphName="circumflex" x="80" y="371" flags="0x4"/>
    </TTGlyph>
    <TTGlyph name="Scommaaccent" xMin="-72" yMin="-373" xMax="1047" yMax="1327">
      <component glyphName="S" x="0" y="0" flags="0x204"/>
      <component glyphName="commaaccent" x="0" y="0" flags="0x4"/>
    </TTGlyph>
    <TTGlyph name="Sigma" xMin="-55" yMin="0" xMax="1061" yMax="1305">
      <contour>
        <pt x="784" y="0" on="1"/>
        <pt x="-55" y="0" on="1"/>
        <pt x="-16" y="186" on="1"/>
        <pt x="377" y="651" on="1"/>
        <pt x="182" y="1118" on="1"/>
        <pt x="221" y="1305" on="1"/>
        <pt x="1061" y="1305" on="1"/>
        <pt x="967" y="864" on="1"/>
        <pt x="780" y="864" on="1"/>
        <pt x="836" y="1118" on="1"/>
        <pt x="434" y="1118" on="1"/>
        <pt x="621" y="651" on="1"/>
        <pt x="236" y="186" on="1"/>
        <pt x="637" y="186" on="1"/>
        <pt x="690" y="442" on="1"/>
        <pt x="877" y="442" on="1"/>
      </contour>
    </TTGlyph>
    <TTGlyph name="T" xMin="57" yMin="0" xMax="1108" yMax="1305">
      <contour>
        <pt x="1008" y="829" on="1"/>
        <pt x="823" y="829" on="1"/>
        <pt x="885" y="1118" on="1"/>
        <pt x="709" y="1118" on="1"/>
        <pt x="510" y="186" on="1"/>
        <pt x="717" y="186" on="1"/>
        <pt x="678" y="0" on="1"/>
        <pt x="57" y="0" on="1"/>
        <pt x="96" y="186" on="1"/>
        <pt x="303" y="186" on="1"/>
        <pt x="502" y="1118" on="1"/>
        <pt x="324" y="1118" on="1"/>
        <pt x="262" y="829" on="1"/>
        <pt x="78" y="829" on="1"/>
        <pt x="178" y="1305" on="1"/>
        <pt x="1108" y="1305" on="1"/>
      </contour>
    </TTGlyph>
    <TTGlyph name="Tau" xMin="57" yMin="0" xMax="1108" yMax="1305">
      <contour>
        <pt x="1008" y="829" on="1"/>
        <pt x="823" y="829" on="1"/>
        <pt x="885" y="1118" on="1"/>
        <pt x="709" y="1118" on="1"/>
        <pt x="510" y="186" on="1"/>
        <pt x="717" y="186" on="1"/>
        <pt x="678" y="0" on="1"/>
        <pt x="57" y="0" on="1"/>
        <pt x="96" y="186" on="1"/>
        <pt x="303" y="186" on="1"/>
        <pt x="502" y="1118" on="1"/>
        <pt x="324" y="1118" on="1"/>
        <pt x="262" y="829" on="1"/>
        <pt x="78" y="829" on="1"/>
        <pt x="178" y="1305" on="1"/>
        <pt x="1108" y="1305" on="1"/>
      </contour>
    </TTGlyph>
    <TTGlyph name="Tbar" xMin="57" yMin="0" xMax="1108" yMax="1305">
      <contour>
        <pt x="768" y="571" on="1"/>
        <pt x="592" y="571" on="1"/>
        <pt x="510" y="186" on="1"/>
        <pt x="717" y="186" on="1"/>
        <pt x="678" y="0" on="1"/>
        <pt x="57" y="0" on="1"/>
        <pt x="96" y="186" on="1"/>
        <pt x="303" y="186" on="1"/>
        <pt x="385" y="571" on="1"/>
        <pt x="209" y="571" on="1"/>
        <pt x="246" y="745" on="1"/>
        <pt x="422" y="745" on="1"/>
        <pt x="502" y="1118" on="1"/>
        <pt x="324" y="1118" on="1"/>
        <pt x="262" y="829" on="1"/>
        <pt x="78" y="829" on="1"/>
        <pt x="178" y="1305" on="1"/>
        <pt x="1108" y="1305" on="1"/>
        <pt x="1008" y="829" on="1"/>
        <pt x="823" y="829" on="1"/>
        <pt x="885" y="1118" on="1"/>
        <pt x="709" y="1118" on="1"/>
        <pt x="629" y="745" on="1"/>
        <pt x="805" y="745" on="1"/>
      </contour>
    </TTGlyph>
    <TTGlyph name="Tcaron" xMin="57" yMin="0" xMax="1108" yMax="1770">
      <component glyphName="T" x="0" y="0" flags="0x204"/>
      <component glyphName="caron" x="80" y="371" flags="0x4"/>
    </TTGlyph>
    <TTGlyph name="Tcommaaccent" xMin="57" yMin="-373" xMax="1108" yMax="1305">
      <component glyphName="T" x="0" y="0" flags="0x204"/>
      <component glyphName="commaaccent" x="0" y="0" flags="0x4"/>
    </TTGlyph>
    <TTGlyph name="Theta" xMin="-20" yMin="-23" xMax="1034" yMax="1327">
      <contour>
        <pt x="291" y="758" on="1"/>
        <pt x="762" y="758" on="1"/>
        <pt x="723" y="571" on="1"/>
        <pt x="252" y="571" on="1"/>
      </contour>
      <contour>
        <pt x="6" y="653" on="1"/>
        <pt x="35" y="784" on="0"/>
        <pt x="141" y="1028" on="0"/>
        <pt x="301" y="1214" on="0"/>
        <pt x="514" y="1327" on="0"/>
        <pt x="649" y="1327" on="1"/>
        <pt x="784" y="1327" on="0"/>
        <pt x="952" y="1214" on="0"/>
        <pt x="1032" y="1028" on="0"/>
        <pt x="1034" y="784" on="0"/>
        <pt x="1006" y="653" on="1"/>
        <pt x="979" y="522" on="0"/>
        <pt x="872" y="279" on="0"/>
        <pt x="715" y="90" on="0"/>
        <pt x="500" y="-23" on="0"/>
        <pt x="362" y="-23" on="1"/>
        <pt x="225" y="-23" on="0"/>
        <pt x="59" y="90" on="0"/>
        <pt x="-20" y="279" on="0"/>
        <pt x="-20" y="522" on="0"/>
      </contour>
      <contour>
        <pt x="213" y="653" on="1"/>
        <pt x="195" y="565" on="0"/>
        <pt x="184" y="389" on="0"/>
        <pt x="219" y="250" on="0"/>
        <pt x="315" y="164" on="0"/>
        <pt x="403" y="164" on="1"/>
        <pt x="492" y="164" on="0"/>
        <pt x="621" y="250" on="0"/>
        <pt x="717" y="389" on="0"/>
        <pt x="780" y="565" on="0"/>
        <pt x="799" y="653" on="1"/>
        <pt x="817" y="741" on="0"/>
        <pt x="829" y="915" on="0"/>
        <pt x="793" y="1055" on="0"/>
        <pt x="696" y="1141" on="0"/>
        <pt x="610" y="1141" on="1"/>
        <pt x="467" y="1141" on="0"/>
        <pt x="262" y="883" on="0"/>
      </contour>
    </TTGlyph>
    <TTGlyph name="Thorn" xMin="-49" yMin="0" xMax="1014" yMax="1305">
      <contour>
        <pt x="973" y="664" on="1"/>
        <pt x="932" y="467" on="0"/>
        <pt x="653" y="279" on="0"/>
        <pt x="440" y="279" on="1"/>
        <pt x="215" y="279" on="1"/>
        <pt x="158" y="0" on="1"/>
        <pt x="-49" y="0" on="1"/>
        <pt x="227" y="1305" on="1"/>
        <pt x="434" y="1305" on="1"/>
        <pt x="379" y="1049" on="1"/>
        <pt x="602" y="1049" on="1"/>
        <pt x="817" y="1049" on="0"/>
        <pt x="1014" y="856" on="0"/>
      </contour>
      <contour>
        <pt x="768" y="664" on="1"/>
        <pt x="791" y="764" on="0"/>
        <pt x="678" y="862" on="0"/>
        <pt x="565" y="862" on="1"/>
        <pt x="340" y="862" on="1"/>
        <pt x="256" y="465" on="1"/>
        <pt x="481" y="465" on="1"/>
        <pt x="594" y="465" on="0"/>
        <pt x="748" y="561" on="0"/>
      </contour>
    </TTGlyph>
    <TTGlyph name="U" xMin="25" yMin="-23" xMax="1061" yMax="1305">
      <contour>
        <pt x="883" y="465" on="1"/>
        <pt x="858" y="354" on="0"/>
        <pt x="772" y="174" on="0"/>
        <pt x="641" y="47" on="0"/>
        <pt x="469" y="-23" on="0"/>
        <pt x="360" y="-23" on="1"/>
        <pt x="252" y="-23" on="0"/>
        <pt x="111" y="47" on="0"/>
        <pt x="37" y="174" on="0"/>
        <pt x="25" y="356" on="0"/>
        <pt x="49" y="467" on="1"/>
        <pt x="227" y="1305" on="1"/>
        <pt x="434" y="1305" on="1"/>
        <pt x="256" y="465" on="1"/>
        <pt x="246" y="416" on="0"/>
        <pt x="238" y="311" on="0"/>
        <pt x="260" y="221" on="0"/>
        <pt x="334" y="164" on="0"/>
        <pt x="401" y="164" on="1"/>
        <pt x="469" y="164" on="0"/>
        <pt x="563" y="221" on="0"/>
        <pt x="629" y="309" on="0"/>
        <pt x="666" y="416" on="0"/>
        <pt x="676" y="465" on="1"/>
        <pt x="854" y="1305" on="1"/>
        <pt x="1061" y="1305" on="1"/>
      </contour>
    </TTGlyph>
    <TTGlyph name="Uacute" xMin="25" yMin="-23" xMax="1061" yMax="1776">
      <component glyphName="U" x="0" y="0" flags="0x204"/>
      <component glyphName="acute" x="80" y="371" flags="0x4"/>
    </TTGlyph>
    <TTGlyph name="Ubreve" xMin="25" yMin="-23" xMax="1061" yMax="1657">
      <component glyphName="U" x="0" y="0" flags="0x204"/>
      <component glyphName="breve" x="80" y="371" flags="0x4"/>
    </TTGlyph>
    <TTGlyph name="Ucircumflex" xMin="25" yMin="-23" xMax="1061" yMax="1770">
      <component glyphName="U" x="0" y="0" flags="0x204"/>
      <component glyphName="circumflex" x="80" y="371" flags="0x4"/>
    </TTGlyph>
    <TTGlyph name="Udieresis" xMin="25" yMin="-23" xMax="1061" yMax="1676">
      <component glyphName="U" x="0" y="0" flags="0x204"/>
      <component glyphName="dieresis" x="80" y="371" flags="0x4"/>
    </TTGlyph>
    <TTGlyph name="Ugrave" xMin="25" yMin="-23" xMax="1061" yMax="1776">
      <component glyphName="U" x="0" y="0" flags="0x204"/>
      <component glyphName="grave" x="80" y="371" flags="0x4"/>
    </TTGlyph>
    <TTGlyph name="Uhungarumlaut" xMin="25" yMin="-23" xMax="1163" yMax="1770">
      <component glyphName="U" x="0" y="0" flags="0x204"/>
      <component glyphName="hungarumlaut" x="80" y="371" flags="0x4"/>
    </TTGlyph>
    <TTGlyph name="Umacron" xMin="25" yMin="-23" xMax="1061" yMax="1590">
      <component glyphName="U" x="0" y="0" flags="0x204"/>
      <component glyphName="macron" x="80" y="371" flags="0x4"/>
    </TTGlyph>
    <TTGlyph name="Uogonek" xMin="25" yMin="-379" xMax="1061" yMax="1305">
      <contour>
        <pt x="551" y="-379" on="1"/>
        <pt x="416" y="-379" on="0"/>
        <pt x="285" y="-260" on="0"/>
        <pt x="309" y="-141" on="1"/>
        <pt x="324" y="-76" on="0"/>
        <pt x="371" y="-23" on="1"/>
        <pt x="360" y="-23" on="1"/>
        <pt x="252" y="-23" on="0"/>
        <pt x="111" y="47" on="0"/>
        <pt x="37" y="174" on="0"/>
        <pt x="25" y="356" on="0"/>
        <pt x="49" y="467" on="1"/>
        <pt x="227" y="1305" on="1"/>
        <pt x="434" y="1305" on="1"/>
        <pt x="256" y="465" on="1"/>
        <pt x="246" y="416" on="0"/>
        <pt x="238" y="311" on="0"/>
        <pt x="260" y="221" on="0"/>
        <pt x="334" y="164" on="0"/>
        <pt x="401" y="164" on="1"/>
        <pt x="469" y="164" on="0"/>
        <pt x="563" y="221" on="0"/>
        <pt x="629" y="309" on="0"/>
        <pt x="666" y="416" on="0"/>
        <pt x="676" y="465" on="1"/>
        <pt x="854" y="1305" on="1"/>
        <pt x="1061" y="1305" on="1"/>
        <pt x="883" y="465" on="1"/>
        <pt x="844" y="285" on="0"/>
        <pt x="664" y="43" on="0"/>
        <pt x="520" y="0" on="1"/>
        <pt x="471" y="-43" on="0"/>
        <pt x="459" y="-104" on="1"/>
        <pt x="444" y="-168" on="0"/>
        <pt x="518" y="-231" on="0"/>
        <pt x="582" y="-231" on="1"/>
      </contour>
    </TTGlyph>
    <TTGlyph name="Upsilon" xMin="55" yMin="0" xMax="1130" yMax="1305">
      <contour>
        <pt x="1092" y="1118" on="1"/>
        <pt x="997" y="1118" on="1"/>
        <pt x="584" y="532" on="1"/>
        <pt x="510" y="186" on="1"/>
        <pt x="719" y="186" on="1"/>
        <pt x="680" y="0" on="1"/>
        <pt x="55" y="0" on="1"/>
        <pt x="94" y="186" on="1"/>
        <pt x="303" y="186" on="1"/>
        <pt x="377" y="532" on="1"/>
        <pt x="213" y="1118" on="1"/>
        <pt x="119" y="1118" on="1"/>
        <pt x="158" y="1305" on="1"/>
        <pt x="569" y="1305" on="1"/>
        <pt x="530" y="1118" on="1"/>
        <pt x="440" y="1118" on="1"/>
        <pt x="524" y="735" on="1"/>
        <pt x="770" y="1118" on="1"/>
        <pt x="680" y="1118" on="1"/>
        <pt x="719" y="1305" on="1"/>
        <pt x="1130" y="1305" on="1"/>
      </contour>
    </TTGlyph>
    <TTGlyph name="Upsilondieresis" xMin="55" yMin="0" xMax="1130" yMax="1676">
      <component glyphName="Upsilon" x="0" y="0" flags="0x204"/>
      <component glyphName="dieresis" x="80" y="371" flags="0x4"/>
    </TTGlyph>
    <TTGlyph name="Upsilontonos" xMin="-47" yMin="0" xMax="1229" yMax="1675">
      <contour>
        <pt x="1190" y="1118" on="1"/>
        <pt x="1096" y="1118" on="1"/>
        <pt x="682" y="532" on="1"/>
        <pt x="608" y="186" on="1"/>
        <pt x="817" y="186" on="1"/>
        <pt x="778" y="0" on="1"/>
        <pt x="154" y="0" on="1"/>
        <pt x="193" y="186" on="1"/>
        <pt x="401" y="186" on="1"/>
        <pt x="475" y="532" on="1"/>
        <pt x="311" y="1118" on="1"/>
        <pt x="287" y="1118" on="1"/>
        <pt x="326" y="1305" on="1"/>
        <pt x="668" y="1305" on="1"/>
        <pt x="629" y="1118" on="1"/>
        <pt x="539" y="1118" on="1"/>
        <pt x="623" y="735" on="1"/>
        <pt x="868" y="1118" on="1"/>
        <pt x="778" y="1118" on="1"/>
        <pt x="817" y="1305" on="1"/>
        <pt x="1229" y="1305" on="1"/>
      </contour>
      <contour>
        <pt x="315" y="1675" on="1"/>
        <pt x="115" y="1118" on="1"/>
        <pt x="-47" y="1118" on="1"/>
        <pt x="70" y="1675" on="1"/>
      </contour>
    </TTGlyph>
    <TTGlyph name="Uring" xMin="25" yMin="-23" xMax="1061" yMax="1854">
      <component glyphName="U" x="0" y="0" flags="0x204"/>
      <component glyphName="ring" x="80" y="371" flags="0x4"/>
    </TTGlyph>
    <TTGlyph name="Utilde" xMin="25" yMin="-23" xMax="1120" yMax="1686">
      <component glyphName="U" x="0" y="0" flags="0x204"/>
      <component glyphName="tilde" x="80" y="371" flags="0x4"/>
    </TTGlyph>
    <TTGlyph name="V" xMin="119" yMin="0" xMax="1169" yMax="1305">
      <contour>
        <pt x="1169" y="1305" on="1"/>
        <pt x="485" y="0" on="1"/>
        <pt x="250" y="0" on="1"/>
        <pt x="119" y="1305" on="1"/>
        <pt x="336" y="1305" on="1"/>
        <pt x="426" y="272" on="1"/>
        <pt x="952" y="1305" on="1"/>
      </contour>
    </TTGlyph>
    <TTGlyph name="W" xMin="41" yMin="0" xMax="1174" yMax="1305">
      <contour>
        <pt x="1174" y="1305" on="1"/>
        <pt x="694" y="0" on="1"/>
        <pt x="481" y="0" on="1"/>
        <pt x="485" y="563" on="1"/>
        <pt x="254" y="0" on="1"/>
        <pt x="41" y="0" on="1"/>
        <pt x="115" y="1305" on="1"/>
        <pt x="330" y="1305" on="1"/>
        <pt x="264" y="426" on="1"/>
        <pt x="465" y="932" on="1"/>
        <pt x="664" y="932" on="1"/>
        <pt x="649" y="426" on="1"/>
        <pt x="958" y="1305" on="1"/>
      </contour>
    </TTGlyph>
    <TTGlyph name="Wacute" xMin="41" yMin="0" xMax="1174" yMax="1776">
      <component glyphName="W" x="0" y="0" flags="0x204"/>
      <component glyphName="acute" x="80" y="371" flags="0x4"/>
    </TTGlyph>
    <TTGlyph name="Wcircumflex" xMin="41" yMin="0" xMax="1174" yMax="1770">
      <component glyphName="W" x="0" y="0" flags="0x204"/>
      <component glyphName="circumflex" x="80" y="371" flags="0x4"/>
    </TTGlyph>
    <TTGlyph name="Wdieresis" xMin="41" yMin="0" xMax="1174" yMax="1674">
      <component glyphName="W" x="0" y="0" flags="0x204"/>
      <component glyphName="dieresis" x="80" y="369" flags="0x4"/>
    </TTGlyph>
    <TTGlyph name="Wgrave" xMin="41" yMin="0" xMax="1174" yMax="1776">
      <component glyphName="W" x="0" y="0" flags="0x204"/>
      <component glyphName="grave" x="80" y="371" flags="0x4"/>
    </TTGlyph>
    <TTGlyph name="X" xMin="-121" yMin="0" xMax="1110" yMax="1305">
      <contour>
        <pt x="854" y="0" on="1"/>
        <pt x="428" y="0" on="1"/>
        <pt x="467" y="186" on="1"/>
        <pt x="541" y="186" on="1"/>
        <pt x="465" y="481" on="1"/>
        <pt x="266" y="186" on="1"/>
        <pt x="340" y="186" on="1"/>
        <pt x="301" y="0" on="1"/>
        <pt x="-121" y="0" on="1"/>
        <pt x="-82" y="186" on="1"/>
        <pt x="31" y="186" on="1"/>
        <pt x="385" y="659" on="1"/>
        <pt x="233" y="1118" on="1"/>
        <pt x="139" y="1118" on="1"/>
        <pt x="178" y="1305" on="1"/>
        <pt x="592" y="1305" on="1"/>
        <pt x="553" y="1118" on="1"/>
        <pt x="469" y="1118" on="1"/>
        <pt x="541" y="829" on="1"/>
        <pt x="737" y="1118" on="1"/>
        <pt x="655" y="1118" on="1"/>
        <pt x="694" y="1305" on="1"/>
        <pt x="1110" y="1305" on="1"/>
        <pt x="1071" y="1118" on="1"/>
        <pt x="971" y="1118" on="1"/>
        <pt x="623" y="659" on="1"/>
        <pt x="776" y="186" on="1"/>
        <pt x="893" y="186" on="1"/>
      </contour>
    </TTGlyph>
    <TTGlyph name="Xi" xMin="-98" yMin="0" xMax="1110" yMax="1305">
      <contour>
        <pt x="-29" y="334" on="1"/>
        <pt x="158" y="334" on="1"/>
        <pt x="127" y="186" on="1"/>
        <pt x="686" y="186" on="1"/>
        <pt x="717" y="334" on="1"/>
        <pt x="903" y="334" on="1"/>
        <pt x="834" y="0" on="1"/>
        <pt x="-98" y="0" on="1"/>
      </contour>
      <contour>
        <pt x="885" y="1118" on="1"/>
        <pt x="326" y="1118" on="1"/>
        <pt x="293" y="969" on="1"/>
        <pt x="106" y="969" on="1"/>
        <pt x="178" y="1305" on="1"/>
        <pt x="1110" y="1305" on="1"/>
        <pt x="1038" y="969" on="1"/>
        <pt x="852" y="969" on="1"/>
      </contour>
      <contour>
        <pt x="248" y="758" on="1"/>
        <pt x="807" y="758" on="1"/>
        <pt x="768" y="571" on="1"/>
        <pt x="209" y="571" on="1"/>
      </contour>
    </TTGlyph>
    <TTGlyph name="Y" xMin="55" yMin="0" xMax="1130" yMax="1305">
      <contour>
        <pt x="1092" y="1118" on="1"/>
        <pt x="997" y="1118" on="1"/>
        <pt x="584" y="532" on="1"/>
        <pt x="510" y="186" on="1"/>
        <pt x="719" y="186" on="1"/>
        <pt x="680" y="0" on="1"/>
        <pt x="55" y="0" on="1"/>
        <pt x="94" y="186" on="1"/>
        <pt x="303" y="186" on="1"/>
        <pt x="377" y="532" on="1"/>
        <pt x="213" y="1118" on="1"/>
        <pt x="119" y="1118" on="1"/>
        <pt x="158" y="1305" on="1"/>
        <pt x="569" y="1305" on="1"/>
        <pt x="530" y="1118" on="1"/>
        <pt x="440" y="1118" on="1"/>
        <pt x="524" y="735" on="1"/>
        <pt x="770" y="1118" on="1"/>
        <pt x="680" y="1118" on="1"/>
        <pt x="719" y="1305" on="1"/>
        <pt x="1130" y="1305" on="1"/>
      </contour>
    </TTGlyph>
    <TTGlyph name="Yacute" xMin="55" yMin="0" xMax="1130" yMax="1776">
      <component glyphName="Y" x="0" y="0" flags="0x204"/>
      <component glyphName="acute" x="80" y="371" flags="0x4"/>
    </TTGlyph>
    <TTGlyph name="Ycircumflex" xMin="55" yMin="0" xMax="1130" yMax="1770">
      <component glyphName="Y" x="0" y="0" flags="0x204"/>
      <component glyphName="circumflex" x="80" y="371" flags="0x4"/>
    </TTGlyph>
    <TTGlyph name="Ydieresis" xMin="55" yMin="0" xMax="1130" yMax="1676">
      <component glyphName="Y" x="0" y="0" flags="0x204"/>
      <component glyphName="dieresis" x="80" y="371" flags="0x4"/>
    </TTGlyph>
    <TTGlyph name="Ygrave" xMin="55" yMin="0" xMax="1130" yMax="1776">
      <component glyphName="Y" x="0" y="0" flags="0x204"/>
      <component glyphName="grave" x="80" y="371" flags="0x4"/>
    </TTGlyph>
    <TTGlyph name="Z" xMin="-49" yMin="0" xMax="1044" yMax="1305">
      <contour>
        <pt x="784" y="0" on="1"/>
        <pt x="-49" y="0" on="1"/>
        <pt x="-10" y="184" on="1"/>
        <pt x="772" y="1118" on="1"/>
        <pt x="375" y="1118" on="1"/>
        <pt x="313" y="834" on="1"/>
        <pt x="127" y="834" on="1"/>
        <pt x="227" y="1305" on="1"/>
        <pt x="1044" y="1305" on="1"/>
        <pt x="1006" y="1118" on="1"/>
        <pt x="240" y="186" on="1"/>
        <pt x="641" y="186" on="1"/>
        <pt x="702" y="473" on="1"/>
        <pt x="885" y="473" on="1"/>
      </contour>
    </TTGlyph>
    <TTGlyph name="Zacute" xMin="-49" yMin="0" xMax="1044" yMax="1776">
      <component glyphName="Z" x="0" y="0" flags="0x204"/>
      <component glyphName="acute" x="80" y="371" flags="0x4"/>
    </TTGlyph>
    <TTGlyph name="Zcaron" xMin="-49" yMin="0" xMax="1047" yMax="1770">
      <component glyphName="Z" x="0" y="0" flags="0x204"/>
      <component glyphName="caron" x="80" y="371" flags="0x4"/>
    </TTGlyph>
    <TTGlyph name="Zdotaccent" xMin="-49" yMin="0" xMax="1044" yMax="1676">
      <component glyphName="Z" x="0" y="0" flags="0x204"/>
      <component glyphName="dotaccent" x="80" y="371" flags="0x4"/>
    </TTGlyph>
    <TTGlyph name="Zeta" xMin="-49" yMin="0" xMax="1044" yMax="1305">
      <contour>
        <pt x="784" y="0" on="1"/>
        <pt x="-49" y="0" on="1"/>
        <pt x="-10" y="184" on="1"/>
        <pt x="772" y="1118" on="1"/>
        <pt x="375" y="1118" on="1"/>
        <pt x="313" y="834" on="1"/>
        <pt x="127" y="834" on="1"/>
        <pt x="227" y="1305" on="1"/>
        <pt x="1044" y="1305" on="1"/>
        <pt x="1006" y="1118" on="1"/>
        <pt x="240" y="186" on="1"/>
        <pt x="641" y="186" on="1"/>
        <pt x="702" y="473" on="1"/>
        <pt x="885" y="473" on="1"/>
      </contour>
    </TTGlyph>
    <TTGlyph name="a" xMin="-61" yMin="-23" xMax="934" yMax="954">
      <contour>
        <pt x="-47" y="268" on="1"/>
        <pt x="-29" y="350" on="0"/>
        <pt x="86" y="473" on="0"/>
        <pt x="246" y="555" on="0"/>
        <pt x="438" y="596" on="0"/>
        <pt x="535" y="596" on="1"/>
        <pt x="588" y="596" on="0"/>
        <pt x="664" y="592" on="0"/>
        <pt x="702" y="588" on="1"/>
        <pt x="709" y="625" on="1"/>
        <pt x="725" y="698" on="0"/>
        <pt x="627" y="770" on="0"/>
        <pt x="535" y="770" on="1"/>
        <pt x="451" y="770" on="0"/>
        <pt x="268" y="723" on="0"/>
        <pt x="180" y="678" on="1"/>
        <pt x="131" y="840" on="1"/>
        <pt x="233" y="893" on="0"/>
        <pt x="459" y="954" on="0"/>
        <pt x="575" y="954" on="1"/>
        <pt x="651" y="954" on="0"/>
        <pt x="791" y="920" on="0"/>
        <pt x="891" y="842" on="0"/>
        <pt x="934" y="717" on="0"/>
        <pt x="913" y="625" on="1"/>
        <pt x="782" y="0" on="1"/>
        <pt x="578" y="0" on="1"/>
        <pt x="606" y="137" on="1"/>
        <pt x="541" y="61" on="0"/>
        <pt x="332" y="-23" on="0"/>
        <pt x="221" y="-23" on="1"/>
        <pt x="154" y="-23" on="0"/>
        <pt x="41" y="14" on="0"/>
        <pt x="-31" y="88" on="0"/>
        <pt x="-61" y="197" on="0"/>
      </contour>
      <contour>
        <pt x="313" y="162" on="1"/>
        <pt x="375" y="162" on="0"/>
        <pt x="487" y="193" on="0"/>
        <pt x="582" y="248" on="0"/>
        <pt x="645" y="326" on="0"/>
        <pt x="655" y="373" on="1"/>
        <pt x="664" y="408" on="1"/>
        <pt x="616" y="416" on="0"/>
        <pt x="530" y="418" on="0"/>
        <pt x="498" y="418" on="1"/>
        <pt x="346" y="418" on="0"/>
        <pt x="174" y="338" on="0"/>
        <pt x="160" y="279" on="1"/>
        <pt x="135" y="162" on="0"/>
      </contour>
    </TTGlyph>
    <TTGlyph name="aacute" xMin="-61" yMin="-23" xMax="934" yMax="1405">
      <component glyphName="a" x="0" y="0" flags="0x204"/>
      <component glyphName="acute" x="0" y="0" flags="0x4"/>
    </TTGlyph>
    <TTGlyph name="abreve" xMin="-61" yMin="-23" xMax="944" yMax="1286">
      <component glyphName="a" x="0" y="0" flags="0x204"/>
      <component glyphName="breve" x="0" y="0" flags="0x4"/>
    </TTGlyph>
    <TTGlyph name="acircumflex" xMin="-61" yMin="-23" xMax="934" yMax="1399">
      <component glyphName="a" x="0" y="0" flags="0x204"/>
      <component glyphName="circumflex" x="0" y="0" flags="0x4"/>
    </TTGlyph>
    <TTGlyph name="acute" xMin="330" yMin="981" xMax="872" yMax="1405">
      <contour>
        <pt x="872" y="1225" on="1"/>
        <pt x="387" y="981" on="1"/>
        <pt x="330" y="1118" on="1"/>
        <pt x="793" y="1405" on="1"/>
      </contour>
    </TTGlyph>
    <TTGlyph name="adieresis" xMin="-61" yMin="-23" xMax="956" yMax="1305">
      <component glyphName="a" x="0" y="0" flags="0x204"/>
      <component glyphName="dieresis" x="0" y="0" flags="0x4"/>
    </TTGlyph>
    <TTGlyph name="ae" xMin="-76" yMin="-23" xMax="981" yMax="954">
      <contour>
        <pt x="379" y="131" on="1"/>
        <pt x="326" y="66" on="0"/>
        <pt x="205" y="-23" on="0"/>
        <pt x="125" y="-23" on="1"/>
        <pt x="63" y="-23" on="0"/>
        <pt x="-16" y="23" on="0"/>
        <pt x="-63" y="98" on="0"/>
        <pt x="-76" y="199" on="0"/>
        <pt x="-63" y="254" on="1"/>
        <pt x="-47" y="334" on="0"/>
        <pt x="29" y="457" on="0"/>
        <pt x="133" y="539" on="0"/>
        <pt x="258" y="580" on="0"/>
        <pt x="322" y="580" on="1"/>
        <pt x="344" y="580" on="0"/>
        <pt x="373" y="578" on="0"/>
        <pt x="395" y="573" on="1"/>
        <pt x="408" y="633" on="1"/>
        <pt x="424" y="707" on="0"/>
        <pt x="381" y="770" on="0"/>
        <pt x="336" y="770" on="1"/>
        <pt x="301" y="770" on="0"/>
        <pt x="209" y="733" on="0"/>
        <pt x="160" y="674" on="1"/>
        <pt x="61" y="793" on="1"/>
        <pt x="135" y="879" on="0"/>
        <pt x="305" y="954" on="0"/>
        <pt x="367" y="954" on="1"/>
        <pt x="438" y="954" on="0"/>
        <pt x="539" y="897" on="0"/>
        <pt x="547" y="825" on="1"/>
        <pt x="596" y="893" on="0"/>
        <pt x="711" y="954" on="0"/>
        <pt x="780" y="954" on="1"/>
        <pt x="874" y="954" on="0"/>
        <pt x="958" y="854" on="0"/>
        <pt x="981" y="694" on="0"/>
        <pt x="952" y="492" on="0"/>
        <pt x="930" y="387" on="1"/>
        <pt x="543" y="387" on="1"/>
        <pt x="516" y="262" on="0"/>
        <pt x="565" y="168" on="0"/>
        <pt x="610" y="168" on="1"/>
        <pt x="643" y="168" on="0"/>
        <pt x="696" y="205" on="0"/>
        <pt x="715" y="248" on="1"/>
        <pt x="877" y="190" on="1"/>
        <pt x="819" y="82" on="0"/>
        <pt x="672" y="-23" on="0"/>
        <pt x="569" y="-23" on="1"/>
        <pt x="541" y="-23" on="0"/>
        <pt x="481" y="-8" on="0"/>
        <pt x="428" y="27" on="0"/>
        <pt x="387" y="86" on="0"/>
      </contour>
      <contour>
        <pt x="762" y="569" on="1"/>
        <pt x="782" y="688" on="0"/>
        <pt x="756" y="770" on="0"/>
        <pt x="717" y="770" on="1"/>
        <pt x="674" y="770" on="0"/>
        <pt x="608" y="680" on="0"/>
        <pt x="582" y="569" on="1"/>
      </contour>
      <contour>
        <pt x="356" y="391" on="1"/>
        <pt x="344" y="393" on="0"/>
        <pt x="317" y="395" on="0"/>
        <pt x="295" y="395" on="1"/>
        <pt x="246" y="395" on="0"/>
        <pt x="154" y="326" on="0"/>
        <pt x="141" y="264" on="1"/>
        <pt x="131" y="213" on="0"/>
        <pt x="162" y="166" on="0"/>
        <pt x="195" y="166" on="1"/>
        <pt x="250" y="166" on="0"/>
        <pt x="330" y="264" on="0"/>
        <pt x="344" y="330" on="1"/>
      </contour>
    </TTGlyph>
    <TTGlyph name="aeacute" xMin="-76" yMin="-23" xMax="981" yMax="1407">
      <component glyphName="ae" x="0" y="0" flags="0x204"/>
      <component glyphName="acute" x="0" y="2" flags="0x4"/>
    </TTGlyph>
    <TTGlyph name="afii00208" xMin="-16" yMin="385" xMax="954" yMax="572">
      <contour>
        <pt x="915" y="385" on="1"/>
        <pt x="-16" y="385" on="1"/>
        <pt x="22" y="572" on="1"/>
        <pt x="954" y="572" on="1"/>
      </contour>
    </TTGlyph>
    <TTGlyph name="afii10017" xMin="-158" yMin="0" xMax="895" yMax="1305">
      <contour>
        <pt x="678" y="0" on="1"/>
        <pt x="649" y="311" on="1"/>
        <pt x="217" y="311" on="1"/>
        <pt x="59" y="0" on="1"/>
        <pt x="-158" y="0" on="1"/>
        <pt x="526" y="1305" on="1"/>
        <pt x="764" y="1305" on="1"/>
        <pt x="895" y="0" on="1"/>
      </contour>
      <contour>
        <pt x="311" y="494" on="1"/>
        <pt x="633" y="494" on="1"/>
        <pt x="588" y="1032" on="1"/>
      </contour>
    </TTGlyph>
    <TTGlyph name="afii10018" xMin="-49" yMin="0" xMax="1061" yMax="1305">
      <contour>
        <pt x="1022" y="1118" on="1"/>
        <pt x="395" y="1118" on="1"/>
        <pt x="322" y="776" on="1"/>
        <pt x="547" y="776" on="1"/>
        <pt x="760" y="776" on="0"/>
        <pt x="956" y="586" on="0"/>
        <pt x="915" y="389" on="1"/>
        <pt x="874" y="197" on="0"/>
        <pt x="596" y="0" on="0"/>
        <pt x="381" y="0" on="1"/>
        <pt x="-49" y="0" on="1"/>
        <pt x="227" y="1305" on="1"/>
        <pt x="1061" y="1305" on="1"/>
      </contour>
      <contour>
        <pt x="709" y="387" on="1"/>
        <pt x="729" y="489" on="0"/>
        <pt x="621" y="590" on="0"/>
        <pt x="508" y="590" on="1"/>
        <pt x="283" y="590" on="1"/>
        <pt x="197" y="186" on="1"/>
        <pt x="422" y="186" on="1"/>
        <pt x="535" y="186" on="0"/>
        <pt x="686" y="287" on="0"/>
      </contour>
    </TTGlyph>
    <TTGlyph name="afii10019" xMin="-49" yMin="0" xMax="1014" yMax="1305">
      <contour>
        <pt x="907" y="358" on="1"/>
        <pt x="868" y="180" on="0"/>
        <pt x="590" y="0" on="0"/>
        <pt x="367" y="0" on="1"/>
        <pt x="-49" y="0" on="1"/>
        <pt x="227" y="1305" on="1"/>
        <pt x="621" y="1305" on="1"/>
        <pt x="702" y="1305" on="0"/>
        <pt x="854" y="1278" on="0"/>
        <pt x="963" y="1204" on="0"/>
        <pt x="1014" y="1071" on="0"/>
        <pt x="991" y="965" on="1"/>
        <pt x="969" y="866" on="0"/>
        <pt x="834" y="702" on="0"/>
        <pt x="725" y="666" on="1"/>
        <pt x="842" y="627" on="0"/>
        <pt x="934" y="487" on="0"/>
      </contour>
      <contour>
        <pt x="780" y="938" on="1"/>
        <pt x="793" y="995" on="0"/>
        <pt x="764" y="1067" on="0"/>
        <pt x="705" y="1106" on="0"/>
        <pt x="625" y="1118" on="0"/>
        <pt x="582" y="1118" on="1"/>
        <pt x="395" y="1118" on="1"/>
        <pt x="317" y="758" on="1"/>
        <pt x="504" y="758" on="1"/>
        <pt x="547" y="758" on="0"/>
        <pt x="633" y="770" on="0"/>
        <pt x="709" y="809" on="0"/>
        <pt x="768" y="881" on="0"/>
      </contour>
      <contour>
        <pt x="707" y="379" on="1"/>
        <pt x="727" y="477" on="0"/>
        <pt x="610" y="571" on="0"/>
        <pt x="487" y="571" on="1"/>
        <pt x="279" y="571" on="1"/>
        <pt x="197" y="186" on="1"/>
        <pt x="406" y="186" on="1"/>
        <pt x="528" y="186" on="0"/>
        <pt x="686" y="281" on="0"/>
      </contour>
    </TTGlyph>
    <TTGlyph name="afii10020" xMin="-49" yMin="0" xMax="1061" yMax="1305">
      <contour>
        <pt x="1022" y="1118" on="1"/>
        <pt x="395" y="1118" on="1"/>
        <pt x="158" y="0" on="1"/>
        <pt x="-49" y="0" on="1"/>
        <pt x="227" y="1305" on="1"/>
        <pt x="1061" y="1305" on="1"/>
      </contour>
    </TTGlyph>
    <TTGlyph name="afii10021" xMin="-166" yMin="-319" xMax="958" yMax="1305">
      <contour>
        <pt x="-59" y="186" on="1"/>
        <pt x="8" y="231" on="0"/>
        <pt x="98" y="322" on="0"/>
        <pt x="174" y="485" on="0"/>
        <pt x="248" y="758" on="0"/>
        <pt x="297" y="983" on="1"/>
        <pt x="365" y="1305" on="1"/>
        <pt x="958" y="1305" on="1"/>
        <pt x="721" y="186" on="1"/>
        <pt x="872" y="186" on="1"/>
        <pt x="764" y="-319" on="1"/>
        <pt x="578" y="-319" on="1"/>
        <pt x="647" y="0" on="1"/>
        <pt x="88" y="0" on="1"/>
        <pt x="18" y="-319" on="1"/>
        <pt x="-166" y="-319" on="1"/>
      </contour>
      <contour>
        <pt x="504" y="983" on="1"/>
        <pt x="465" y="807" on="0"/>
        <pt x="403" y="555" on="0"/>
        <pt x="334" y="371" on="0"/>
        <pt x="242" y="240" on="0"/>
        <pt x="174" y="186" on="1"/>
        <pt x="514" y="186" on="1"/>
        <pt x="713" y="1118" on="1"/>
        <pt x="532" y="1118" on="1"/>
      </contour>
    </TTGlyph>
    <TTGlyph name="afii10022" xMin="-49" yMin="0" xMax="1061" yMax="1305">
      <contour>
        <pt x="784" y="0" on="1"/>
        <pt x="-49" y="0" on="1"/>
        <pt x="227" y="1305" on="1"/>
        <pt x="1061" y="1305" on="1"/>
        <pt x="1022" y="1118" on="1"/>
        <pt x="395" y="1118" on="1"/>
        <pt x="317" y="758" on="1"/>
        <pt x="807" y="758" on="1"/>
        <pt x="768" y="571" on="1"/>
        <pt x="279" y="571" on="1"/>
        <pt x="197" y="186" on="1"/>
        <pt x="823" y="186" on="1"/>
      </contour>
    </TTGlyph>
    <TTGlyph name="afii10023" xMin="-49" yMin="0" xMax="1061" yMax="1676">
      <component glyphName="afii10022" x="0" y="0" flags="0x204"/>
      <component glyphName="dieresis" x="80" y="371" flags="0x4"/>
    </TTGlyph>
    <TTGlyph name="afii10024" xMin="-207" yMin="0" xMax="1219" yMax="1305">
      <contour>
        <pt x="264" y="0" on="1"/>
        <pt x="373" y="518" on="1"/>
        <pt x="350" y="578" on="1"/>
        <pt x="-6" y="0" on="1"/>
        <pt x="-207" y="0" on="1"/>
        <pt x="279" y="737" on="1"/>
        <pt x="70" y="1305" on="1"/>
        <pt x="276" y="1305" on="1"/>
        <pt x="430" y="786" on="1"/>
        <pt x="541" y="1305" on="1"/>
        <pt x="748" y="1305" on="1"/>
        <pt x="637" y="786" on="1"/>
        <pt x="1012" y="1305" on="1"/>
        <pt x="1219" y="1305" on="1"/>
        <pt x="768" y="737" on="1"/>
        <pt x="942" y="0" on="1"/>
        <pt x="741" y="0" on="1"/>
        <pt x="627" y="578" on="1"/>
        <pt x="580" y="518" on="1"/>
        <pt x="471" y="0" on="1"/>
      </contour>
    </TTGlyph>
    <TTGlyph name="afii10025" xMin="-2" yMin="-23" xMax="1018" yMax="1327">
      <contour>
        <pt x="895" y="354" on="1"/>
        <pt x="876" y="268" on="0"/>
        <pt x="777" y="129" on="0"/>
        <pt x="639" y="31" on="0"/>
        <pt x="475" y="-23" on="0"/>
        <pt x="391" y="-23" on="1"/>
        <pt x="297" y="-23" on="0"/>
        <pt x="143" y="28" on="0"/>
        <pt x="41" y="134" on="0"/>
        <pt x="-2" y="297" on="0"/>
        <pt x="14" y="410" on="1"/>
        <pt x="214" y="442" on="1"/>
        <pt x="197" y="313" on="0"/>
        <pt x="255" y="238" on="1"/>
        <pt x="313" y="164" on="0"/>
        <pt x="430" y="164" on="1"/>
        <pt x="529" y="164" on="0"/>
        <pt x="598" y="216" on="1"/>
        <pt x="669" y="268" on="0"/>
        <pt x="688" y="354" on="1"/>
        <pt x="710" y="461" on="0"/>
        <pt x="575" y="571" on="0"/>
        <pt x="422" y="571" on="1"/>
        <pt x="462" y="758" on="1"/>
        <pt x="529" y="758" on="0"/>
        <pt x="640" y="785" on="0"/>
        <pt x="726" y="838" on="0"/>
        <pt x="782" y="917" on="0"/>
        <pt x="794" y="970" on="1"/>
        <pt x="801" y="1006" on="0"/>
        <pt x="790" y="1069" on="0"/>
        <pt x="752" y="1115" on="0"/>
        <pt x="685" y="1141" on="0"/>
        <pt x="638" y="1141" on="1"/>
        <pt x="576" y="1141" on="0"/>
        <pt x="473" y="1098" on="0"/>
        <pt x="392" y="1022" on="0"/>
        <pt x="337" y="920" on="0"/>
        <pt x="325" y="862" on="1"/>
        <pt x="138" y="862" on="1"/>
        <pt x="232" y="1305" on="1"/>
        <pt x="419" y="1305" on="1"/>
        <pt x="386" y="1151" on="1"/>
        <pt x="407" y="1194" on="0"/>
        <pt x="478" y="1260" on="0"/>
        <pt x="564" y="1305" on="0"/>
        <pt x="657" y="1327" on="0"/>
        <pt x="700" y="1327" on="1"/>
        <pt x="776" y="1327" on="0"/>
        <pt x="901" y="1276" on="0"/>
        <pt x="985" y="1183" on="0"/>
        <pt x="1018" y="1051" on="0"/>
        <pt x="1001" y="970" on="1"/>
        <pt x="988" y="910" on="0"/>
        <pt x="931" y="807" on="0"/>
        <pt x="849" y="730" on="0"/>
        <pt x="743" y="682" on="0"/>
        <pt x="683" y="678" on="1"/>
        <pt x="748" y="672" on="0"/>
        <pt x="841" y="614" on="0"/>
        <pt x="894" y="526" on="0"/>
        <pt x="907" y="414" on="0"/>
      </contour>
    </TTGlyph>
    <TTGlyph name="afii10026" xMin="-49" yMin="0" xMax="1061" yMax="1305">
      <contour>
        <pt x="227" y="1305" on="1"/>
        <pt x="434" y="1305" on="1"/>
        <pt x="244" y="406" on="1"/>
        <pt x="801" y="1305" on="1"/>
        <pt x="1061" y="1305" on="1"/>
        <pt x="784" y="0" on="1"/>
        <pt x="578" y="0" on="1"/>
        <pt x="778" y="946" on="1"/>
        <pt x="190" y="0" on="1"/>
        <pt x="-49" y="0" on="1"/>
      </contour>
    </TTGlyph>
    <TTGlyph name="afii10027" xMin="-49" yMin="0" xMax="1061" yMax="1657">
      <component glyphName="afii10026" x="0" y="0" flags="0x204"/>
      <component glyphName="breve" x="80" y="371" flags="0x4"/>
    </TTGlyph>
    <TTGlyph name="afii10028" xMin="-49" yMin="0" xMax="1106" yMax="1305">
      <contour>
        <pt x="827" y="0" on="1"/>
        <pt x="586" y="0" on="1"/>
        <pt x="373" y="608" on="1"/>
        <pt x="264" y="506" on="1"/>
        <pt x="158" y="0" on="1"/>
        <pt x="-49" y="0" on="1"/>
        <pt x="227" y="1305" on="1"/>
        <pt x="434" y="1305" on="1"/>
        <pt x="326" y="793" on="1"/>
        <pt x="840" y="1305" on="1"/>
        <pt x="1106" y="1305" on="1"/>
        <pt x="537" y="764" on="1"/>
      </contour>
    </TTGlyph>
    <TTGlyph name="afii10029" xMin="-190" yMin="-23" xMax="1061" yMax="1305">
      <contour>
        <pt x="1061" y="1305" on="1"/>
        <pt x="784" y="0" on="1"/>
        <pt x="578" y="0" on="1"/>
        <pt x="815" y="1118" on="1"/>
        <pt x="463" y="1118" on="1"/>
        <pt x="283" y="276" on="1"/>
        <pt x="266" y="195" on="0"/>
        <pt x="195" y="80" on="0"/>
        <pt x="100" y="10" on="0"/>
        <pt x="-14" y="-23" on="0"/>
        <pt x="-76" y="-23" on="1"/>
        <pt x="-158" y="-23" on="0"/>
        <pt x="-190" y="2" on="1"/>
        <pt x="-127" y="180" on="1"/>
        <pt x="-115" y="172" on="0"/>
        <pt x="-82" y="164" on="0"/>
        <pt x="-53" y="164" on="1"/>
        <pt x="53" y="164" on="0"/>
        <pt x="76" y="276" on="1"/>
        <pt x="295" y="1305" on="1"/>
      </contour>
    </TTGlyph>
    <TTGlyph name="afii10030" xMin="-49" yMin="0" xMax="1061" yMax="1305">
      <contour>
        <pt x="784" y="0" on="1"/>
        <pt x="578" y="0" on="1"/>
        <pt x="764" y="883" on="1"/>
        <pt x="532" y="414" on="1"/>
        <pt x="373" y="414" on="1"/>
        <pt x="344" y="883" on="1"/>
        <pt x="158" y="0" on="1"/>
        <pt x="-49" y="0" on="1"/>
        <pt x="227" y="1305" on="1"/>
        <pt x="473" y="1305" on="1"/>
        <pt x="518" y="715" on="1"/>
        <pt x="813" y="1305" on="1"/>
        <pt x="1061" y="1305" on="1"/>
      </contour>
    </TTGlyph>
    <TTGlyph name="afii10031" xMin="-49" yMin="0" xMax="1061" yMax="1305">
      <contour>
        <pt x="784" y="0" on="1"/>
        <pt x="578" y="0" on="1"/>
        <pt x="698" y="571" on="1"/>
        <pt x="279" y="571" on="1"/>
        <pt x="158" y="0" on="1"/>
        <pt x="-49" y="0" on="1"/>
        <pt x="227" y="1305" on="1"/>
        <pt x="434" y="1305" on="1"/>
        <pt x="317" y="758" on="1"/>
        <pt x="737" y="758" on="1"/>
        <pt x="854" y="1305" on="1"/>
        <pt x="1061" y="1305" on="1"/>
      </contour>
    </TTGlyph>
    <TTGlyph name="afii10032" xMin="-20" yMin="-23" xMax="1034" yMax="1327">
      <contour>
        <pt x="6" y="653" on="1"/>
        <pt x="35" y="784" on="0"/>
        <pt x="141" y="1028" on="0"/>
        <pt x="301" y="1214" on="0"/>
        <pt x="514" y="1327" on="0"/>
        <pt x="649" y="1327" on="1"/>
        <pt x="784" y="1327" on="0"/>
        <pt x="952" y="1214" on="0"/>
        <pt x="1032" y="1028" on="0"/>
        <pt x="1034" y="784" on="0"/>
        <pt x="1006" y="653" on="1"/>
        <pt x="979" y="522" on="0"/>
        <pt x="872" y="279" on="0"/>
        <pt x="715" y="90" on="0"/>
        <pt x="500" y="-23" on="0"/>
        <pt x="362" y="-23" on="1"/>
        <pt x="225" y="-23" on="0"/>
        <pt x="59" y="90" on="0"/>
        <pt x="-20" y="279" on="0"/>
        <pt x="-20" y="522" on="0"/>
      </contour>
      <contour>
        <pt x="213" y="653" on="1"/>
        <pt x="195" y="565" on="0"/>
        <pt x="184" y="389" on="0"/>
        <pt x="219" y="250" on="0"/>
        <pt x="315" y="164" on="0"/>
        <pt x="403" y="164" on="1"/>
        <pt x="492" y="164" on="0"/>
        <pt x="621" y="250" on="0"/>
        <pt x="717" y="389" on="0"/>
        <pt x="780" y="565" on="0"/>
        <pt x="799" y="653" on="1"/>
        <pt x="817" y="741" on="0"/>
        <pt x="829" y="915" on="0"/>
        <pt x="793" y="1055" on="0"/>
        <pt x="696" y="1141" on="0"/>
        <pt x="610" y="1141" on="1"/>
        <pt x="467" y="1141" on="0"/>
        <pt x="262" y="883" on="0"/>
      </contour>
    </TTGlyph>
    <TTGlyph name="afii10033" xMin="-49" yMin="0" xMax="1061" yMax="1305">
      <contour>
        <pt x="784" y="0" on="1"/>
        <pt x="578" y="0" on="1"/>
        <pt x="815" y="1118" on="1"/>
        <pt x="395" y="1118" on="1"/>
        <pt x="158" y="0" on="1"/>
        <pt x="-49" y="0" on="1"/>
        <pt x="227" y="1305" on="1"/>
        <pt x="1061" y="1305" on="1"/>
      </contour>
    </TTGlyph>
    <TTGlyph name="afii10034" xMin="-49" yMin="0" xMax="1067" yMax="1305">
      <contour>
        <pt x="1028" y="915" on="1"/>
        <pt x="985" y="719" on="0"/>
        <pt x="707" y="528" on="0"/>
        <pt x="494" y="528" on="1"/>
        <pt x="268" y="528" on="1"/>
        <pt x="158" y="0" on="1"/>
        <pt x="-49" y="0" on="1"/>
        <pt x="227" y="1305" on="1"/>
        <pt x="657" y="1305" on="1"/>
        <pt x="872" y="1305" on="0"/>
        <pt x="1067" y="1108" on="0"/>
      </contour>
      <contour>
        <pt x="821" y="918" on="1"/>
        <pt x="842" y="1018" on="0"/>
        <pt x="733" y="1118" on="0"/>
        <pt x="621" y="1118" on="1"/>
        <pt x="395" y="1118" on="1"/>
        <pt x="309" y="715" on="1"/>
        <pt x="535" y="715" on="1"/>
        <pt x="647" y="715" on="0"/>
        <pt x="799" y="815" on="0"/>
      </contour>
    </TTGlyph>
    <TTGlyph name="afii10035" xMin="-8" yMin="-23" xMax="1110" yMax="1327">
      <contour>
        <pt x="938" y="399" on="1"/>
        <pt x="893" y="303" on="0"/>
        <pt x="780" y="147" on="0"/>
        <pt x="641" y="37" on="0"/>
        <pt x="475" y="-23" on="0"/>
        <pt x="377" y="-23" on="1"/>
        <pt x="240" y="-23" on="0"/>
        <pt x="74" y="90" on="0"/>
        <pt x="-8" y="279" on="0"/>
        <pt x="-8" y="522" on="0"/>
        <pt x="18" y="653" on="1"/>
        <pt x="47" y="784" on="0"/>
        <pt x="152" y="1028" on="0"/>
        <pt x="311" y="1214" on="0"/>
        <pt x="518" y="1327" on="0"/>
        <pt x="651" y="1327" on="1"/>
        <pt x="694" y="1327" on="0"/>
        <pt x="778" y="1305" on="0"/>
        <pt x="844" y="1260" on="0"/>
        <pt x="887" y="1194" on="0"/>
        <pt x="891" y="1151" on="1"/>
        <pt x="924" y="1305" on="1"/>
        <pt x="1110" y="1305" on="1"/>
        <pt x="1006" y="811" on="1"/>
        <pt x="819" y="811" on="1"/>
        <pt x="831" y="872" on="0"/>
        <pt x="825" y="991" on="0"/>
        <pt x="780" y="1083" on="0"/>
        <pt x="692" y="1141" on="0"/>
        <pt x="625" y="1141" on="1"/>
        <pt x="537" y="1141" on="0"/>
        <pt x="406" y="1055" on="0"/>
        <pt x="309" y="915" on="0"/>
        <pt x="244" y="741" on="0"/>
        <pt x="225" y="653" on="1"/>
        <pt x="207" y="565" on="0"/>
        <pt x="197" y="389" on="0"/>
        <pt x="231" y="250" on="0"/>
        <pt x="330" y="164" on="0"/>
        <pt x="418" y="164" on="1"/>
        <pt x="545" y="164" on="0"/>
        <pt x="715" y="326" on="0"/>
        <pt x="786" y="463" on="1"/>
      </contour>
    </TTGlyph>
    <TTGlyph name="afii10036" xMin="57" yMin="0" xMax="1108" yMax="1305">
      <contour>
        <pt x="1008" y="829" on="1"/>
        <pt x="823" y="829" on="1"/>
        <pt x="885" y="1118" on="1"/>
        <pt x="709" y="1118" on="1"/>
        <pt x="510" y="186" on="1"/>
        <pt x="717" y="186" on="1"/>
        <pt x="678" y="0" on="1"/>
        <pt x="57" y="0" on="1"/>
        <pt x="96" y="186" on="1"/>
        <pt x="303" y="186" on="1"/>
        <pt x="502" y="1118" on="1"/>
        <pt x="324" y="1118" on="1"/>
        <pt x="262" y="829" on="1"/>
        <pt x="78" y="829" on="1"/>
        <pt x="178" y="1305" on="1"/>
        <pt x="1108" y="1305" on="1"/>
      </contour>
    </TTGlyph>
    <TTGlyph name="afii10037" xMin="-96" yMin="-23" xMax="1102" yMax="1305">
      <contour>
        <pt x="1102" y="1305" on="1"/>
        <pt x="463" y="190" on="1"/>
        <pt x="393" y="70" on="0"/>
        <pt x="201" y="-23" on="0"/>
        <pt x="82" y="-23" on="1"/>
        <pt x="41" y="-23" on="0"/>
        <pt x="-49" y="-6" on="0"/>
        <pt x="-96" y="12" on="1"/>
        <pt x="-12" y="203" on="1"/>
        <pt x="27" y="186" on="0"/>
        <pt x="96" y="174" on="0"/>
        <pt x="125" y="174" on="1"/>
        <pt x="217" y="174" on="0"/>
        <pt x="268" y="258" on="1"/>
        <pt x="326" y="348" on="1"/>
        <pt x="172" y="1305" on="1"/>
        <pt x="387" y="1305" on="1"/>
        <pt x="494" y="600" on="1"/>
        <pt x="881" y="1305" on="1"/>
      </contour>
    </TTGlyph>
    <TTGlyph name="afii10038" xMin="-18" yMin="0" xMax="1018" yMax="1305">
      <contour>
        <pt x="999" y="666" on="1"/>
        <pt x="979" y="569" on="0"/>
        <pt x="889" y="408" on="0"/>
        <pt x="760" y="285" on="0"/>
        <pt x="598" y="201" on="0"/>
        <pt x="508" y="186" on="1"/>
        <pt x="469" y="0" on="1"/>
        <pt x="264" y="0" on="1"/>
        <pt x="303" y="186" on="1"/>
        <pt x="133" y="219" on="0"/>
        <pt x="-18" y="475" on="0"/>
        <pt x="23" y="666" on="1"/>
        <pt x="41" y="760" on="0"/>
        <pt x="129" y="920" on="0"/>
        <pt x="256" y="1044" on="0"/>
        <pt x="416" y="1128" on="0"/>
        <pt x="506" y="1145" on="1"/>
        <pt x="541" y="1305" on="1"/>
        <pt x="745" y="1305" on="1"/>
        <pt x="713" y="1147" on="1"/>
        <pt x="797" y="1130" on="0"/>
        <pt x="922" y="1049" on="0"/>
        <pt x="997" y="922" on="0"/>
        <pt x="1018" y="760" on="0"/>
      </contour>
      <contour>
        <pt x="793" y="666" on="1"/>
        <pt x="813" y="768" on="0"/>
        <pt x="750" y="922" on="0"/>
        <pt x="670" y="952" on="1"/>
        <pt x="549" y="379" on="1"/>
        <pt x="641" y="410" on="0"/>
        <pt x="770" y="561" on="0"/>
      </contour>
      <contour>
        <pt x="229" y="666" on="1"/>
        <pt x="207" y="563" on="0"/>
        <pt x="264" y="412" on="0"/>
        <pt x="344" y="381" on="1"/>
        <pt x="465" y="950" on="1"/>
        <pt x="373" y="920" on="0"/>
        <pt x="250" y="766" on="0"/>
      </contour>
    </TTGlyph>
    <TTGlyph name="afii10039" xMin="-121" yMin="0" xMax="1110" yMax="1305">
      <contour>
        <pt x="854" y="0" on="1"/>
        <pt x="428" y="0" on="1"/>
        <pt x="467" y="186" on="1"/>
        <pt x="541" y="186" on="1"/>
        <pt x="465" y="481" on="1"/>
        <pt x="266" y="186" on="1"/>
        <pt x="340" y="186" on="1"/>
        <pt x="301" y="0" on="1"/>
        <pt x="-121" y="0" on="1"/>
        <pt x="-82" y="186" on="1"/>
        <pt x="31" y="186" on="1"/>
        <pt x="385" y="659" on="1"/>
        <pt x="233" y="1118" on="1"/>
        <pt x="139" y="1118" on="1"/>
        <pt x="178" y="1305" on="1"/>
        <pt x="592" y="1305" on="1"/>
        <pt x="553" y="1118" on="1"/>
        <pt x="469" y="1118" on="1"/>
        <pt x="541" y="829" on="1"/>
        <pt x="737" y="1118" on="1"/>
        <pt x="655" y="1118" on="1"/>
        <pt x="694" y="1305" on="1"/>
        <pt x="1110" y="1305" on="1"/>
        <pt x="1071" y="1118" on="1"/>
        <pt x="971" y="1118" on="1"/>
        <pt x="623" y="659" on="1"/>
        <pt x="776" y="186" on="1"/>
        <pt x="893" y="186" on="1"/>
      </contour>
    </TTGlyph>
    <TTGlyph name="afii10040" xMin="-49" yMin="-319" xMax="1061" yMax="1305">
      <contour>
        <pt x="995" y="186" on="1"/>
        <pt x="887" y="-319" on="1"/>
        <pt x="700" y="-319" on="1"/>
        <pt x="770" y="0" on="1"/>
        <pt x="-49" y="0" on="1"/>
        <pt x="227" y="1305" on="1"/>
        <pt x="434" y="1305" on="1"/>
        <pt x="197" y="186" on="1"/>
        <pt x="616" y="186" on="1"/>
        <pt x="854" y="1305" on="1"/>
        <pt x="1061" y="1305" on="1"/>
        <pt x="823" y="186" on="1"/>
      </contour>
    </TTGlyph>
    <TTGlyph name="afii10041" xMin="63" yMin="0" xMax="1061" yMax="1305">
      <contour>
        <pt x="227" y="1305" on="1"/>
        <pt x="434" y="1305" on="1"/>
        <pt x="311" y="729" on="1"/>
        <pt x="289" y="621" on="0"/>
        <pt x="352" y="537" on="0"/>
        <pt x="430" y="537" on="1"/>
        <pt x="545" y="537" on="0"/>
        <pt x="731" y="723" on="0"/>
        <pt x="766" y="887" on="1"/>
        <pt x="854" y="1305" on="1"/>
        <pt x="1061" y="1305" on="1"/>
        <pt x="784" y="0" on="1"/>
        <pt x="578" y="0" on="1"/>
        <pt x="705" y="606" on="1"/>
        <pt x="649" y="485" on="0"/>
        <pt x="453" y="350" on="0"/>
        <pt x="330" y="350" on="1"/>
        <pt x="186" y="350" on="0"/>
        <pt x="63" y="537" on="0"/>
        <pt x="104" y="729" on="1"/>
      </contour>
    </TTGlyph>
    <TTGlyph name="afii10042" xMin="-119" yMin="0" xMax="1130" yMax="1305">
      <contour>
        <pt x="541" y="1305" on="1"/>
        <pt x="748" y="1305" on="1"/>
        <pt x="510" y="186" on="1"/>
        <pt x="686" y="186" on="1"/>
        <pt x="924" y="1305" on="1"/>
        <pt x="1130" y="1305" on="1"/>
        <pt x="854" y="0" on="1"/>
        <pt x="-119" y="0" on="1"/>
        <pt x="158" y="1305" on="1"/>
        <pt x="365" y="1305" on="1"/>
        <pt x="127" y="186" on="1"/>
        <pt x="303" y="186" on="1"/>
      </contour>
    </TTGlyph>
    <TTGlyph name="afii10043" xMin="-119" yMin="-319" xMax="1130" yMax="1305">
      <contour>
        <pt x="-119" y="0" on="1"/>
        <pt x="158" y="1305" on="1"/>
        <pt x="365" y="1305" on="1"/>
        <pt x="127" y="186" on="1"/>
        <pt x="303" y="186" on="1"/>
        <pt x="541" y="1305" on="1"/>
        <pt x="748" y="1305" on="1"/>
        <pt x="510" y="186" on="1"/>
        <pt x="686" y="186" on="1"/>
        <pt x="924" y="1305" on="1"/>
        <pt x="1130" y="1305" on="1"/>
        <pt x="893" y="186" on="1"/>
        <pt x="1059" y="186" on="1"/>
        <pt x="950" y="-319" on="1"/>
        <pt x="764" y="-319" on="1"/>
        <pt x="834" y="0" on="1"/>
      </contour>
    </TTGlyph>
    <TTGlyph name="afii10044" xMin="68" yMin="0" xMax="956" yMax="1305">
      <contour>
        <pt x="178" y="1305" on="1"/>
        <pt x="551" y="1305" on="1"/>
        <pt x="438" y="776" on="1"/>
        <pt x="596" y="776" on="1"/>
        <pt x="786" y="776" on="0"/>
        <pt x="956" y="586" on="0"/>
        <pt x="915" y="389" on="1"/>
        <pt x="874" y="197" on="0"/>
        <pt x="623" y="0" on="0"/>
        <pt x="430" y="0" on="1"/>
        <pt x="68" y="0" on="1"/>
        <pt x="305" y="1118" on="1"/>
        <pt x="139" y="1118" on="1"/>
      </contour>
      <contour>
        <pt x="709" y="387" on="1"/>
        <pt x="729" y="489" on="0"/>
        <pt x="647" y="590" on="0"/>
        <pt x="561" y="590" on="1"/>
        <pt x="399" y="590" on="1"/>
        <pt x="313" y="186" on="1"/>
        <pt x="475" y="186" on="1"/>
        <pt x="561" y="186" on="0"/>
        <pt x="686" y="287" on="0"/>
      </contour>
    </TTGlyph>
    <TTGlyph name="afii10045" xMin="-119" yMin="0" xMax="1130" yMax="1305">
      <contour>
        <pt x="616" y="389" on="1"/>
        <pt x="575" y="197" on="0"/>
        <pt x="326" y="0" on="0"/>
        <pt x="137" y="0" on="1"/>
        <pt x="-119" y="0" on="1"/>
        <pt x="158" y="1305" on="1"/>
        <pt x="365" y="1305" on="1"/>
        <pt x="252" y="776" on="1"/>
        <pt x="301" y="776" on="1"/>
        <pt x="489" y="776" on="0"/>
        <pt x="657" y="586" on="0"/>
      </contour>
      <contour>
        <pt x="410" y="387" on="1"/>
        <pt x="430" y="489" on="0"/>
        <pt x="350" y="590" on="0"/>
        <pt x="264" y="590" on="1"/>
        <pt x="213" y="590" on="1"/>
        <pt x="127" y="186" on="1"/>
        <pt x="178" y="186" on="1"/>
        <pt x="264" y="186" on="0"/>
        <pt x="387" y="287" on="0"/>
      </contour>
      <contour>
        <pt x="924" y="1305" on="1"/>
        <pt x="1130" y="1305" on="1"/>
        <pt x="854" y="0" on="1"/>
        <pt x="647" y="0" on="1"/>
      </contour>
    </TTGlyph>
    <TTGlyph name="afii10046" xMin="-49" yMin="0" xMax="956" yMax="1305">
      <contour>
        <pt x="915" y="389" on="1"/>
        <pt x="874" y="197" on="0"/>
        <pt x="596" y="0" on="0"/>
        <pt x="381" y="0" on="1"/>
        <pt x="-49" y="0" on="1"/>
        <pt x="227" y="1305" on="1"/>
        <pt x="434" y="1305" on="1"/>
        <pt x="322" y="776" on="1"/>
        <pt x="547" y="776" on="1"/>
        <pt x="760" y="776" on="0"/>
        <pt x="956" y="586" on="0"/>
      </contour>
      <contour>
        <pt x="709" y="387" on="1"/>
        <pt x="729" y="489" on="0"/>
        <pt x="621" y="590" on="0"/>
        <pt x="508" y="590" on="1"/>
        <pt x="283" y="590" on="1"/>
        <pt x="197" y="186" on="1"/>
        <pt x="422" y="186" on="1"/>
        <pt x="535" y="186" on="0"/>
        <pt x="686" y="287" on="0"/>
      </contour>
    </TTGlyph>
    <TTGlyph name="afii10047" xMin="-35" yMin="-23" xMax="1023" yMax="1327">
      <contour>
        <pt x="145" y="463" on="1"/>
        <pt x="156" y="327" on="0"/>
        <pt x="209" y="245" on="1"/>
        <pt x="259" y="164" on="0"/>
        <pt x="386" y="164" on="1"/>
        <pt x="464" y="164" on="0"/>
        <pt x="586" y="232" on="0"/>
        <pt x="678" y="345" on="0"/>
        <pt x="743" y="492" on="0"/>
        <pt x="765" y="571" on="1"/>
        <pt x="254" y="571" on="1"/>
        <pt x="294" y="758" on="1"/>
        <pt x="804" y="758" on="1"/>
        <pt x="813" y="833" on="0"/>
        <pt x="805" y="971" on="0"/>
        <pt x="760" y="1078" on="0"/>
        <pt x="668" y="1141" on="0"/>
        <pt x="594" y="1141" on="1"/>
        <pt x="525" y="1141" on="0"/>
        <pt x="414" y="1084" on="0"/>
        <pt x="371" y="1039" on="1"/>
        <pt x="329" y="996" on="0"/>
        <pt x="278" y="897" on="0"/>
        <pt x="271" y="861" on="1"/>
        <pt x="84" y="861" on="1"/>
        <pt x="178" y="1305" on="1"/>
        <pt x="365" y="1305" on="1"/>
        <pt x="332" y="1151" on="1"/>
        <pt x="353" y="1194" on="0"/>
        <pt x="424" y="1260" on="0"/>
        <pt x="510" y="1305" on="0"/>
        <pt x="603" y="1327" on="0"/>
        <pt x="646" y="1327" on="1"/>
        <pt x="734" y="1327" on="0"/>
        <pt x="864" y="1275" on="0"/>
        <pt x="953" y="1184" on="0"/>
        <pt x="1004" y="1058" on="0"/>
        <pt x="1023" y="908" on="0"/>
        <pt x="1010" y="740" on="0"/>
        <pt x="991" y="653" on="1"/>
        <pt x="963" y="522" on="0"/>
        <pt x="858" y="279" on="0"/>
        <pt x="699" y="90" on="0"/>
        <pt x="484" y="-23" on="0"/>
        <pt x="347" y="-23" on="1"/>
        <pt x="249" y="-23" on="0"/>
        <pt x="107" y="37" on="0"/>
        <pt x="16" y="147" on="0"/>
        <pt x="-31" y="303" on="0"/>
        <pt x="-35" y="399" on="1"/>
      </contour>
    </TTGlyph>
    <TTGlyph name="afii10048" xMin="-119" yMin="-23" xMax="1143" yMax="1327">
      <contour>
        <pt x="158" y="1305" on="1"/>
        <pt x="365" y="1305" on="1"/>
        <pt x="248" y="758" on="1"/>
        <pt x="414" y="758" on="1"/>
        <pt x="557" y="1327" on="0"/>
        <pt x="838" y="1327" on="1"/>
        <pt x="1143" y="1327" on="0"/>
        <pt x="999" y="651" on="1"/>
        <pt x="856" y="-23" on="0"/>
        <pt x="551" y="-23" on="1"/>
        <pt x="264" y="-23" on="0"/>
        <pt x="373" y="571" on="1"/>
        <pt x="209" y="571" on="1"/>
        <pt x="88" y="0" on="1"/>
        <pt x="-119" y="0" on="1"/>
      </contour>
      <contour>
        <pt x="596" y="651" on="1"/>
        <pt x="573" y="543" on="0"/>
        <pt x="543" y="362" on="0"/>
        <pt x="537" y="233" on="0"/>
        <pt x="561" y="164" on="0"/>
        <pt x="592" y="164" on="1"/>
        <pt x="621" y="164" on="0"/>
        <pt x="674" y="233" on="0"/>
        <pt x="723" y="362" on="0"/>
        <pt x="770" y="543" on="0"/>
        <pt x="793" y="651" on="1"/>
        <pt x="815" y="760" on="0"/>
        <pt x="846" y="940" on="0"/>
        <pt x="850" y="1069" on="0"/>
        <pt x="827" y="1141" on="0"/>
        <pt x="799" y="1141" on="1"/>
        <pt x="768" y="1141" on="0"/>
        <pt x="713" y="1069" on="0"/>
        <pt x="666" y="940" on="0"/>
        <pt x="618" y="760" on="0"/>
      </contour>
    </TTGlyph>
    <TTGlyph name="afii10049" xMin="-117" yMin="0" xMax="1061" yMax="1305">
      <contour>
        <pt x="369" y="539" on="1"/>
        <pt x="295" y="549" on="0"/>
        <pt x="178" y="604" on="0"/>
        <pt x="102" y="698" on="0"/>
        <pt x="78" y="829" on="0"/>
        <pt x="96" y="915" on="1"/>
        <pt x="135" y="1108" on="0"/>
        <pt x="416" y="1305" on="0"/>
        <pt x="631" y="1305" on="1"/>
        <pt x="1061" y="1305" on="1"/>
        <pt x="784" y="0" on="1"/>
        <pt x="578" y="0" on="1"/>
        <pt x="688" y="528" on="1"/>
        <pt x="594" y="528" on="1"/>
        <pt x="145" y="0" on="1"/>
        <pt x="-117" y="0" on="1"/>
      </contour>
      <contour>
        <pt x="303" y="918" on="1"/>
        <pt x="281" y="815" on="0"/>
        <pt x="391" y="715" on="0"/>
        <pt x="506" y="715" on="1"/>
        <pt x="729" y="715" on="1"/>
        <pt x="815" y="1118" on="1"/>
        <pt x="592" y="1118" on="1"/>
        <pt x="477" y="1118" on="0"/>
        <pt x="324" y="1018" on="0"/>
      </contour>
    </TTGlyph>
    <TTGlyph name="afii10050" xMin="-49" yMin="0" xMax="1149" yMax="1491">
      <contour>
        <pt x="963" y="1491" on="1"/>
        <pt x="1149" y="1491" on="1"/>
        <pt x="1071" y="1118" on="1"/>
        <pt x="395" y="1118" on="1"/>
        <pt x="158" y="0" on="1"/>
        <pt x="-49" y="0" on="1"/>
        <pt x="227" y="1305" on="1"/>
        <pt x="924" y="1305" on="1"/>
      </contour>
    </TTGlyph>
    <TTGlyph name="afii10051" xMin="-49" yMin="-23" xMax="946" yMax="1305">
      <contour>
        <pt x="41" y="1305" on="1"/>
        <pt x="621" y="1305" on="1"/>
        <pt x="582" y="1118" on="1"/>
        <pt x="395" y="1118" on="1"/>
        <pt x="305" y="698" on="1"/>
        <pt x="362" y="819" on="0"/>
        <pt x="559" y="954" on="0"/>
        <pt x="682" y="954" on="1"/>
        <pt x="825" y="954" on="0"/>
        <pt x="946" y="768" on="0"/>
        <pt x="905" y="575" on="1"/>
        <pt x="842" y="276" on="1"/>
        <pt x="825" y="195" on="0"/>
        <pt x="754" y="80" on="0"/>
        <pt x="659" y="10" on="0"/>
        <pt x="545" y="-23" on="0"/>
        <pt x="483" y="-23" on="1"/>
        <pt x="399" y="-23" on="0"/>
        <pt x="367" y="2" on="1"/>
        <pt x="430" y="180" on="1"/>
        <pt x="442" y="172" on="0"/>
        <pt x="477" y="164" on="0"/>
        <pt x="506" y="164" on="1"/>
        <pt x="612" y="164" on="0"/>
        <pt x="635" y="276" on="1"/>
        <pt x="698" y="575" on="1"/>
        <pt x="721" y="684" on="0"/>
        <pt x="657" y="768" on="0"/>
        <pt x="580" y="768" on="1"/>
        <pt x="465" y="768" on="0"/>
        <pt x="281" y="582" on="0"/>
        <pt x="246" y="418" on="1"/>
        <pt x="158" y="0" on="1"/>
        <pt x="-49" y="0" on="1"/>
        <pt x="188" y="1118" on="1"/>
        <pt x="2" y="1118" on="1"/>
      </contour>
    </TTGlyph>
    <TTGlyph name="afii10052" xMin="-49" yMin="0" xMax="1061" yMax="1778">
      <component glyphName="afii10020" x="0" y="0" flags="0x204"/>
      <component glyphName="acute" x="80" y="373" flags="0x4"/>
    </TTGlyph>
    <TTGlyph name="afii10053" xMin="-10" yMin="-23" xMax="1109" yMax="1327">
      <contour>
        <pt x="936" y="399" on="1"/>
        <pt x="892" y="303" on="0"/>
        <pt x="779" y="147" on="0"/>
        <pt x="640" y="37" on="0"/>
        <pt x="474" y="-23" on="0"/>
        <pt x="376" y="-23" on="1"/>
        <pt x="239" y="-23" on="0"/>
        <pt x="72" y="90" on="0"/>
        <pt x="-7" y="279" on="0"/>
        <pt x="-10" y="522" on="0"/>
        <pt x="18" y="653" on="1"/>
        <pt x="37" y="740" on="0"/>
        <pt x="96" y="908" on="0"/>
        <pt x="177" y="1058" on="0"/>
        <pt x="282" y="1184" on="0"/>
        <pt x="411" y="1275" on="0"/>
        <pt x="563" y="1327" on="0"/>
        <pt x="651" y="1327" on="1"/>
        <pt x="694" y="1327" on="0"/>
        <pt x="777" y="1305" on="0"/>
        <pt x="843" y="1260" on="0"/>
        <pt x="886" y="1194" on="0"/>
        <pt x="889" y="1151" on="1"/>
        <pt x="922" y="1305" on="1"/>
        <pt x="1109" y="1305" on="1"/>
        <pt x="1015" y="861" on="1"/>
        <pt x="828" y="861" on="1"/>
        <pt x="835" y="897" on="0"/>
        <pt x="826" y="996" on="0"/>
        <pt x="802" y="1039" on="1"/>
        <pt x="779" y="1084" on="0"/>
        <pt x="692" y="1141" on="0"/>
        <pt x="623" y="1141" on="1"/>
        <pt x="549" y="1141" on="0"/>
        <pt x="431" y="1078" on="0"/>
        <pt x="340" y="971" on="0"/>
        <pt x="274" y="833" on="0"/>
        <pt x="251" y="758" on="1"/>
        <pt x="761" y="758" on="1"/>
        <pt x="721" y="571" on="1"/>
        <pt x="210" y="571" on="1"/>
        <pt x="198" y="492" on="0"/>
        <pt x="201" y="345" on="0"/>
        <pt x="245" y="232" on="0"/>
        <pt x="337" y="164" on="0"/>
        <pt x="415" y="164" on="1"/>
        <pt x="542" y="164" on="0"/>
        <pt x="628" y="245" on="1"/>
        <pt x="715" y="327" on="0"/>
        <pt x="784" y="463" on="1"/>
      </contour>
    </TTGlyph>
    <TTGlyph name="afii10054" xMin="-72" yMin="-23" xMax="1047" yMax="1327">
      <contour>
        <pt x="877" y="358" on="1"/>
        <pt x="856" y="268" on="0"/>
        <pt x="766" y="127" on="0"/>
        <pt x="639" y="29" on="0"/>
        <pt x="483" y="-23" on="0"/>
        <pt x="401" y="-23" on="1"/>
        <pt x="309" y="-23" on="0"/>
        <pt x="176" y="43" on="0"/>
        <pt x="139" y="119" on="1"/>
        <pt x="115" y="0" on="1"/>
        <pt x="-72" y="0" on="1"/>
        <pt x="18" y="426" on="1"/>
        <pt x="205" y="426" on="1"/>
        <pt x="190" y="362" on="0"/>
        <pt x="215" y="264" on="0"/>
        <pt x="274" y="197" on="0"/>
        <pt x="365" y="162" on="0"/>
        <pt x="420" y="162" on="1"/>
        <pt x="512" y="162" on="0"/>
        <pt x="645" y="248" on="0"/>
        <pt x="666" y="342" on="1"/>
        <pt x="676" y="391" on="0"/>
        <pt x="655" y="461" on="0"/>
        <pt x="602" y="516" on="0"/>
        <pt x="516" y="557" on="0"/>
        <pt x="463" y="580" on="1"/>
        <pt x="395" y="604" on="0"/>
        <pt x="266" y="664" on="0"/>
        <pt x="174" y="752" on="0"/>
        <pt x="131" y="881" on="0"/>
        <pt x="152" y="979" on="1"/>
        <pt x="170" y="1065" on="0"/>
        <pt x="260" y="1194" on="0"/>
        <pt x="385" y="1282" on="0"/>
        <pt x="532" y="1327" on="0"/>
        <pt x="610" y="1327" on="1"/>
        <pt x="700" y="1327" on="0"/>
        <pt x="813" y="1251" on="0"/>
        <pt x="836" y="1188" on="1"/>
        <pt x="860" y="1305" on="1"/>
        <pt x="1047" y="1305" on="1"/>
        <pt x="961" y="899" on="1"/>
        <pt x="774" y="899" on="1"/>
        <pt x="799" y="1014" on="0"/>
        <pt x="705" y="1143" on="0"/>
        <pt x="602" y="1143" on="1"/>
        <pt x="512" y="1143" on="0"/>
        <pt x="375" y="1059" on="0"/>
        <pt x="360" y="983" on="1"/>
        <pt x="350" y="944" on="0"/>
        <pt x="371" y="889" on="0"/>
        <pt x="420" y="844" on="0"/>
        <pt x="502" y="805" on="0"/>
        <pt x="557" y="782" on="1"/>
        <pt x="625" y="756" on="0"/>
        <pt x="756" y="690" on="0"/>
        <pt x="852" y="594" on="0"/>
        <pt x="897" y="457" on="0"/>
      </contour>
    </TTGlyph>
    <TTGlyph name="afii10055" xMin="57" yMin="0" xMax="961" yMax="1305">
      <contour>
        <pt x="684" y="0" on="1"/>
        <pt x="57" y="0" on="1"/>
        <pt x="96" y="186" on="1"/>
        <pt x="303" y="186" on="1"/>
        <pt x="502" y="1118" on="1"/>
        <pt x="295" y="1118" on="1"/>
        <pt x="334" y="1305" on="1"/>
        <pt x="961" y="1305" on="1"/>
        <pt x="922" y="1118" on="1"/>
        <pt x="709" y="1118" on="1"/>
        <pt x="510" y="186" on="1"/>
        <pt x="723" y="186" on="1"/>
      </contour>
    </TTGlyph>
    <TTGlyph name="afii10056" xMin="57" yMin="0" xMax="1036" yMax="1676">
      <component glyphName="I" x="0" y="0" flags="0x204"/>
      <component glyphName="dieresis" x="80" y="371" flags="0x4"/>
    </TTGlyph>
    <TTGlyph name="afii10057" xMin="-29" yMin="-23" xMax="1061" yMax="1305">
      <contour>
        <pt x="889" y="498" on="1"/>
        <pt x="836" y="250" on="0"/>
        <pt x="567" y="-23" on="0"/>
        <pt x="350" y="-23" on="1"/>
        <pt x="176" y="-23" on="0"/>
        <pt x="-20" y="160" on="0"/>
        <pt x="-29" y="342" on="1"/>
        <pt x="172" y="412" on="1"/>
        <pt x="176" y="295" on="0"/>
        <pt x="281" y="164" on="0"/>
        <pt x="391" y="164" on="1"/>
        <pt x="459" y="164" on="0"/>
        <pt x="555" y="219" on="0"/>
        <pt x="625" y="311" on="0"/>
        <pt x="668" y="432" on="0"/>
        <pt x="682" y="498" on="1"/>
        <pt x="854" y="1305" on="1"/>
        <pt x="1061" y="1305" on="1"/>
      </contour>
    </TTGlyph>
    <TTGlyph name="afii10058" xMin="-281" yMin="-23" xMax="1051" yMax="1305">
      <contour>
        <pt x="803" y="387" on="1"/>
        <pt x="823" y="489" on="0"/>
        <pt x="743" y="590" on="0"/>
        <pt x="657" y="590" on="1"/>
        <pt x="606" y="590" on="1"/>
        <pt x="520" y="186" on="1"/>
        <pt x="571" y="186" on="1"/>
        <pt x="657" y="186" on="0"/>
        <pt x="780" y="287" on="0"/>
      </contour>
      <contour>
        <pt x="645" y="776" on="1"/>
        <pt x="694" y="776" on="1"/>
        <pt x="883" y="776" on="0"/>
        <pt x="1051" y="586" on="0"/>
        <pt x="1010" y="389" on="1"/>
        <pt x="969" y="197" on="0"/>
        <pt x="719" y="0" on="0"/>
        <pt x="530" y="0" on="1"/>
        <pt x="274" y="0" on="1"/>
        <pt x="512" y="1118" on="1"/>
        <pt x="346" y="1118" on="1"/>
        <pt x="166" y="276" on="1"/>
        <pt x="150" y="195" on="0"/>
        <pt x="82" y="80" on="0"/>
        <pt x="-4" y="10" on="0"/>
        <pt x="-104" y="-23" on="0"/>
        <pt x="-156" y="-23" on="1"/>
        <pt x="-205" y="-23" on="0"/>
        <pt x="-260" y="-8" on="0"/>
        <pt x="-281" y="2" on="1"/>
        <pt x="-213" y="172" on="1"/>
        <pt x="-203" y="168" on="0"/>
        <pt x="-172" y="164" on="0"/>
        <pt x="-160" y="164" on="1"/>
        <pt x="-63" y="164" on="0"/>
        <pt x="-41" y="276" on="1"/>
        <pt x="178" y="1305" on="1"/>
        <pt x="758" y="1305" on="1"/>
      </contour>
    </TTGlyph>
    <TTGlyph name="afii10059" xMin="-98" yMin="0" xMax="1051" yMax="1305">
      <contour>
        <pt x="-98" y="0" on="1"/>
        <pt x="178" y="1305" on="1"/>
        <pt x="385" y="1305" on="1"/>
        <pt x="272" y="776" on="1"/>
        <pt x="438" y="776" on="1"/>
        <pt x="551" y="1305" on="1"/>
        <pt x="758" y="1305" on="1"/>
        <pt x="645" y="776" on="1"/>
        <pt x="694" y="776" on="1"/>
        <pt x="883" y="776" on="0"/>
        <pt x="1051" y="586" on="0"/>
        <pt x="1010" y="389" on="1"/>
        <pt x="969" y="197" on="0"/>
        <pt x="719" y="0" on="0"/>
        <pt x="530" y="0" on="1"/>
        <pt x="274" y="0" on="1"/>
        <pt x="399" y="590" on="1"/>
        <pt x="233" y="590" on="1"/>
        <pt x="109" y="0" on="1"/>
      </contour>
      <contour>
        <pt x="803" y="387" on="1"/>
        <pt x="823" y="489" on="0"/>
        <pt x="743" y="590" on="0"/>
        <pt x="657" y="590" on="1"/>
        <pt x="606" y="590" on="1"/>
        <pt x="520" y="186" on="1"/>
        <pt x="571" y="186" on="1"/>
        <pt x="657" y="186" on="0"/>
        <pt x="780" y="287" on="0"/>
      </contour>
    </TTGlyph>
    <TTGlyph name="afii10060" xMin="-49" yMin="0" xMax="946" yMax="1305">
      <contour>
        <pt x="41" y="1305" on="1"/>
        <pt x="621" y="1305" on="1"/>
        <pt x="582" y="1118" on="1"/>
        <pt x="395" y="1118" on="1"/>
        <pt x="305" y="698" on="1"/>
        <pt x="362" y="819" on="0"/>
        <pt x="559" y="954" on="0"/>
        <pt x="682" y="954" on="1"/>
        <pt x="825" y="954" on="0"/>
        <pt x="946" y="768" on="0"/>
        <pt x="905" y="575" on="1"/>
        <pt x="784" y="0" on="1"/>
        <pt x="578" y="0" on="1"/>
        <pt x="698" y="575" on="1"/>
        <pt x="721" y="684" on="0"/>
        <pt x="657" y="768" on="0"/>
        <pt x="580" y="768" on="1"/>
        <pt x="465" y="768" on="0"/>
        <pt x="281" y="582" on="0"/>
        <pt x="246" y="418" on="1"/>
        <pt x="158" y="0" on="1"/>
        <pt x="-49" y="0" on="1"/>
        <pt x="188" y="1118" on="1"/>
        <pt x="2" y="1118" on="1"/>
      </contour>
    </TTGlyph>
    <TTGlyph name="afii10061" xMin="-49" yMin="0" xMax="1106" yMax="1778">
      <component glyphName="afii10028" x="0" y="0" flags="0x204"/>
      <component glyphName="acute" x="80" y="373" flags="0x4"/>
    </TTGlyph>
    <TTGlyph name="afii10062" xMin="-96" yMin="-23" xMax="1102" yMax="1659">
      <component glyphName="afii10037" x="0" y="0" flags="0x204"/>
      <component glyphName="breve" x="80" y="373" flags="0x4"/>
    </TTGlyph>
    <TTGlyph name="afii10065" xMin="-61" yMin="-23" xMax="934" yMax="954">
      <contour>
        <pt x="-47" y="268" on="1"/>
        <pt x="-29" y="350" on="0"/>
        <pt x="86" y="473" on="0"/>
        <pt x="246" y="555" on="0"/>
        <pt x="438" y="596" on="0"/>
        <pt x="535" y="596" on="1"/>
        <pt x="588" y="596" on="0"/>
        <pt x="664" y="592" on="0"/>
        <pt x="702" y="588" on="1"/>
        <pt x="709" y="625" on="1"/>
        <pt x="725" y="698" on="0"/>
        <pt x="627" y="770" on="0"/>
        <pt x="535" y="770" on="1"/>
        <pt x="451" y="770" on="0"/>
        <pt x="268" y="723" on="0"/>
        <pt x="180" y="678" on="1"/>
        <pt x="131" y="840" on="1"/>
        <pt x="233" y="893" on="0"/>
        <pt x="459" y="954" on="0"/>
        <pt x="575" y="954" on="1"/>
        <pt x="651" y="954" on="0"/>
        <pt x="791" y="920" on="0"/>
        <pt x="891" y="842" on="0"/>
        <pt x="934" y="717" on="0"/>
        <pt x="913" y="625" on="1"/>
        <pt x="782" y="0" on="1"/>
        <pt x="578" y="0" on="1"/>
        <pt x="606" y="137" on="1"/>
        <pt x="541" y="61" on="0"/>
        <pt x="332" y="-23" on="0"/>
        <pt x="221" y="-23" on="1"/>
        <pt x="154" y="-23" on="0"/>
        <pt x="41" y="14" on="0"/>
        <pt x="-31" y="88" on="0"/>
        <pt x="-61" y="197" on="0"/>
      </contour>
      <contour>
        <pt x="313" y="162" on="1"/>
        <pt x="375" y="162" on="0"/>
        <pt x="487" y="193" on="0"/>
        <pt x="582" y="248" on="0"/>
        <pt x="645" y="326" on="0"/>
        <pt x="655" y="373" on="1"/>
        <pt x="664" y="408" on="1"/>
        <pt x="616" y="416" on="0"/>
        <pt x="530" y="418" on="0"/>
        <pt x="498" y="418" on="1"/>
        <pt x="346" y="418" on="0"/>
        <pt x="174" y="338" on="0"/>
        <pt x="160" y="279" on="1"/>
        <pt x="135" y="162" on="0"/>
      </contour>
    </TTGlyph>
    <TTGlyph name="afii10066" xMin="-35" yMin="-23" xMax="1051" yMax="1327">
      <contour>
        <pt x="215" y="444" on="1"/>
        <pt x="186" y="317" on="0"/>
        <pt x="291" y="164" on="0"/>
        <pt x="408" y="164" on="1"/>
        <pt x="518" y="164" on="0"/>
        <pt x="692" y="317" on="0"/>
        <pt x="721" y="444" on="1"/>
        <pt x="748" y="573" on="0"/>
        <pt x="645" y="725" on="0"/>
        <pt x="526" y="725" on="1"/>
        <pt x="399" y="725" on="0"/>
        <pt x="242" y="573" on="0"/>
      </contour>
      <contour>
        <pt x="39" y="651" on="1"/>
        <pt x="72" y="801" on="0"/>
        <pt x="186" y="1049" on="0"/>
        <pt x="340" y="1227" on="0"/>
        <pt x="518" y="1327" on="0"/>
        <pt x="614" y="1327" on="1"/>
        <pt x="662" y="1327" on="0"/>
        <pt x="719" y="1309" on="0"/>
        <pt x="764" y="1284" on="0"/>
        <pt x="803" y="1266" on="0"/>
        <pt x="834" y="1266" on="1"/>
        <pt x="874" y="1266" on="0"/>
        <pt x="938" y="1294" on="0"/>
        <pt x="985" y="1327" on="1"/>
        <pt x="1051" y="1190" on="1"/>
        <pt x="1004" y="1145" on="0"/>
        <pt x="866" y="1079" on="0"/>
        <pt x="795" y="1079" on="1"/>
        <pt x="748" y="1079" on="0"/>
        <pt x="692" y="1098" on="0"/>
        <pt x="651" y="1122" on="0"/>
        <pt x="610" y="1141" on="0"/>
        <pt x="575" y="1141" on="1"/>
        <pt x="528" y="1141" on="0"/>
        <pt x="438" y="1094" on="0"/>
        <pt x="356" y="993" on="0"/>
        <pt x="287" y="836" on="0"/>
        <pt x="264" y="723" on="1"/>
        <pt x="322" y="815" on="0"/>
        <pt x="483" y="911" on="0"/>
        <pt x="567" y="911" on="1"/>
        <pt x="666" y="911" on="0"/>
        <pt x="821" y="852" on="0"/>
        <pt x="920" y="735" on="0"/>
        <pt x="952" y="561" on="0"/>
        <pt x="928" y="444" on="1"/>
        <pt x="905" y="346" on="0"/>
        <pt x="801" y="174" on="0"/>
        <pt x="651" y="49" on="0"/>
        <pt x="467" y="-23" on="0"/>
        <pt x="369" y="-23" on="1"/>
        <pt x="133" y="-23" on="0"/>
        <pt x="-35" y="305" on="0"/>
      </contour>
    </TTGlyph>
    <TTGlyph name="afii10067" xMin="-49" yMin="0" xMax="948" yMax="932">
      <contour>
        <pt x="885" y="256" on="1"/>
        <pt x="858" y="129" on="0"/>
        <pt x="645" y="0" on="0"/>
        <pt x="471" y="0" on="1"/>
        <pt x="-49" y="0" on="1"/>
        <pt x="147" y="932" on="1"/>
        <pt x="631" y="932" on="1"/>
        <pt x="694" y="932" on="0"/>
        <pt x="817" y="913" on="0"/>
        <pt x="907" y="860" on="0"/>
        <pt x="948" y="764" on="0"/>
        <pt x="932" y="688" on="1"/>
        <pt x="918" y="618" on="0"/>
        <pt x="805" y="506" on="0"/>
        <pt x="707" y="479" on="1"/>
        <pt x="819" y="463" on="0"/>
        <pt x="905" y="348" on="0"/>
      </contour>
      <contour>
        <pt x="721" y="664" on="1"/>
        <pt x="729" y="694" on="0"/>
        <pt x="711" y="731" on="0"/>
        <pt x="676" y="752" on="0"/>
        <pt x="623" y="758" on="0"/>
        <pt x="596" y="758" on="1"/>
        <pt x="317" y="758" on="1"/>
        <pt x="279" y="571" on="1"/>
        <pt x="557" y="571" on="1"/>
        <pt x="584" y="571" on="0"/>
        <pt x="637" y="578" on="0"/>
        <pt x="684" y="598" on="0"/>
        <pt x="715" y="635" on="0"/>
      </contour>
      <contour>
        <pt x="686" y="287" on="1"/>
        <pt x="696" y="336" on="0"/>
        <pt x="625" y="385" on="0"/>
        <pt x="551" y="385" on="1"/>
        <pt x="238" y="385" on="1"/>
        <pt x="197" y="186" on="1"/>
        <pt x="510" y="186" on="1"/>
        <pt x="584" y="186" on="0"/>
        <pt x="676" y="236" on="0"/>
      </contour>
    </TTGlyph>
    <TTGlyph name="afii10068" xMin="-49" yMin="0" xMax="1030" yMax="932">
      <contour>
        <pt x="147" y="932" on="1"/>
        <pt x="1030" y="932" on="1"/>
        <pt x="993" y="758" on="1"/>
        <pt x="317" y="758" on="1"/>
        <pt x="158" y="0" on="1"/>
        <pt x="-49" y="0" on="1"/>
      </contour>
    </TTGlyph>
    <TTGlyph name="afii10069" xMin="-166" yMin="-319" xMax="879" yMax="932">
      <contour>
        <pt x="-59" y="186" on="1"/>
        <pt x="4" y="217" on="0"/>
        <pt x="92" y="297" on="0"/>
        <pt x="160" y="420" on="0"/>
        <pt x="213" y="596" on="0"/>
        <pt x="240" y="719" on="1"/>
        <pt x="285" y="932" on="1"/>
        <pt x="879" y="932" on="1"/>
        <pt x="721" y="186" on="1"/>
        <pt x="872" y="186" on="1"/>
        <pt x="764" y="-319" on="1"/>
        <pt x="578" y="-319" on="1"/>
        <pt x="647" y="0" on="1"/>
        <pt x="88" y="0" on="1"/>
        <pt x="18" y="-319" on="1"/>
        <pt x="-166" y="-319" on="1"/>
      </contour>
      <contour>
        <pt x="438" y="678" on="1"/>
        <pt x="426" y="621" on="0"/>
        <pt x="387" y="477" on="0"/>
        <pt x="328" y="338" on="0"/>
        <pt x="238" y="219" on="0"/>
        <pt x="174" y="186" on="1"/>
        <pt x="514" y="186" on="1"/>
        <pt x="635" y="758" on="1"/>
        <pt x="455" y="758" on="1"/>
      </contour>
    </TTGlyph>
    <TTGlyph name="afii10070" xMin="-45" yMin="-23" xMax="981" yMax="954">
      <contour>
        <pt x="174" y="387" on="1"/>
        <pt x="168" y="291" on="0"/>
        <pt x="295" y="164" on="0"/>
        <pt x="424" y="164" on="1"/>
        <pt x="524" y="164" on="0"/>
        <pt x="686" y="227" on="0"/>
        <pt x="750" y="279" on="1"/>
        <pt x="825" y="133" on="1"/>
        <pt x="717" y="43" on="0"/>
        <pt x="502" y="-23" on="0"/>
        <pt x="383" y="-23" on="1"/>
        <pt x="274" y="-23" on="0"/>
        <pt x="104" y="49" on="0"/>
        <pt x="-4" y="178" on="0"/>
        <pt x="-45" y="356" on="0"/>
        <pt x="-20" y="465" on="1"/>
        <pt x="2" y="571" on="0"/>
        <pt x="111" y="750" on="0"/>
        <pt x="268" y="881" on="0"/>
        <pt x="465" y="954" on="0"/>
        <pt x="573" y="954" on="1"/>
        <pt x="686" y="954" on="0"/>
        <pt x="852" y="877" on="0"/>
        <pt x="952" y="731" on="0"/>
        <pt x="981" y="520" on="0"/>
        <pt x="954" y="387" on="1"/>
      </contour>
      <contour>
        <pt x="760" y="569" on="1"/>
        <pt x="762" y="659" on="0"/>
        <pt x="631" y="768" on="0"/>
        <pt x="532" y="768" on="1"/>
        <pt x="434" y="768" on="0"/>
        <pt x="256" y="659" on="0"/>
        <pt x="221" y="569" on="1"/>
      </contour>
    </TTGlyph>
    <TTGlyph name="afii10071" xMin="-45" yMin="-23" xMax="981" yMax="1305">
      <component glyphName="afii10070" x="0" y="0" flags="0x204"/>
      <component glyphName="dieresis" x="0" y="0" flags="0x4"/>
    </TTGlyph>
    <TTGlyph name="afii10072" xMin="-207" yMin="0" xMax="1139" yMax="932">
      <contour>
        <pt x="264" y="0" on="1"/>
        <pt x="336" y="342" on="1"/>
        <pt x="309" y="385" on="1"/>
        <pt x="14" y="0" on="1"/>
        <pt x="-207" y="0" on="1"/>
        <pt x="213" y="524" on="1"/>
        <pt x="-10" y="932" on="1"/>
        <pt x="217" y="932" on="1"/>
        <pt x="387" y="584" on="1"/>
        <pt x="461" y="932" on="1"/>
        <pt x="668" y="932" on="1"/>
        <pt x="594" y="584" on="1"/>
        <pt x="922" y="932" on="1"/>
        <pt x="1139" y="932" on="1"/>
        <pt x="743" y="524" on="1"/>
        <pt x="942" y="0" on="1"/>
        <pt x="731" y="0" on="1"/>
        <pt x="586" y="385" on="1"/>
        <pt x="543" y="342" on="1"/>
        <pt x="471" y="0" on="1"/>
      </contour>
    </TTGlyph>
    <TTGlyph name="afii10073" xMin="-63" yMin="-23" xMax="950" yMax="954">
      <contour>
        <pt x="938" y="676" on="1"/>
        <pt x="924" y="608" on="0"/>
        <pt x="793" y="489" on="0"/>
        <pt x="692" y="473" on="1"/>
        <pt x="780" y="455" on="0"/>
        <pt x="866" y="336" on="0"/>
        <pt x="852" y="264" on="1"/>
        <pt x="838" y="197" on="0"/>
        <pt x="743" y="90" on="0"/>
        <pt x="602" y="16" on="0"/>
        <pt x="424" y="-23" on="0"/>
        <pt x="324" y="-23" on="1"/>
        <pt x="164" y="-23" on="0"/>
        <pt x="-23" y="76" on="0"/>
        <pt x="-63" y="176" on="1"/>
        <pt x="121" y="285" on="1"/>
        <pt x="139" y="231" on="0"/>
        <pt x="270" y="164" on="0"/>
        <pt x="369" y="164" on="1"/>
        <pt x="483" y="164" on="0"/>
        <pt x="637" y="227" on="0"/>
        <pt x="649" y="281" on="1"/>
        <pt x="657" y="319" on="0"/>
        <pt x="565" y="385" on="0"/>
        <pt x="461" y="385" on="1"/>
        <pt x="312" y="385" on="1"/>
        <pt x="353" y="571" on="1"/>
        <pt x="500" y="571" on="1"/>
        <pt x="604" y="571" on="0"/>
        <pt x="719" y="625" on="0"/>
        <pt x="727" y="659" on="1"/>
        <pt x="737" y="709" on="0"/>
        <pt x="616" y="768" on="0"/>
        <pt x="506" y="768" on="1"/>
        <pt x="315" y="768" on="0"/>
        <pt x="215" y="649" on="1"/>
        <pt x="86" y="754" on="1"/>
        <pt x="168" y="854" on="0"/>
        <pt x="391" y="954" on="0"/>
        <pt x="545" y="954" on="1"/>
        <pt x="641" y="954" on="0"/>
        <pt x="799" y="915" on="0"/>
        <pt x="903" y="844" on="0"/>
        <pt x="950" y="739" on="0"/>
      </contour>
    </TTGlyph>
    <TTGlyph name="afii10074" xMin="-49" yMin="0" xMax="981" yMax="932">
      <contour>
        <pt x="147" y="932" on="1"/>
        <pt x="354" y="932" on="1"/>
        <pt x="219" y="291" on="1"/>
        <pt x="721" y="932" on="1"/>
        <pt x="981" y="932" on="1"/>
        <pt x="784" y="0" on="1"/>
        <pt x="578" y="0" on="1"/>
        <pt x="721" y="678" on="1"/>
        <pt x="190" y="0" on="1"/>
        <pt x="-49" y="0" on="1"/>
      </contour>
    </TTGlyph>
    <TTGlyph name="afii10075" xMin="-49" yMin="0" xMax="981" yMax="1286">
      <component glyphName="afii10074" x="0" y="0" flags="0x204"/>
      <component glyphName="breve" x="0" y="0" flags="0x4"/>
    </TTGlyph>
    <TTGlyph name="afii10076" xMin="-49" yMin="0" xMax="1012" yMax="932">
      <contour>
        <pt x="831" y="0" on="1"/>
        <pt x="563" y="0" on="1"/>
        <pt x="332" y="377" on="1"/>
        <pt x="217" y="281" on="1"/>
        <pt x="158" y="0" on="1"/>
        <pt x="-49" y="0" on="1"/>
        <pt x="147" y="932" on="1"/>
        <pt x="354" y="932" on="1"/>
        <pt x="270" y="537" on="1"/>
        <pt x="727" y="932" on="1"/>
        <pt x="1012" y="932" on="1"/>
        <pt x="492" y="504" on="1"/>
      </contour>
    </TTGlyph>
    <TTGlyph name="afii10077" xMin="-190" yMin="-23" xMax="981" yMax="932">
      <contour>
        <pt x="981" y="932" on="1"/>
        <pt x="784" y="0" on="1"/>
        <pt x="578" y="0" on="1"/>
        <pt x="735" y="745" on="1"/>
        <pt x="383" y="745" on="1"/>
        <pt x="283" y="276" on="1"/>
        <pt x="266" y="195" on="0"/>
        <pt x="195" y="80" on="0"/>
        <pt x="100" y="10" on="0"/>
        <pt x="-14" y="-23" on="0"/>
        <pt x="-76" y="-23" on="1"/>
        <pt x="-158" y="-23" on="0"/>
        <pt x="-190" y="2" on="1"/>
        <pt x="-127" y="180" on="1"/>
        <pt x="-115" y="172" on="0"/>
        <pt x="-82" y="164" on="0"/>
        <pt x="-53" y="164" on="1"/>
        <pt x="53" y="164" on="0"/>
        <pt x="76" y="276" on="1"/>
        <pt x="215" y="932" on="1"/>
      </contour>
    </TTGlyph>
    <TTGlyph name="afii10078" xMin="-49" yMin="0" xMax="981" yMax="932">
      <contour>
        <pt x="784" y="0" on="1"/>
        <pt x="578" y="0" on="1"/>
        <pt x="711" y="631" on="1"/>
        <pt x="508" y="295" on="1"/>
        <pt x="348" y="295" on="1"/>
        <pt x="291" y="631" on="1"/>
        <pt x="158" y="0" on="1"/>
        <pt x="-49" y="0" on="1"/>
        <pt x="147" y="932" on="1"/>
        <pt x="393" y="932" on="1"/>
        <pt x="473" y="510" on="1"/>
        <pt x="733" y="932" on="1"/>
        <pt x="981" y="932" on="1"/>
      </contour>
    </TTGlyph>
    <TTGlyph name="afii10079" xMin="-49" yMin="0" xMax="981" yMax="932">
      <contour>
        <pt x="784" y="0" on="1"/>
        <pt x="578" y="0" on="1"/>
        <pt x="657" y="385" on="1"/>
        <pt x="238" y="385" on="1"/>
        <pt x="158" y="0" on="1"/>
        <pt x="-49" y="0" on="1"/>
        <pt x="147" y="932" on="1"/>
        <pt x="354" y="932" on="1"/>
        <pt x="279" y="571" on="1"/>
        <pt x="698" y="571" on="1"/>
        <pt x="774" y="932" on="1"/>
        <pt x="981" y="932" on="1"/>
      </contour>
    </TTGlyph>
    <TTGlyph name="afii10080" xMin="-45" yMin="-23" xMax="979" yMax="954">
      <contour>
        <pt x="956" y="465" on="1"/>
        <pt x="932" y="356" on="0"/>
        <pt x="825" y="178" on="0"/>
        <pt x="670" y="49" on="0"/>
        <pt x="473" y="-23" on="0"/>
        <pt x="362" y="-23" on="1"/>
        <pt x="254" y="-23" on="0"/>
        <pt x="90" y="49" on="0"/>
        <pt x="-12" y="178" on="0"/>
        <pt x="-45" y="356" on="0"/>
        <pt x="-20" y="465" on="1"/>
        <pt x="2" y="571" on="0"/>
        <pt x="111" y="752" on="0"/>
        <pt x="266" y="883" on="0"/>
        <pt x="463" y="954" on="0"/>
        <pt x="571" y="954" on="1"/>
        <pt x="682" y="954" on="0"/>
        <pt x="846" y="883" on="0"/>
        <pt x="948" y="752" on="0"/>
        <pt x="979" y="571" on="0"/>
      </contour>
      <contour>
        <pt x="750" y="465" on="1"/>
        <pt x="762" y="528" on="0"/>
        <pt x="748" y="641" on="0"/>
        <pt x="690" y="721" on="0"/>
        <pt x="596" y="768" on="0"/>
        <pt x="530" y="768" on="1"/>
        <pt x="465" y="768" on="0"/>
        <pt x="350" y="721" on="0"/>
        <pt x="262" y="641" on="0"/>
        <pt x="199" y="528" on="0"/>
        <pt x="186" y="465" on="1"/>
        <pt x="172" y="399" on="0"/>
        <pt x="188" y="291" on="0"/>
        <pt x="242" y="209" on="0"/>
        <pt x="338" y="164" on="0"/>
        <pt x="403" y="164" on="1"/>
        <pt x="469" y="164" on="0"/>
        <pt x="582" y="209" on="0"/>
        <pt x="674" y="291" on="0"/>
        <pt x="735" y="399" on="0"/>
      </contour>
    </TTGlyph>
    <TTGlyph name="afii10081" xMin="-49" yMin="0" xMax="981" yMax="932">
      <contour>
        <pt x="784" y="0" on="1"/>
        <pt x="578" y="0" on="1"/>
        <pt x="735" y="745" on="1"/>
        <pt x="315" y="745" on="1"/>
        <pt x="158" y="0" on="1"/>
        <pt x="-49" y="0" on="1"/>
        <pt x="147" y="932" on="1"/>
        <pt x="981" y="932" on="1"/>
      </contour>
    </TTGlyph>
    <TTGlyph name="afii10082" xMin="-127" yMin="-373" xMax="954" yMax="954">
      <contour>
        <pt x="147" y="932" on="1"/>
        <pt x="354" y="932" on="1"/>
        <pt x="336" y="848" on="1"/>
        <pt x="408" y="901" on="0"/>
        <pt x="541" y="954" on="0"/>
        <pt x="618" y="954" on="1"/>
        <pt x="709" y="954" on="0"/>
        <pt x="846" y="881" on="0"/>
        <pt x="930" y="752" on="0"/>
        <pt x="954" y="571" on="0"/>
        <pt x="932" y="465" on="1"/>
        <pt x="909" y="358" on="0"/>
        <pt x="807" y="178" on="0"/>
        <pt x="670" y="49" on="0"/>
        <pt x="500" y="-23" on="0"/>
        <pt x="410" y="-23" on="1"/>
        <pt x="332" y="-23" on="0"/>
        <pt x="223" y="33" on="0"/>
        <pt x="174" y="86" on="1"/>
        <pt x="78" y="-373" on="1"/>
        <pt x="-127" y="-373" on="1"/>
      </contour>
      <contour>
        <pt x="209" y="250" on="1"/>
        <pt x="238" y="209" on="0"/>
        <pt x="344" y="164" on="0"/>
        <pt x="397" y="164" on="1"/>
        <pt x="514" y="164" on="0"/>
        <pt x="696" y="330" on="0"/>
        <pt x="725" y="465" on="1"/>
        <pt x="754" y="600" on="0"/>
        <pt x="641" y="768" on="0"/>
        <pt x="524" y="768" on="1"/>
        <pt x="471" y="768" on="0"/>
        <pt x="348" y="725" on="0"/>
        <pt x="301" y="684" on="1"/>
      </contour>
    </TTGlyph>
    <TTGlyph name="afii10083" xMin="-45" yMin="-23" xMax="981" yMax="954">
      <contour>
        <pt x="825" y="133" on="1"/>
        <pt x="717" y="43" on="0"/>
        <pt x="504" y="-23" on="0"/>
        <pt x="387" y="-23" on="1"/>
        <pt x="270" y="-23" on="0"/>
        <pt x="94" y="47" on="0"/>
        <pt x="-10" y="174" on="0"/>
        <pt x="-45" y="354" on="0"/>
        <pt x="-20" y="465" on="1"/>
        <pt x="2" y="571" on="0"/>
        <pt x="113" y="752" on="0"/>
        <pt x="260" y="881" on="0"/>
        <pt x="440" y="954" on="0"/>
        <pt x="532" y="954" on="1"/>
        <pt x="629" y="954" on="0"/>
        <pt x="752" y="874" on="0"/>
        <pt x="768" y="797" on="1"/>
        <pt x="797" y="932" on="1"/>
        <pt x="981" y="932" on="1"/>
        <pt x="889" y="498" on="1"/>
        <pt x="705" y="498" on="1"/>
        <pt x="731" y="621" on="0"/>
        <pt x="627" y="768" on="0"/>
        <pt x="518" y="768" on="1"/>
        <pt x="475" y="768" on="0"/>
        <pt x="375" y="733" on="0"/>
        <pt x="279" y="659" on="0"/>
        <pt x="203" y="545" on="0"/>
        <pt x="186" y="465" on="1"/>
        <pt x="170" y="387" on="0"/>
        <pt x="195" y="274" on="0"/>
        <pt x="260" y="201" on="0"/>
        <pt x="365" y="164" on="0"/>
        <pt x="424" y="164" on="1"/>
        <pt x="524" y="164" on="0"/>
        <pt x="686" y="227" on="0"/>
        <pt x="750" y="279" on="1"/>
      </contour>
    </TTGlyph>
    <TTGlyph name="afii10084" xMin="-2" yMin="0" xMax="1028" yMax="932">
      <contour>
        <pt x="928" y="457" on="1"/>
        <pt x="743" y="457" on="1"/>
        <pt x="805" y="745" on="1"/>
        <pt x="629" y="745" on="1"/>
        <pt x="510" y="186" on="1"/>
        <pt x="717" y="186" on="1"/>
        <pt x="678" y="0" on="1"/>
        <pt x="57" y="0" on="1"/>
        <pt x="96" y="186" on="1"/>
        <pt x="303" y="186" on="1"/>
        <pt x="422" y="745" on="1"/>
        <pt x="244" y="745" on="1"/>
        <pt x="182" y="457" on="1"/>
        <pt x="-2" y="457" on="1"/>
        <pt x="98" y="932" on="1"/>
        <pt x="1028" y="932" on="1"/>
      </contour>
    </TTGlyph>
    <TTGlyph name="afii10085" xMin="-174" yMin="-395" xMax="1022" yMax="932">
      <contour>
        <pt x="1022" y="932" on="1"/>
        <pt x="385" y="-182" on="1"/>
        <pt x="313" y="-303" on="0"/>
        <pt x="121" y="-395" on="0"/>
        <pt x="2" y="-395" on="1"/>
        <pt x="-39" y="-395" on="0"/>
        <pt x="-127" y="-379" on="0"/>
        <pt x="-174" y="-360" on="1"/>
        <pt x="-92" y="-170" on="1"/>
        <pt x="-53" y="-186" on="0"/>
        <pt x="16" y="-199" on="0"/>
        <pt x="45" y="-199" on="1"/>
        <pt x="137" y="-199" on="0"/>
        <pt x="190" y="-115" on="1"/>
        <pt x="246" y="-25" on="1"/>
        <pt x="92" y="932" on="1"/>
        <pt x="307" y="932" on="1"/>
        <pt x="414" y="227" on="1"/>
        <pt x="801" y="932" on="1"/>
      </contour>
    </TTGlyph>
    <TTGlyph name="afii10086" xMin="-57" yMin="-373" xMax="989" yMax="1305">
      <contour>
        <pt x="416" y="715" on="1"/>
        <pt x="408" y="752" on="0"/>
        <pt x="373" y="778" on="0"/>
        <pt x="350" y="778" on="1"/>
        <pt x="328" y="778" on="0"/>
        <pt x="281" y="748" on="0"/>
        <pt x="238" y="676" on="0"/>
        <pt x="195" y="555" on="0"/>
        <pt x="176" y="467" on="1"/>
        <pt x="158" y="377" on="0"/>
        <pt x="147" y="258" on="0"/>
        <pt x="162" y="184" on="0"/>
        <pt x="195" y="154" on="0"/>
        <pt x="217" y="154" on="1"/>
        <pt x="240" y="154" on="0"/>
        <pt x="285" y="180" on="0"/>
        <pt x="309" y="217" on="1"/>
      </contour>
      <contour>
        <pt x="184" y="-373" on="1"/>
        <pt x="276" y="63" on="1"/>
        <pt x="252" y="20" on="0"/>
        <pt x="168" y="-23" on="0"/>
        <pt x="127" y="-23" on="1"/>
        <pt x="72" y="-23" on="0"/>
        <pt x="-8" y="39" on="0"/>
        <pt x="-55" y="162" on="0"/>
        <pt x="-57" y="344" on="0"/>
        <pt x="-31" y="467" on="1"/>
        <pt x="-4" y="590" on="0"/>
        <pt x="76" y="772" on="0"/>
        <pt x="172" y="893" on="0"/>
        <pt x="281" y="954" on="0"/>
        <pt x="336" y="954" on="1"/>
        <pt x="377" y="954" on="0"/>
        <pt x="440" y="911" on="0"/>
        <pt x="449" y="868" on="1"/>
        <pt x="541" y="1305" on="1"/>
        <pt x="748" y="1305" on="1"/>
        <pt x="655" y="868" on="1"/>
        <pt x="680" y="911" on="0"/>
        <pt x="764" y="954" on="0"/>
        <pt x="805" y="954" on="1"/>
        <pt x="860" y="954" on="0"/>
        <pt x="940" y="893" on="0"/>
        <pt x="987" y="772" on="0"/>
        <pt x="989" y="590" on="0"/>
        <pt x="963" y="467" on="1"/>
        <pt x="936" y="344" on="0"/>
        <pt x="856" y="162" on="0"/>
        <pt x="760" y="39" on="0"/>
        <pt x="651" y="-23" on="0"/>
        <pt x="596" y="-23" on="1"/>
        <pt x="555" y="-23" on="0"/>
        <pt x="492" y="20" on="0"/>
        <pt x="483" y="63" on="1"/>
        <pt x="391" y="-373" on="1"/>
      </contour>
      <contour>
        <pt x="516" y="217" on="1"/>
        <pt x="524" y="180" on="0"/>
        <pt x="557" y="154" on="0"/>
        <pt x="580" y="154" on="1"/>
        <pt x="602" y="154" on="0"/>
        <pt x="651" y="184" on="0"/>
        <pt x="694" y="258" on="0"/>
        <pt x="737" y="377" on="0"/>
        <pt x="756" y="467" on="1"/>
        <pt x="774" y="555" on="0"/>
        <pt x="784" y="676" on="0"/>
        <pt x="770" y="748" on="0"/>
        <pt x="735" y="778" on="0"/>
        <pt x="713" y="778" on="1"/>
        <pt x="690" y="778" on="0"/>
        <pt x="647" y="752" on="0"/>
        <pt x="623" y="715" on="1"/>
      </contour>
    </TTGlyph>
    <TTGlyph name="afii10087" xMin="-119" yMin="0" xMax="1030" yMax="932">
      <contour>
        <pt x="856" y="0" on="1"/>
        <pt x="414" y="0" on="1"/>
        <pt x="453" y="186" on="1"/>
        <pt x="535" y="186" on="1"/>
        <pt x="449" y="381" on="1"/>
        <pt x="283" y="186" on="1"/>
        <pt x="358" y="186" on="1"/>
        <pt x="319" y="0" on="1"/>
        <pt x="-119" y="0" on="1"/>
        <pt x="-80" y="186" on="1"/>
        <pt x="55" y="186" on="1"/>
        <pt x="326" y="473" on="1"/>
        <pt x="184" y="745" on="1"/>
        <pt x="59" y="745" on="1"/>
        <pt x="98" y="932" on="1"/>
        <pt x="518" y="932" on="1"/>
        <pt x="479" y="745" on="1"/>
        <pt x="414" y="745" on="1"/>
        <pt x="487" y="565" on="1"/>
        <pt x="641" y="745" on="1"/>
        <pt x="567" y="745" on="1"/>
        <pt x="606" y="932" on="1"/>
        <pt x="1030" y="932" on="1"/>
        <pt x="991" y="745" on="1"/>
        <pt x="870" y="745" on="1"/>
        <pt x="614" y="473" on="1"/>
        <pt x="762" y="186" on="1"/>
        <pt x="895" y="186" on="1"/>
      </contour>
    </TTGlyph>
    <TTGlyph name="afii10088" xMin="-49" yMin="-319" xMax="995" yMax="932">
      <contour>
        <pt x="995" y="186" on="1"/>
        <pt x="887" y="-319" on="1"/>
        <pt x="700" y="-319" on="1"/>
        <pt x="770" y="0" on="1"/>
        <pt x="-49" y="0" on="1"/>
        <pt x="147" y="932" on="1"/>
        <pt x="354" y="932" on="1"/>
        <pt x="197" y="186" on="1"/>
        <pt x="616" y="186" on="1"/>
        <pt x="774" y="932" on="1"/>
        <pt x="981" y="932" on="1"/>
        <pt x="823" y="186" on="1"/>
      </contour>
    </TTGlyph>
    <TTGlyph name="afii10089" xMin="25" yMin="0" xMax="981" yMax="932">
      <contour>
        <pt x="147" y="932" on="1"/>
        <pt x="354" y="932" on="1"/>
        <pt x="272" y="543" on="1"/>
        <pt x="250" y="434" on="0"/>
        <pt x="313" y="350" on="0"/>
        <pt x="391" y="350" on="1"/>
        <pt x="506" y="350" on="0"/>
        <pt x="690" y="537" on="0"/>
        <pt x="725" y="700" on="1"/>
        <pt x="774" y="932" on="1"/>
        <pt x="981" y="932" on="1"/>
        <pt x="784" y="0" on="1"/>
        <pt x="578" y="0" on="1"/>
        <pt x="666" y="420" on="1"/>
        <pt x="610" y="299" on="0"/>
        <pt x="414" y="164" on="0"/>
        <pt x="291" y="164" on="1"/>
        <pt x="147" y="164" on="0"/>
        <pt x="25" y="350" on="0"/>
        <pt x="66" y="543" on="1"/>
      </contour>
    </TTGlyph>
    <TTGlyph name="afii10090" xMin="-98" yMin="0" xMax="1030" yMax="932">
      <contour>
        <pt x="461" y="932" on="1"/>
        <pt x="668" y="932" on="1"/>
        <pt x="510" y="186" on="1"/>
        <pt x="666" y="186" on="1"/>
        <pt x="823" y="932" on="1"/>
        <pt x="1030" y="932" on="1"/>
        <pt x="834" y="0" on="1"/>
        <pt x="-98" y="0" on="1"/>
        <pt x="98" y="932" on="1"/>
        <pt x="305" y="932" on="1"/>
        <pt x="147" y="186" on="1"/>
        <pt x="303" y="186" on="1"/>
      </contour>
    </TTGlyph>
    <TTGlyph name="afii10091" xMin="-98" yMin="-319" xMax="1059" yMax="932">
      <contour>
        <pt x="-98" y="0" on="1"/>
        <pt x="98" y="932" on="1"/>
        <pt x="305" y="932" on="1"/>
        <pt x="147" y="186" on="1"/>
        <pt x="303" y="186" on="1"/>
        <pt x="461" y="932" on="1"/>
        <pt x="668" y="932" on="1"/>
        <pt x="510" y="186" on="1"/>
        <pt x="666" y="186" on="1"/>
        <pt x="823" y="932" on="1"/>
        <pt x="1030" y="932" on="1"/>
        <pt x="872" y="186" on="1"/>
        <pt x="1059" y="186" on="1"/>
        <pt x="950" y="-319" on="1"/>
        <pt x="764" y="-319" on="1"/>
        <pt x="834" y="0" on="1"/>
      </contour>
    </TTGlyph>
    <TTGlyph name="afii10092" xMin="59" yMin="0" xMax="924" yMax="932">
      <contour>
        <pt x="98" y="932" on="1"/>
        <pt x="471" y="932" on="1"/>
        <pt x="395" y="571" on="1"/>
        <pt x="614" y="571" on="1"/>
        <pt x="774" y="571" on="0"/>
        <pt x="924" y="430" on="0"/>
        <pt x="893" y="287" on="1"/>
        <pt x="864" y="145" on="0"/>
        <pt x="653" y="0" on="0"/>
        <pt x="492" y="0" on="1"/>
        <pt x="68" y="0" on="1"/>
        <pt x="225" y="745" on="1"/>
        <pt x="59" y="745" on="1"/>
      </contour>
      <contour>
        <pt x="686" y="285" on="1"/>
        <pt x="696" y="336" on="0"/>
        <pt x="635" y="385" on="0"/>
        <pt x="573" y="385" on="1"/>
        <pt x="354" y="385" on="1"/>
        <pt x="313" y="186" on="1"/>
        <pt x="532" y="186" on="1"/>
        <pt x="594" y="186" on="0"/>
        <pt x="676" y="236" on="0"/>
      </contour>
    </TTGlyph>
    <TTGlyph name="afii10093" xMin="-119" yMin="0" xMax="1051" yMax="932">
      <contour>
        <pt x="594" y="287" on="1"/>
        <pt x="565" y="145" on="0"/>
        <pt x="354" y="0" on="0"/>
        <pt x="193" y="0" on="1"/>
        <pt x="-119" y="0" on="1"/>
        <pt x="78" y="932" on="1"/>
        <pt x="285" y="932" on="1"/>
        <pt x="209" y="571" on="1"/>
        <pt x="315" y="571" on="1"/>
        <pt x="475" y="571" on="0"/>
        <pt x="625" y="430" on="0"/>
      </contour>
      <contour>
        <pt x="387" y="285" on="1"/>
        <pt x="397" y="336" on="0"/>
        <pt x="336" y="385" on="0"/>
        <pt x="274" y="385" on="1"/>
        <pt x="168" y="385" on="1"/>
        <pt x="127" y="186" on="1"/>
        <pt x="233" y="186" on="1"/>
        <pt x="295" y="186" on="0"/>
        <pt x="377" y="236" on="0"/>
      </contour>
      <contour>
        <pt x="844" y="932" on="1"/>
        <pt x="1051" y="932" on="1"/>
        <pt x="854" y="0" on="1"/>
        <pt x="647" y="0" on="1"/>
      </contour>
    </TTGlyph>
    <TTGlyph name="afii10094" xMin="-49" yMin="0" xMax="924" yMax="932">
      <contour>
        <pt x="893" y="287" on="1"/>
        <pt x="864" y="145" on="0"/>
        <pt x="653" y="0" on="0"/>
        <pt x="492" y="0" on="1"/>
        <pt x="-49" y="0" on="1"/>
        <pt x="147" y="932" on="1"/>
        <pt x="354" y="932" on="1"/>
        <pt x="279" y="571" on="1"/>
        <pt x="614" y="571" on="1"/>
        <pt x="774" y="571" on="0"/>
        <pt x="924" y="430" on="0"/>
      </contour>
      <contour>
        <pt x="686" y="285" on="1"/>
        <pt x="696" y="336" on="0"/>
        <pt x="635" y="385" on="0"/>
        <pt x="573" y="385" on="1"/>
        <pt x="238" y="385" on="1"/>
        <pt x="197" y="186" on="1"/>
        <pt x="532" y="186" on="1"/>
        <pt x="594" y="186" on="0"/>
        <pt x="676" y="236" on="0"/>
      </contour>
    </TTGlyph>
    <TTGlyph name="afii10095" xMin="-57" yMin="-23" xMax="954" yMax="954">
      <contour>
        <pt x="932" y="465" on="1"/>
        <pt x="907" y="354" on="0"/>
        <pt x="799" y="174" on="0"/>
        <pt x="637" y="47" on="0"/>
        <pt x="432" y="-23" on="0"/>
        <pt x="315" y="-23" on="1"/>
        <pt x="199" y="-23" on="0"/>
        <pt x="14" y="43" on="0"/>
        <pt x="-57" y="133" on="1"/>
        <pt x="80" y="279" on="1"/>
        <pt x="123" y="227" on="0"/>
        <pt x="260" y="164" on="0"/>
        <pt x="360" y="164" on="1"/>
        <pt x="463" y="164" on="0"/>
        <pt x="651" y="270" on="0"/>
        <pt x="698" y="385" on="1"/>
        <pt x="254" y="385" on="1"/>
        <pt x="295" y="571" on="1"/>
        <pt x="731" y="571" on="1"/>
        <pt x="723" y="670" on="0"/>
        <pt x="586" y="768" on="0"/>
        <pt x="487" y="768" on="1"/>
        <pt x="387" y="768" on="0"/>
        <pt x="225" y="705" on="0"/>
        <pt x="160" y="653" on="1"/>
        <pt x="84" y="799" on="1"/>
        <pt x="195" y="889" on="0"/>
        <pt x="408" y="954" on="0"/>
        <pt x="524" y="954" on="1"/>
        <pt x="641" y="954" on="0"/>
        <pt x="815" y="885" on="0"/>
        <pt x="922" y="756" on="0"/>
        <pt x="954" y="575" on="0"/>
      </contour>
    </TTGlyph>
    <TTGlyph name="afii10096" xMin="-119" yMin="-23" xMax="1065" yMax="954">
      <contour>
        <pt x="78" y="932" on="1"/>
        <pt x="285" y="932" on="1"/>
        <pt x="209" y="571" on="1"/>
        <pt x="377" y="571" on="1"/>
        <pt x="489" y="954" on="0"/>
        <pt x="760" y="954" on="1"/>
        <pt x="1065" y="954" on="0"/>
        <pt x="961" y="465" on="1"/>
        <pt x="856" y="-23" on="0"/>
        <pt x="551" y="-23" on="1"/>
        <pt x="272" y="-23" on="0"/>
        <pt x="334" y="385" on="1"/>
        <pt x="168" y="385" on="1"/>
        <pt x="88" y="0" on="1"/>
        <pt x="-119" y="0" on="1"/>
      </contour>
      <contour>
        <pt x="557" y="465" on="1"/>
        <pt x="528" y="330" on="0"/>
        <pt x="530" y="164" on="0"/>
        <pt x="592" y="164" on="1"/>
        <pt x="651" y="164" on="0"/>
        <pt x="725" y="330" on="0"/>
        <pt x="754" y="465" on="1"/>
        <pt x="768" y="532" on="0"/>
        <pt x="782" y="643" on="0"/>
        <pt x="778" y="723" on="0"/>
        <pt x="748" y="768" on="0"/>
        <pt x="719" y="768" on="1"/>
        <pt x="688" y="768" on="0"/>
        <pt x="641" y="723" on="0"/>
        <pt x="602" y="643" on="0"/>
        <pt x="571" y="532" on="0"/>
      </contour>
    </TTGlyph>
    <TTGlyph name="afii10097" xMin="-111" yMin="0" xMax="981" yMax="932">
      <contour>
        <pt x="311" y="360" on="1"/>
        <pt x="154" y="362" on="0"/>
        <pt x="8" y="504" on="0"/>
        <pt x="37" y="645" on="1"/>
        <pt x="68" y="786" on="0"/>
        <pt x="279" y="932" on="0"/>
        <pt x="440" y="932" on="1"/>
        <pt x="981" y="932" on="1"/>
        <pt x="784" y="0" on="1"/>
        <pt x="578" y="0" on="1"/>
        <pt x="653" y="360" on="1"/>
        <pt x="569" y="360" on="1"/>
        <pt x="166" y="0" on="1"/>
        <pt x="-111" y="0" on="1"/>
      </contour>
      <contour>
        <pt x="246" y="647" on="1"/>
        <pt x="233" y="596" on="0"/>
        <pt x="295" y="547" on="0"/>
        <pt x="356" y="547" on="1"/>
        <pt x="692" y="547" on="1"/>
        <pt x="735" y="745" on="1"/>
        <pt x="399" y="745" on="1"/>
        <pt x="338" y="745" on="0"/>
        <pt x="256" y="696" on="0"/>
      </contour>
    </TTGlyph>
    <TTGlyph name="afii10098" xMin="-49" yMin="0" xMax="1071" yMax="1118">
      <contour>
        <pt x="885" y="1118" on="1"/>
        <pt x="1071" y="1118" on="1"/>
        <pt x="991" y="745" on="1"/>
        <pt x="315" y="745" on="1"/>
        <pt x="158" y="0" on="1"/>
        <pt x="-49" y="0" on="1"/>
        <pt x="147" y="932" on="1"/>
        <pt x="844" y="932" on="1"/>
      </contour>
    </TTGlyph>
</ttFont>
